<?xml version="1.0" encoding="UTF-8"?>
<svg xmlns="http://www.w3.org/2000/svg" xmlns:xlink="http://www.w3.org/1999/xlink" width="800" height="325" viewBox="1900 2095 1000 350">
<path fill-rule="evenodd" fill="#E9AF58" fill-opacity="1" d="M 2647.96875 2419.820312 C 2647.730469 2418.785156 2646.878906 2418.90625 2646.179688 2418.929688 C 2645.398438 2418.953125 2644.460938 2419.109375 2644.96875 2420.253906 C 2645.140625 2420.636719 2645.78125 2420.953125 2646.25 2421.019531 C 2647.121094 2421.144531 2647.671875 2420.574219 2647.96875 2419.820312 M 2270.910156 2442.335938 C 2270.21875 2442.390625 2269.480469 2442.402344 2268.75 2442.523438 C 2268.109375 2442.628906 2267.789062 2443.332031 2268.171875 2443.488281 C 2268.800781 2443.753906 2269.621094 2443.675781 2270.339844 2443.578125 C 2270.96875 2443.492188 2271.171875 2443.023438 2270.910156 2442.335938 M 2136.519531 2430.671875 C 2136.769531 2431.445312 2137.328125 2431.933594 2138.109375 2431.851562 C 2138.328125 2431.828125 2138.671875 2431.042969 2138.621094 2430.652344 C 2138.519531 2429.886719 2138.03125 2429.242188 2137.148438 2429.539062 C 2136.839844 2429.640625 2136.71875 2430.28125 2136.519531 2430.671875 M 2192.320312 2419.921875 C 2192.300781 2418.574219 2191.378906 2418.191406 2190.300781 2418.304688 C 2189.589844 2418.382812 2188.921875 2418.84375 2188.230469 2419.132812 C 2188.828125 2420.253906 2189.351562 2421.445312 2190.949219 2421.398438 C 2191.941406 2421.367188 2192.160156 2420.699219 2192.320312 2419.921875 M 2078.789062 2406.152344 C 2078.429688 2406.410156 2077.351562 2406.835938 2077.351562 2407.25 C 2077.359375 2408.253906 2078.410156 2408.039062 2079.140625 2408.066406 C 2079.921875 2408.101562 2080.878906 2408.066406 2080.878906 2407.097656 C 2080.871094 2406.109375 2079.898438 2406.125 2078.789062 2406.152344 M 2061.339844 2408.589844 C 2061.171875 2409.15625 2060.96875 2409.550781 2060.949219 2409.949219 C 2060.929688 2410.683594 2060.769531 2411.664062 2061.640625 2411.90625 C 2062.628906 2412.179688 2062.910156 2411.507812 2062.5 2410.648438 C 2062.179688 2409.984375 2061.78125 2409.363281 2061.339844 2408.589844 M 2852.339844 2313.570312 C 2852.109375 2313.148438 2851.949219 2312.414062 2851.660156 2312.355469 C 2850.730469 2312.167969 2850.25 2312.824219 2850.308594 2313.679688 C 2850.339844 2314.09375 2850.710938 2314.734375 2851.050781 2314.839844 C 2852.070312 2315.148438 2852.328125 2314.429688 2852.339844 2313.570312 M 2073.300781 2373.492188 C 2072.949219 2372.679688 2072.28125 2372.375 2071.480469 2372.546875 C 2070.691406 2372.722656 2069.921875 2373.257812 2070.078125 2374.121094 C 2070.25 2374.96875 2071.179688 2374.992188 2071.910156 2374.898438 C 2072.710938 2374.800781 2073.429688 2374.53125 2073.300781 2373.492188 M 1999.460938 2374.660156 C 1999.28125 2374.222656 1999.210938 2373.523438 1998.898438 2373.398438 C 1998.128906 2373.078125 1997.398438 2373.414062 1996.980469 2374.179688 C 1996.679688 2374.75 1996.871094 2375.222656 1997.488281 2375.40625 C 1998.308594 2375.640625 1998.988281 2375.414062 1999.460938 2374.660156 M 2027.429688 2351.9375 C 2027.378906 2350.992188 2026.789062 2350.515625 2025.96875 2350.773438 C 2025.339844 2350.96875 2024.621094 2351.464844 2024.339844 2352.027344 C 2024.039062 2352.636719 2024.371094 2353.601562 2025.191406 2353.609375 C 2026.21875 2353.617188 2026.96875 2352.882812 2027.429688 2351.9375 M 2037.75 2333.464844 C 2037.308594 2333.605469 2036.859375 2333.742188 2036.398438 2333.878906 C 2037.128906 2334.597656 2037.808594 2335.351562 2038.578125 2336.011719 C 2039.121094 2336.476562 2039.691406 2336.269531 2039.679688 2335.585938 C 2039.648438 2334.410156 2038.789062 2333.820312 2037.75 2333.464844 M 1956.691406 2264.527344 C 1955.851562 2264.761719 1955.359375 2265.324219 1955.710938 2266.148438 C 1955.851562 2266.484375 1956.5 2266.75 1956.941406 2266.78125 C 1957.691406 2266.839844 1958.480469 2266.558594 1958.328125 2265.609375 C 1958.199219 2264.804688 1957.53125 2264.449219 1956.691406 2264.527344 M 1858.050781 2272.265625 C 1859.019531 2272.148438 1859.300781 2271.496094 1859.28125 2270.644531 C 1859.25 2269.828125 1858.980469 2268.996094 1858.121094 2268.902344 C 1856.789062 2268.761719 1856.28125 2269.644531 1856.449219 2270.851562 C 1856.570312 2271.707031 1857.199219 2272.15625 1858.050781 2272.265625 M 1984.671875 2201.210938 C 1985.039062 2200.90625 1985.738281 2200.558594 1985.710938 2200.304688 C 1985.589844 2199.453125 1984.828125 2199.042969 1984.050781 2199.070312 C 1983.71875 2199.082031 1983.148438 2199.695312 1983.148438 2200.035156 C 1983.160156 2200.917969 1983.769531 2201.324219 1984.671875 2201.210938 M 1961.949219 2197.632812 C 1961.898438 2196.351562 1961.191406 2195.882812 1960.429688 2196.203125 C 1959.890625 2196.429688 1959.359375 2197.25 1959.28125 2197.863281 C 1959.179688 2198.59375 1959.671875 2199.457031 1960.640625 2198.992188 C 1961.238281 2198.703125 1961.628906 2197.980469 1961.949219 2197.632812 M 1972.390625 2174.175781 C 1971.800781 2175.242188 1971.179688 2176.292969 1970.671875 2177.394531 C 1970.609375 2177.527344 1971.230469 2178.230469 1971.488281 2178.203125 C 1973.320312 2177.992188 1973.710938 2176.636719 1972.390625 2174.175781 M 2065.449219 2153.328125 C 2064.609375 2153.378906 2063.738281 2153.667969 2063.800781 2154.410156 C 2063.871094 2155.507812 2064.800781 2156.066406 2065.890625 2156 C 2066.28125 2155.976562 2066.898438 2155.558594 2066.960938 2155.234375 C 2067.191406 2154.046875 2066.441406 2153.496094 2065.449219 2153.328125 M 2312.089844 2123.699219 C 2313.410156 2123.546875 2313.890625 2122.984375 2313.851562 2122.140625 C 2313.808594 2121.335938 2313.359375 2120.664062 2312.449219 2120.785156 C 2311.640625 2120.894531 2311.089844 2121.519531 2311.101562 2122.355469 C 2311.109375 2123.199219 2311.628906 2123.703125 2312.089844 2123.699219 M 2572.949219 2099.769531 C 2572.839844 2098.679688 2572.460938 2097.886719 2571.589844 2098.238281 C 2571.058594 2098.453125 2570.570312 2099.339844 2570.488281 2099.976562 C 2570.390625 2100.757812 2571.070312 2101.542969 2571.859375 2101.28125 C 2572.390625 2101.105469 2572.671875 2100.183594 2572.949219 2099.769531 M 2199.570312 2124.167969 C 2199.140625 2124.585938 2198.589844 2124.863281 2198.558594 2125.191406 C 2198.460938 2126.125 2199.179688 2126.457031 2199.960938 2126.421875 C 2200.570312 2126.398438 2201.589844 2126.410156 2201.160156 2125.382812 C 2200.929688 2124.84375 2200.109375 2124.554688 2199.570312 2124.167969 M 2232.570312 2099.429688 C 2231.769531 2099.730469 2231.308594 2100.324219 2231.339844 2101.144531 C 2231.371094 2101.957031 2231.75 2102.769531 2232.71875 2102.28125 C 2233.308594 2101.984375 2233.949219 2101.253906 2234.039062 2100.644531 C 2234.148438 2099.867188 2233.550781 2099.246094 2232.570312 2099.429688 M 2685.328125 2396.21875 C 2685.761719 2394.992188 2685.121094 2394.128906 2684.109375 2393.832031 C 2683.570312 2393.675781 2682.339844 2394.171875 2682.21875 2394.597656 C 2681.859375 2395.867188 2682.101562 2397.175781 2683.730469 2397.527344 C 2684.730469 2397.742188 2684.980469 2396.882812 2685.328125 2396.21875 M 2241.171875 2431.582031 C 2241.691406 2430.824219 2243.21875 2430.433594 2242.71875 2428.941406 C 2242.628906 2428.65625 2241.390625 2428.566406 2240.75 2428.6875 C 2239.699219 2428.882812 2238.929688 2429.574219 2239.238281 2430.761719 C 2239.441406 2431.535156 2240.101562 2431.859375 2241.171875 2431.582031 M 2049.058594 2433.824219 C 2050.53125 2433.503906 2051.128906 2432.53125 2051 2431.097656 C 2050.929688 2430.335938 2050.28125 2429.410156 2049.730469 2429.917969 C 2048.921875 2430.679688 2048.488281 2431.933594 2048.089844 2433.046875 C 2047.898438 2433.558594 2048.429688 2433.898438 2049.058594 2433.824219 M 2082.730469 2420.800781 C 2083.410156 2422.121094 2084.449219 2422.261719 2085.46875 2422.324219 C 2086.71875 2422.398438 2087.480469 2421.609375 2087.308594 2420.480469 C 2087.160156 2419.421875 2086.238281 2418.601562 2085.078125 2419.066406 C 2084.191406 2419.425781 2083.480469 2420.226562 2082.730469 2420.800781 M 2056.789062 2413.449219 C 2057.390625 2411.222656 2056.410156 2411.175781 2055.730469 2411.023438 C 2054.628906 2410.78125 2053.378906 2411.144531 2053.070312 2412.105469 C 2052.78125 2412.988281 2053.25 2414.195312 2054.738281 2414.054688 C 2055.820312 2413.945312 2056.75 2413.609375 2056.789062 2413.449219 M 2005.941406 2374.121094 C 2005.929688 2373.011719 2005.339844 2372.5 2004.46875 2372.925781 C 2003.839844 2373.242188 2003.179688 2373.945312 2003 2374.601562 C 2002.800781 2375.351562 2003.371094 2376.265625 2004.230469 2376.234375 C 2005.5 2376.1875 2005.71875 2375.019531 2005.941406 2374.121094 M 2065.921875 2358.875 C 2065.980469 2358.523438 2065.308594 2358.074219 2064.519531 2357.976562 C 2063.140625 2357.804688 2062.75 2358.835938 2062.628906 2359.921875 C 2062.53125 2360.964844 2062.519531 2362.21875 2064.128906 2361.835938 C 2065.191406 2361.582031 2065.789062 2360.675781 2065.921875 2358.875 M 2831.21875 2219.253906 C 2830.871094 2218.148438 2830.109375 2217.222656 2829.011719 2217.300781 C 2828.089844 2217.367188 2828.128906 2218.535156 2828.460938 2219.175781 C 2828.78125 2219.796875 2829.429688 2220.484375 2830.058594 2220.65625 C 2831.011719 2220.910156 2831.261719 2220.082031 2831.21875 2219.253906 M 2787.960938 2216.988281 C 2790.050781 2217.828125 2791.25 2219.332031 2792.730469 2217.765625 C 2792.980469 2217.5 2793.019531 2216.550781 2792.839844 2216.433594 C 2791.398438 2215.539062 2789.960938 2215.949219 2787.960938 2216.988281 M 2868.578125 2203.5625 C 2868.339844 2202.234375 2867.328125 2202.03125 2866.269531 2202.117188 C 2865.820312 2202.15625 2865.019531 2202.613281 2865.039062 2202.785156 C 2865.199219 2203.90625 2866.140625 2204.449219 2867.089844 2204.734375 C 2867.910156 2204.976562 2868.460938 2204.429688 2868.578125 2203.5625 M 1951.550781 2161.441406 C 1952.429688 2161.488281 1953.449219 2161.347656 1953.539062 2160.554688 C 1953.699219 2159.101562 1952.359375 2159.121094 1951.390625 2159.058594 C 1950.441406 2158.996094 1949.039062 2158.933594 1949.109375 2160.222656 C 1949.179688 2161.496094 1950.679688 2161.210938 1951.550781 2161.441406 M 2596.949219 2099.402344 C 2596.808594 2098.261719 2596.140625 2097.480469 2595.140625 2097.039062 C 2594.378906 2096.699219 2593.570312 2096.851562 2593.429688 2097.808594 C 2593.25 2098.984375 2593.878906 2099.820312 2595.011719 2100.144531 C 2595.789062 2100.367188 2596.5 2100.179688 2596.949219 2099.402344 M 2335.5 2114.917969 C 2334.601562 2115.117188 2334.160156 2115.882812 2334.539062 2116.519531 C 2334.789062 2116.941406 2335.800781 2117.0625 2336.46875 2117.050781 C 2337.261719 2117.03125 2337.890625 2116.613281 2337.390625 2115.625 C 2336.980469 2114.820312 2336.25 2114.816406 2335.5 2114.917969 M 2591.179688 2085.921875 C 2593.289062 2088.367188 2593.449219 2090.09375 2595.390625 2090.171875 C 2595.699219 2090.183594 2596.359375 2089.496094 2596.320312 2089.21875 C 2596.039062 2087.449219 2594.691406 2086.757812 2591.179688 2085.921875 M 2271.769531 2095.410156 C 2271.378906 2094.402344 2270.519531 2094.046875 2269.398438 2094.269531 C 2268.160156 2094.519531 2267.570312 2095.503906 2268.078125 2096.472656 C 2268.539062 2097.332031 2269.730469 2097.683594 2270.789062 2097.171875 C 2271.429688 2096.867188 2272.289062 2096.566406 2271.769531 2095.410156 M 2123.410156 2116.988281 C 2124.960938 2119.957031 2126.449219 2120.972656 2129.359375 2121.152344 C 2128.199219 2118.542969 2127.089844 2116.980469 2123.410156 2116.988281 M 2201.78125 2113.96875 C 2200.640625 2111.492188 2199.199219 2110.3125 2196.800781 2110.988281 C 2196.519531 2111.066406 2196.148438 2111.871094 2196.261719 2112.195312 C 2196.960938 2114.296875 2198.921875 2114.320312 2200.660156 2114.648438 C 2200.820312 2114.679688 2201.03125 2114.433594 2201.78125 2113.96875 M 2185.96875 2116.421875 C 2185.230469 2116.539062 2184.179688 2116.882812 2184.410156 2117.550781 C 2184.808594 2118.742188 2185.929688 2119.613281 2187.261719 2119.582031 C 2187.808594 2119.570312 2188.839844 2118.675781 2188.789062 2118.324219 C 2188.550781 2116.863281 2187.359375 2116.40625 2185.96875 2116.421875 M 2031.011719 2220.148438 C 2032.269531 2219.648438 2034.089844 2219.914062 2034.558594 2218.109375 C 2034.75 2217.359375 2034.039062 2216.652344 2033.21875 2216.628906 C 2031.859375 2216.585938 2030.949219 2217.570312 2030.230469 2218.550781 C 2029.75 2219.199219 2030.101562 2219.878906 2031.011719 2220.148438 M 2768.480469 2108.378906 C 2767.621094 2107.703125 2767.269531 2107.21875 2766.820312 2107.121094 C 2765.550781 2106.835938 2763.191406 2105.296875 2763.46875 2107.898438 C 2763.738281 2110.308594 2766.179688 2109.484375 2768.480469 2108.378906 M 1862.640625 2283.953125 C 1862.589844 2282.492188 1861.5 2281.851562 1860.421875 2281.214844 C 1859.820312 2280.859375 1859.320312 2281.035156 1859.269531 2281.726562 C 1859.160156 2283.4375 1859.929688 2284.617188 1861.660156 2284.933594 C 1861.921875 2284.980469 1862.300781 2284.316406 1862.640625 2283.953125 M 2769.609375 2232.476562 C 2768.699219 2230.992188 2767.441406 2230.429688 2765.699219 2230.878906 C 2764.910156 2231.082031 2764.191406 2231.417969 2764.210938 2232.339844 C 2764.230469 2233.394531 2765.160156 2233.398438 2765.878906 2233.441406 C 2767.140625 2233.519531 2768.460938 2233.734375 2769.609375 2232.476562 M 2010.609375 2326.5625 C 2009.910156 2325.679688 2009.019531 2325.304688 2007.96875 2325.765625 C 2006.871094 2326.25 2005.429688 2326.785156 2006.070312 2328.28125 C 2006.25 2328.707031 2007.941406 2328.65625 2008.898438 2328.539062 C 2009.910156 2328.414062 2010.820312 2327.894531 2010.609375 2326.5625 M 2027.078125 2364.003906 C 2028.550781 2363.921875 2029.128906 2362.828125 2029.339844 2361.582031 C 2029.46875 2360.773438 2028.769531 2360.191406 2028.019531 2360.035156 C 2026.578125 2359.738281 2025.488281 2360.371094 2025.339844 2361.835938 C 2025.238281 2362.847656 2025.910156 2363.699219 2027.078125 2364.003906 M 2047.890625 2413.324219 C 2048.5 2413.015625 2049.570312 2412.992188 2048.949219 2411.847656 C 2048.359375 2410.78125 2048.140625 2409.210938 2046.589844 2409.167969 C 2045.320312 2409.132812 2044.769531 2410.351562 2044.980469 2411.335938 C 2045.269531 2412.695312 2046.398438 2413.40625 2047.890625 2413.324219 M 2075.238281 2442.042969 C 2077.089844 2441.769531 2077.96875 2440.878906 2077.628906 2439.316406 C 2077.449219 2438.496094 2076.441406 2438.3125 2075.710938 2438.574219 C 2074.488281 2439.007812 2073.191406 2439.652344 2073.550781 2441.238281 C 2073.648438 2441.667969 2074.808594 2441.851562 2075.238281 2442.042969 M 2832.441406 2129.90625 C 2834.179688 2129.535156 2834.289062 2127.898438 2834.648438 2126.558594 C 2834.941406 2125.503906 2834.609375 2124.46875 2833.230469 2124.601562 C 2831.429688 2124.769531 2830.648438 2125.980469 2830.648438 2127.699219 C 2830.640625 2128.8125 2831.210938 2129.582031 2832.441406 2129.90625 M 2860.019531 2131.851562 C 2858.960938 2128.84375 2857.179688 2127.953125 2854.648438 2128.574219 C 2854.359375 2128.644531 2853.949219 2129.542969 2854.078125 2129.847656 C 2854.898438 2131.757812 2857.011719 2131.390625 2858.488281 2132.148438 C 2858.671875 2132.242188 2858.980469 2132.066406 2860.019531 2131.851562 M 1976.308594 2211.671875 C 1976.511719 2213.019531 1977.359375 2213.523438 1978.5 2213.550781 C 1979.949219 2213.585938 1981.160156 2213.089844 1981.160156 2211.425781 C 1981.160156 2210.527344 1980.300781 2210.097656 1979.449219 2210.238281 C 1978.28125 2210.4375 1976.648438 2209.816406 1976.308594 2211.671875 M 1998.03125 2435.796875 C 1999.25 2435.617188 1999.621094 2434.742188 1999.941406 2433.753906 C 2000.710938 2431.417969 1998.96875 2431.28125 1997.519531 2431.015625 C 1996.480469 2430.820312 1995.328125 2431.03125 1995.429688 2432.414062 C 1995.558594 2434.03125 1996.691406 2435.066406 1998.03125 2435.796875 M 2882.21875 2204.910156 C 2883.660156 2202.164062 2882.339844 2200.539062 2879.890625 2199.457031 C 2879.621094 2199.335938 2878.789062 2199.78125 2878.660156 2200.128906 C 2877.671875 2202.730469 2879.339844 2203.933594 2881.339844 2204.894531 C 2881.558594 2204.996094 2881.859375 2204.910156 2882.21875 2204.910156 M 2228.339844 2435.894531 C 2227.058594 2435.972656 2226.589844 2437.003906 2226.128906 2437.867188 C 2225.488281 2439.054688 2225.109375 2440.628906 2226.660156 2441.246094 C 2229.128906 2442.226562 2228.96875 2439.910156 2229.320312 2438.578125 C 2229.589844 2437.566406 2229.378906 2436.484375 2228.339844 2435.894531 M 2213.230469 2439.570312 C 2213.160156 2435.738281 2211.648438 2434.132812 2208.46875 2435.769531 C 2208.140625 2435.9375 2208.050781 2436.558594 2207.78125 2437.121094 C 2209.601562 2437.941406 2211.421875 2438.757812 2213.230469 2439.570312 M 2792.890625 2264.058594 C 2791.628906 2264.394531 2791.429688 2265.363281 2791.359375 2266.390625 C 2791.261719 2268.152344 2792.320312 2268.523438 2793.78125 2268.289062 C 2795.058594 2268.085938 2796.429688 2267.789062 2795.808594 2266 C 2795.359375 2264.667969 2794.171875 2264.164062 2792.890625 2264.058594 M 1913.820312 2277.726562 C 1913.390625 2276.601562 1913.019531 2275.214844 1911.378906 2275.371094 C 1910.308594 2275.472656 1908.46875 2274.851562 1908.628906 2276.957031 C 1908.730469 2278.261719 1909.480469 2279.480469 1910.890625 2279.785156 C 1912.410156 2280.113281 1913.238281 2279.121094 1913.820312 2277.726562 M 2837.039062 2122.132812 C 2834.808594 2119.261719 2833.96875 2116.785156 2830.859375 2116.722656 C 2830.519531 2116.71875 2829.839844 2117.371094 2829.871094 2117.667969 C 2830.128906 2120.496094 2832.910156 2120.792969 2834.609375 2122.191406 C 2834.75 2122.3125 2835.101562 2122.195312 2837.039062 2122.132812 M 2584.179688 2092.070312 C 2586.890625 2089.5625 2588.050781 2087.898438 2586.898438 2084.886719 C 2585.269531 2086.757812 2583.710938 2088.078125 2584.179688 2092.070312 M 2697.808594 2103.027344 C 2700.128906 2103.425781 2702.679688 2105.585938 2705.78125 2102.5 C 2702.609375 2101.109375 2700.230469 2102.011719 2697.808594 2103.027344 M 2799.398438 2212.945312 C 2799.011719 2211.703125 2798.78125 2210.242188 2797.171875 2210.050781 C 2795.390625 2209.835938 2794.828125 2211.695312 2794.671875 2212.601562 C 2794.289062 2214.753906 2796.339844 2214.699219 2797.761719 2214.796875 C 2798.859375 2214.871094 2799.808594 2214.414062 2799.398438 2212.945312 M 2844.859375 2190.867188 C 2842.300781 2192.910156 2839.128906 2189.667969 2835.769531 2192.78125 C 2839.578125 2192.398438 2842.570312 2195.570312 2844.859375 2190.867188 M 2710.25 2106.140625 C 2712.289062 2106.316406 2713.5 2104.957031 2714.800781 2103.929688 C 2715.398438 2103.449219 2715.449219 2102.535156 2714.828125 2101.949219 C 2714.539062 2101.671875 2713.871094 2101.5625 2713.449219 2101.6875 C 2711.308594 2102.308594 2709.988281 2103.597656 2710.25 2106.140625 M 2133.898438 2410.742188 C 2135.050781 2410.53125 2135.578125 2409.875 2135.410156 2409.066406 C 2134.949219 2406.839844 2132.980469 2406.621094 2131.21875 2406.269531 C 2130.378906 2406.097656 2129.519531 2406.613281 2129.609375 2407.433594 C 2129.910156 2410.078125 2132.199219 2410.222656 2133.898438 2410.742188 M 2194.941406 2414.761719 C 2194.730469 2412.570312 2192.898438 2412.519531 2191.53125 2412.101562 C 2189.878906 2411.589844 2189.230469 2412.820312 2188.910156 2414.179688 C 2188.640625 2415.304688 2188.910156 2416.394531 2190.199219 2416.425781 C 2191.929688 2416.46875 2193.890625 2416.726562 2194.941406 2414.761719 M 2126.960938 2427.484375 C 2128.140625 2426.28125 2131.070312 2428.011719 2131.25 2425.148438 C 2131.308594 2424.113281 2129.820312 2422.816406 2129.28125 2423.480469 C 2127.941406 2425.128906 2124.429688 2422.804688 2124.488281 2426.1875 C 2124.5 2427.417969 2125.71875 2427.75 2126.960938 2427.484375 M 2017.378906 2228.808594 C 2019.148438 2228.410156 2020 2228.4375 2020.558594 2228.054688 C 2022.519531 2226.707031 2023.460938 2224.570312 2024.371094 2222.480469 C 2024.449219 2222.292969 2023.789062 2221.488281 2023.410156 2221.441406 C 2020.25 2221.042969 2020.191406 2224.359375 2018.480469 2225.734375 C 2017.980469 2226.136719 2017.949219 2227.121094 2017.378906 2228.808594 M 2820.308594 2224.894531 C 2821.960938 2225.117188 2822.730469 2225.40625 2823.429688 2225.277344 C 2825.378906 2224.914062 2826.859375 2223.988281 2826.46875 2221.632812 C 2826.378906 2221.140625 2826.230469 2220.359375 2825.929688 2220.257812 C 2824.058594 2219.628906 2823.328125 2221.328125 2822.261719 2222.273438 C 2821.71875 2222.753906 2821.371094 2223.441406 2820.308594 2224.894531 M 2690.648438 2362.558594 C 2685.238281 2362.714844 2685.238281 2362.714844 2683.46875 2365.355469 C 2686.078125 2366.042969 2688.078125 2365.203125 2690.648438 2362.558594 M 2685.660156 2433.753906 C 2689.058594 2433.667969 2690.878906 2432.710938 2692.53125 2431.507812 C 2693.359375 2430.902344 2693.929688 2429.683594 2693.320312 2428.769531 C 2692.628906 2427.734375 2691.378906 2428.082031 2690.570312 2428.808594 C 2689.109375 2430.121094 2687.789062 2431.589844 2685.660156 2433.753906 M 2805.308594 2328.222656 C 2805 2327.101562 2804.558594 2325.894531 2803.460938 2325.855469 C 2801.238281 2325.777344 2800.570312 2327.765625 2800 2329.375 C 2799.628906 2330.457031 2800.660156 2331.445312 2801.75 2331.484375 C 2803.941406 2331.574219 2804.738281 2329.917969 2805.308594 2328.222656 M 2098.539062 2127.570312 C 2099.75 2130.21875 2101.808594 2131.1875 2104.019531 2131.832031 C 2104.859375 2132.074219 2105.628906 2131.554688 2105.640625 2130.710938 C 2105.660156 2130.03125 2105.339844 2128.925781 2104.871094 2128.730469 C 2102.941406 2127.941406 2100.589844 2128.941406 2098.539062 2127.570312 M 2034.660156 2228.0625 C 2031.960938 2230.636719 2030.609375 2233.839844 2031.328125 2235.078125 C 2032.738281 2237.507812 2034.980469 2236.074219 2037.859375 2236.347656 C 2035.019531 2233.878906 2032.5 2231.765625 2034.660156 2228.0625 M 2207.628906 2424.851562 C 2206.570312 2425.417969 2204.808594 2425.941406 2205.398438 2427.398438 C 2206.058594 2429.035156 2207.5 2430.46875 2209.738281 2430.0625 C 2211.199219 2429.800781 2212.308594 2429.101562 2211.949219 2427.457031 C 2211.449219 2425.253906 2209.75 2424.71875 2207.628906 2424.851562 M 2808.449219 2120.898438 C 2811.300781 2123.667969 2815.019531 2122.882812 2818.289062 2123.859375 C 2819.71875 2124.289062 2820.640625 2123.070312 2820.351562 2121.484375 C 2820.121094 2120.265625 2819.328125 2119.875 2818.109375 2120.273438 C 2814.980469 2121.289062 2811.808594 2121.03125 2808.449219 2120.898438 M 1971.539062 2207.351562 C 1969.78125 2210.671875 1968.140625 2212.667969 1968.558594 2215.625 C 1968.730469 2216.808594 1969.160156 2217.625 1970.191406 2217.902344 C 1971.949219 2218.371094 1972.679688 2216.816406 1972.660156 2215.722656 C 1972.621094 2213.324219 1972.058594 2210.933594 1971.539062 2207.351562 M 2529.390625 2419.773438 C 2527.839844 2420.988281 2526.960938 2421.886719 2525.910156 2422.453125 C 2524.691406 2423.097656 2522.371094 2422.761719 2523.300781 2425.144531 C 2524.269531 2427.636719 2526.46875 2426.417969 2527.96875 2425.929688 C 2530.671875 2425.042969 2529.898438 2422.734375 2529.390625 2419.773438 M 1941.570312 2176.800781 C 1939.449219 2174.121094 1937.339844 2171.441406 1934.820312 2168.246094 C 1934.148438 2173.558594 1935.921875 2176.53125 1941.570312 2176.800781 M 1952.828125 2263.90625 C 1951.699219 2262.5625 1950.449219 2261.066406 1949.191406 2259.574219 C 1948.121094 2260.582031 1946.660156 2261.40625 1946.070312 2262.644531 C 1945.460938 2263.941406 1949.039062 2267.480469 1950.410156 2267.140625 C 1951.839844 2266.789062 1952.320312 2265.519531 1952.828125 2263.90625 M 2830.519531 2211.121094 C 2827.449219 2210.808594 2824.730469 2209.910156 2821.949219 2209.335938 C 2820.820312 2209.101562 2819.820312 2209.273438 2819.710938 2210.65625 C 2819.609375 2211.921875 2820.808594 2212.957031 2821.558594 2212.871094 C 2824.570312 2212.539062 2827.851562 2213.796875 2830.519531 2211.121094 M 2776.890625 2225.890625 C 2782.730469 2227.953125 2782.699219 2227.945312 2784.039062 2223.332031 C 2784.378906 2222.15625 2785.558594 2220.984375 2784.148438 2219.917969 C 2783.691406 2219.574219 2782.578125 2219.671875 2782 2219.984375 C 2779.941406 2221.09375 2781.230469 2222.277344 2781.808594 2223.746094 C 2782.609375 2225.753906 2781.480469 2226.667969 2779.429688 2225.796875 C 2778.5 2225.402344 2777.699219 2224.453125 2776.890625 2225.890625 M 2226.28125 2431.320312 C 2228.921875 2432.203125 2231.820312 2429.195312 2234.378906 2431.796875 C 2234.828125 2432.253906 2235.699219 2432.933594 2235.96875 2431.691406 C 2236.109375 2431.058594 2235.808594 2430.085938 2235.351562 2429.617188 C 2233.878906 2428.117188 2231.898438 2429.84375 2230.199219 2428.9375 C 2226.410156 2426.914062 2226.378906 2426.976562 2226.28125 2431.320312 M 1967.550781 2205.617188 C 1969.980469 2204.195312 1971.988281 2203.308594 1971.710938 2201.324219 C 1971.371094 2198.960938 1969.269531 2197.464844 1967.070312 2196.765625 C 1965.761719 2196.351562 1964.21875 2197.640625 1964.539062 2198.863281 C 1965.140625 2201.136719 1967.78125 2202.359375 1967.550781 2205.617188 M 2508.519531 2087.519531 C 2513.128906 2089.878906 2516.5 2087.566406 2519.679688 2088.507812 C 2520.460938 2088.738281 2521.648438 2087.46875 2521.589844 2086.359375 C 2521.511719 2084.742188 2520.261719 2084.128906 2518.800781 2084.511719 C 2515.789062 2085.296875 2512.828125 2086.242188 2508.519531 2087.519531 M 1947.941406 2274.066406 C 1947.519531 2273.195312 1947.859375 2271.480469 1945.921875 2271.589844 C 1943.339844 2271.738281 1941.03125 2272.996094 1940.730469 2275.546875 C 1940.46875 2277.722656 1943.070312 2278.351562 1944.699219 2278.578125 C 1947.78125 2279.003906 1947.410156 2276.242188 1947.941406 2274.066406 M 2082.308594 2366.84375 C 2081.480469 2363.976562 2081.328125 2361.105469 2078.410156 2360.03125 C 2076.878906 2359.464844 2074.308594 2360.066406 2075.039062 2361.53125 C 2076.089844 2363.621094 2077.609375 2365.222656 2076.539062 2367.714844 C 2078.351562 2368.019531 2080.128906 2368.027344 2082.308594 2366.84375 M 1948.5 2190.160156 C 1946.179688 2193.117188 1945.160156 2194.585938 1947.519531 2197.367188 C 1949.890625 2200.1875 1951.359375 2199.484375 1954.339844 2198.003906 C 1951.730469 2195.621094 1950.191406 2193.308594 1948.5 2190.160156 M 2394.371094 2432.503906 C 2393.679688 2426.414062 2391.339844 2425.039062 2386.871094 2426.125 C 2385.230469 2426.523438 2383.539062 2426.3125 2383.660156 2428.386719 C 2383.75 2429.902344 2385.238281 2430.5 2386.640625 2430.007812 C 2389.410156 2429.042969 2391.46875 2430.769531 2394.371094 2432.503906 M 2857.921875 2196.832031 C 2863.449219 2200.371094 2867.648438 2195.863281 2872.160156 2196.101562 C 2872.320312 2196.113281 2872.890625 2194.636719 2872.679688 2194.074219 C 2872.289062 2193.007812 2870.96875 2192.453125 2870.101562 2192.953125 C 2866.550781 2195 2862.230469 2194.773438 2857.921875 2196.832031 M 2170.488281 2402.621094 C 2171.949219 2405.441406 2172.941406 2407.699219 2175.550781 2408.941406 C 2176.769531 2406.664062 2179.570312 2406.027344 2179.488281 2403.199219 C 2176.890625 2401.195312 2174.109375 2402.132812 2170.488281 2402.621094 M 2802.128906 2311.375 C 2804.859375 2311.617188 2806.808594 2316.832031 2810.148438 2313.003906 C 2812.011719 2310.875 2810.039062 2308.433594 2808.839844 2307.578125 C 2805.078125 2304.902344 2804.878906 2310.558594 2802.128906 2311.375 M 2044.570312 2374.160156 C 2042.378906 2370.832031 2040 2373.140625 2037.878906 2372.957031 C 2036.75 2372.859375 2035.378906 2371.289062 2034.679688 2373.273438 C 2034.128906 2374.875 2035.019531 2376.238281 2036.359375 2377.25 C 2041.199219 2380.878906 2041.691406 2375.03125 2044.570312 2374.160156 M 2202.601562 2423.726562 C 2203.128906 2422.179688 2202.378906 2421.710938 2201.238281 2421.617188 C 2198.621094 2421.40625 2194.421875 2424.882812 2194.800781 2427.078125 C 2195.03125 2428.386719 2195.960938 2429.382812 2197.46875 2429.410156 C 2200.378906 2429.464844 2202.660156 2426.820312 2202.601562 2423.726562 M 2002.800781 2326.746094 C 1998.890625 2325.1875 1998.890625 2325.1875 1988.929688 2330.382812 C 1990.140625 2332.746094 1993.609375 2333.007812 1993.929688 2331.980469 C 1995.320312 2327.476562 1999.988281 2328.933594 2002.800781 2326.746094 M 2821.851562 2139.667969 C 2824.589844 2139.328125 2827.410156 2136.371094 2826.839844 2134.414062 C 2826.25 2132.390625 2824.570312 2131.394531 2822.628906 2131.769531 C 2819.898438 2132.296875 2819.25 2134.945312 2818.839844 2137.101562 C 2818.511719 2138.894531 2820.351562 2139.511719 2821.851562 2139.667969 M 2619.011719 2421.796875 C 2614.660156 2422.011719 2610.589844 2420.34375 2606.308594 2420.039062 C 2605.179688 2419.960938 2604.019531 2420.117188 2603.71875 2421.292969 C 2603.398438 2422.527344 2604.488281 2422.921875 2605.5 2423.363281 C 2610.28125 2425.4375 2614.539062 2422.890625 2619.011719 2421.796875 M 1939.21875 2278.832031 C 1937.039062 2276.527344 1935.46875 2274.917969 1933.96875 2273.265625 C 1933.039062 2272.246094 1932.128906 2271.316406 1930.660156 2272.289062 C 1929.578125 2273.003906 1929.890625 2273.976562 1930.070312 2275.039062 C 1930.921875 2280.019531 1931.609375 2280.382812 1939.21875 2278.832031 M 2333.738281 2089.640625 C 2328.011719 2087.796875 2323.929688 2090.179688 2319.851562 2092.601562 C 2322.890625 2094.945312 2326.480469 2091.820312 2329.058594 2093.03125 C 2333.511719 2095.125 2333.039062 2092.105469 2333.738281 2089.640625 M 2094.398438 2417.09375 C 2094.738281 2414.007812 2098.238281 2410.875 2094 2408.722656 C 2092.199219 2407.816406 2090.011719 2407.613281 2087.96875 2407.261719 C 2086.519531 2407.007812 2085.269531 2407.777344 2084.898438 2409.132812 C 2084.410156 2410.964844 2085.589844 2412.640625 2087.261719 2412.320312 C 2091.28125 2411.539062 2092.929688 2413.550781 2094.398438 2417.09375 M 2182.960938 2432.261719 C 2178.46875 2428.570312 2175.179688 2432.777344 2171.539062 2432.921875 C 2170.101562 2432.980469 2170.058594 2435.40625 2170.949219 2436.875 C 2171.78125 2438.238281 2173.359375 2439.871094 2174.570312 2438.335938 C 2176.769531 2435.574219 2180.628906 2435.433594 2182.960938 2432.261719 M 2848.648438 2209.203125 C 2845.578125 2205.605469 2841.339844 2202.890625 2842.328125 2197.382812 C 2842.480469 2196.566406 2841.789062 2195.84375 2840.949219 2196.035156 C 2840.300781 2196.183594 2839.589844 2196.753906 2839.230469 2197.332031 C 2837.949219 2199.425781 2841.390625 2203.484375 2836.328125 2204.105469 C 2835.058594 2204.261719 2835.679688 2205.132812 2836.359375 2205.539062 C 2840.078125 2207.742188 2844.28125 2208.324219 2848.648438 2209.203125 M 2115.53125 2413.816406 C 2114.929688 2411.214844 2113.140625 2409.785156 2111.511719 2410.089844 C 2106.820312 2410.976562 2103.308594 2408.527344 2099.609375 2406.285156 C 2098.238281 2412.390625 2098.179688 2412.703125 2100.019531 2413.023438 C 2105.039062 2413.898438 2110 2416.421875 2115.53125 2413.816406 M 1836.148438 2277.390625 C 1841.289062 2282.175781 1846.421875 2277.191406 1851.519531 2277.730469 C 1852.109375 2277.796875 1853.410156 2275.789062 1853.519531 2274.65625 C 1853.640625 2273.371094 1852.308594 2272.203125 1851.03125 2271.988281 C 1849.578125 2271.753906 1847.101562 2271.597656 1846.710938 2272.308594 C 1844.949219 2275.511719 1842.160156 2274.105469 1839.769531 2274.398438 C 1838.050781 2274.609375 1836.75 2275.214844 1836.148438 2277.390625 M 1988.011719 2339.015625 C 1991.03125 2340.5 1991.628906 2342.832031 1990.550781 2345.960938 C 1989.730469 2348.320312 1991.75 2349.0625 1993.699219 2349.476562 C 1995.539062 2349.859375 1997.121094 2349.355469 1997.109375 2347.386719 C 1997.089844 2344.71875 1999.859375 2343.652344 2000.160156 2341.289062 C 1996.359375 2339.902344 1993.890625 2333.371094 1988.011719 2339.015625 M 2044 2356.019531 C 2039.011719 2354.679688 2037.359375 2352.515625 2039.308594 2348.257812 C 2039.96875 2346.835938 2037.910156 2346.519531 2036.628906 2346.492188 C 2034.839844 2346.453125 2034.128906 2348.253906 2032.730469 2348.882812 C 2029.75 2350.21875 2029.988281 2352.921875 2030.019531 2355.457031 C 2030.039062 2358.273438 2032.890625 2358.195312 2034.449219 2359.148438 C 2037.75 2361.160156 2040.160156 2357.914062 2044 2356.019531 M 2811.300781 2239.75 C 2809.011719 2232.019531 2809.019531 2232.085938 2803.449219 2232.246094 C 2798.539062 2232.386719 2793.828125 2235.003906 2788.75 2233.234375 C 2787.878906 2232.929688 2786.640625 2233.554688 2786.429688 2234.835938 C 2786.078125 2236.910156 2787.539062 2236.601562 2788.851562 2236.71875 C 2796.058594 2237.386719 2803.429688 2236.636719 2811.300781 2239.75 M 2504.371094 2434.035156 C 2505.101562 2429.183594 2500.921875 2426.546875 2500.929688 2422.570312 C 2500.941406 2421.933594 2498.800781 2420.519531 2496.910156 2421.40625 C 2492.640625 2423.410156 2488.261719 2423.511719 2483.640625 2422.3125 C 2481.480469 2421.753906 2478.921875 2422.144531 2476.910156 2423.621094 C 2476.328125 2424.046875 2475.628906 2424.8125 2476.25 2425.609375 C 2476.660156 2426.15625 2477.789062 2426.898438 2478 2426.742188 C 2481.609375 2424.121094 2484.679688 2426.183594 2488.070312 2427.398438 C 2490.03125 2428.101562 2492.488281 2429.03125 2494.679688 2426.902344 C 2496.710938 2424.925781 2498.46875 2426.113281 2499.878906 2428.054688 C 2501.210938 2429.878906 2502.589844 2431.667969 2504.371094 2434.035156 M 2354.351562 2432.238281 C 2357.121094 2432.527344 2358.960938 2431.328125 2359.910156 2428.839844 C 2360.449219 2427.429688 2359.578125 2425.558594 2358.710938 2425.453125 C 2354.839844 2424.972656 2352.140625 2421.53125 2348.300781 2421.472656 C 2346.628906 2421.449219 2345.03125 2421.90625 2345.230469 2424.792969 C 2345.628906 2430.289062 2348.128906 2432.660156 2354.351562 2432.238281 M 2363.890625 2421.667969 C 2363.308594 2424.894531 2363.03125 2426.949219 2362.539062 2428.953125 C 2362.128906 2430.621094 2363 2432.050781 2364.25 2431.773438 C 2368.371094 2430.875 2373.078125 2436.480469 2376.75 2430.597656 C 2377.128906 2429.996094 2378.691406 2430.085938 2379.71875 2429.957031 C 2380.890625 2429.804688 2381.761719 2429.421875 2381.449219 2428.03125 C 2381.269531 2427.25 2380.820312 2426.902344 2379.859375 2426.757812 C 2374.511719 2425.941406 2369.269531 2424.664062 2363.890625 2421.667969 M 2012.339844 2365.832031 C 2012.148438 2367.230469 2012.058594 2368.738281 2011.730469 2370.191406 C 2011.039062 2373.164062 2012.699219 2374.214844 2015.148438 2374.046875 C 2019.171875 2373.773438 2022.789062 2374.015625 2024.691406 2378.960938 C 2025.878906 2375.402344 2026.609375 2372.398438 2026.929688 2369.355469 C 2027.269531 2366.296875 2025.140625 2364.398438 2022.621094 2365.460938 C 2019.101562 2366.953125 2015.839844 2364.730469 2012.339844 2365.832031 M 2040.121094 2370.105469 C 2041.980469 2371.757812 2046.089844 2370.726562 2046.160156 2370.335938 C 2047.578125 2362.792969 2050.089844 2366.304688 2052.839844 2369.417969 C 2053.460938 2370.117188 2054.710938 2370.449219 2055.71875 2370.578125 C 2060.761719 2371.214844 2065.941406 2372.3125 2070.390625 2367.515625 C 2066.941406 2366.886719 2064.328125 2361.660156 2060.441406 2367.183594 C 2059.289062 2368.816406 2057.808594 2366.789062 2056.898438 2365.484375 C 2054.351562 2361.832031 2049.871094 2362.128906 2046.320312 2361.175781 C 2044.28125 2360.625 2043.058594 2364.722656 2041.921875 2367.074219 C 2041.441406 2368.0625 2039.199219 2367.839844 2040.121094 2370.105469 M 1928.75 2201.925781 C 1929.710938 2202.835938 1930.589844 2203.824219 1931.621094 2204.628906 C 1935.199219 2207.4375 1938.488281 2212.347656 1943.441406 2206.328125 C 1944.101562 2205.523438 1945.410156 2205.941406 1946.289062 2206.695312 C 1947.730469 2207.933594 1949.261719 2208.527344 1951.121094 2207.5 C 1950.539062 2205.417969 1947.71875 2205.089844 1947.5 2203.496094 C 1946.28125 2194.660156 1938.160156 2195.722656 1932.730469 2193.066406 C 1931.941406 2192.679688 1929.289062 2192.460938 1928.941406 2194.597656 C 1928.679688 2196.210938 1929.710938 2197.59375 1931.308594 2198.246094 C 1932.039062 2198.542969 1933.328125 2197.167969 1933.570312 2199.070312 C 1932.71875 2201.144531 1929.878906 2199.125 1928.75 2201.925781 M 2093.75 2430.136719 L 2093.53125 2429.953125 C 2096.75 2433.054688 2102.429688 2432.0625 2104.121094 2437.148438 C 2107.058594 2435.222656 2105.101562 2431.324219 2108.109375 2430.351562 C 2111.441406 2430.664062 2112.730469 2434.503906 2116.691406 2434 C 2119.140625 2433.691406 2120.421875 2433.214844 2121.480469 2431.226562 C 2122.539062 2429.222656 2122.050781 2427.792969 2120.269531 2426.488281 C 2119.03125 2425.574219 2117.820312 2424.476562 2118.25 2422.558594 C 2120.371094 2421.796875 2122.789062 2422.082031 2124.570312 2419.929688 C 2126.160156 2418.027344 2129.960938 2416.886719 2127.589844 2413.871094 C 2125.171875 2410.792969 2124.769531 2416.996094 2122.308594 2415.773438 C 2119.910156 2414.671875 2122.648438 2411.382812 2120.109375 2409.871094 C 2117.628906 2417.871094 2114.191406 2419.160156 2106.898438 2416.859375 C 2103.601562 2415.820312 2100.21875 2415.953125 2097.28125 2418.34375 C 2100.949219 2421.648438 2101.011719 2421.757812 2097.171875 2423.609375 C 2094.519531 2424.894531 2091.558594 2426.097656 2090.96875 2429.148438 C 2090.460938 2431.792969 2092.210938 2431.433594 2093.75 2430.136719 M 1951.429688 2174.519531 C 1952.269531 2172.308594 1953.320312 2170.15625 1953.921875 2167.878906 C 1954.859375 2164.296875 1953.378906 2163.351562 1949.78125 2163.632812 C 1946.96875 2163.855469 1946.410156 2166.964844 1943.140625 2166.960938 C 1938.871094 2166.957031 1938.871094 2167.929688 1941.851562 2171.894531 C 1942.460938 2172.714844 1943.019531 2173.648438 1943.320312 2174.617188 C 1943.71875 2175.941406 1944.148438 2177.292969 1945.71875 2177.253906 C 1947.859375 2177.203125 1948.191406 2175.695312 1947.769531 2173.921875 C 1947.449219 2172.601562 1948.019531 2171.828125 1949.289062 2171.949219 C 1950.691406 2172.082031 1951.761719 2172.792969 1951.441406 2174.515625 C 1954.378906 2174.277344 1953.941406 2176.246094 1953.878906 2178.109375 C 1953.769531 2181.253906 1953.371094 2184.875 1958.191406 2181.035156 C 1959.589844 2179.925781 1960.488281 2181.613281 1961.46875 2182.367188 C 1962.949219 2183.507812 1964.390625 2184.824219 1966.730469 2182.710938 C 1962.910156 2177.953125 1964.101562 2172.941406 1966.25 2167.726562 C 1968.269531 2162.824219 1967.96875 2162.648438 1961.011719 2161.804688 C 1961.21875 2166.421875 1959.96875 2170.0625 1954.800781 2171.335938 C 1953.5 2171.660156 1952.539062 2173.417969 1951.429688 2174.519531 M 2068.679688 2430.804688 C 2068.839844 2432.191406 2069.558594 2433.847656 2070.640625 2433.992188 C 2075.71875 2434.675781 2081.101562 2436.484375 2085.628906 2431.890625 C 2081.789062 2429.191406 2081.148438 2423.625 2075.46875 2422.09375 C 2075.46875 2424.96875 2077.519531 2426.851562 2077.140625 2429.167969 C 2074.71875 2431.832031 2071.539062 2431.125 2068.5 2431.019531 C 2068.21875 2428.722656 2067.171875 2426.648438 2067.269531 2424.152344 C 2067.359375 2422.007812 2066.390625 2419.75 2063.910156 2418.417969 C 2062.289062 2417.542969 2061.039062 2416.042969 2059.019531 2417.0625 C 2056.699219 2418.230469 2057.691406 2420.234375 2058.039062 2421.933594 C 2058.601562 2424.664062 2060.109375 2427.542969 2055.539062 2428.359375 C 2054.339844 2428.574219 2054.308594 2429.8125 2055.128906 2430.863281 C 2055.910156 2431.878906 2056.609375 2433.40625 2058.148438 2432.414062 C 2061.46875 2430.269531 2065.160156 2431.226562 2068.679688 2430.804688 M 2019.179688 2343.058594 C 2022.910156 2342.570312 2025.628906 2345.65625 2029.589844 2345.617188 C 2033.640625 2345.578125 2033.359375 2343.164062 2034.230469 2341.101562 C 2035.53125 2338.027344 2033.058594 2338.363281 2031.359375 2338.214844 C 2028.589844 2337.972656 2029.339844 2334.984375 2027.539062 2333.527344 C 2023.960938 2336.007812 2019.640625 2337.753906 2019.460938 2343.203125 C 2014.828125 2344.835938 2013.308594 2344.558594 2012.78125 2340.710938 C 2012.289062 2337.097656 2011.289062 2334.6875 2007.46875 2333.96875 C 2004.808594 2338.339844 2008.851562 2342.59375 2007.789062 2346.96875 C 2007.691406 2347.363281 2009.351562 2348.753906 2010.101562 2348.683594 C 2013.21875 2348.394531 2016.441406 2348.109375 2019.371094 2347.09375 C 2022.511719 2346.003906 2020.359375 2344.375 2019.179688 2343.058594 M 2439.058594 2425.003906 C 2439.871094 2428.847656 2439.871094 2428.847656 2443.570312 2427.519531 C 2442.679688 2425.402344 2440.320312 2426.261719 2438.898438 2425.222656 C 2434.011719 2425.382812 2433.679688 2421.390625 2432.648438 2417.660156 C 2431.808594 2420.730469 2431.949219 2423.855469 2427.480469 2422.507812 C 2425.058594 2421.777344 2424.628906 2423.605469 2425.039062 2425.917969 C 2425.5 2428.476562 2426.109375 2430.117188 2429.238281 2429.949219 C 2433.339844 2429.726562 2436.828125 2428.679688 2439.058594 2425.003906 M 2799.988281 2358.25 C 2799.429688 2355.460938 2801.199219 2350.953125 2795.320312 2351.902344 C 2796.558594 2354.363281 2799.210938 2355.578125 2799.96875 2358.203125 C 2804.949219 2359.640625 2805.988281 2358.769531 2807.128906 2352.082031 C 2802.921875 2352.152344 2802.878906 2356.921875 2799.988281 2358.25 M 2730.628906 2102.164062 C 2727.910156 2105.953125 2723.539062 2102.253906 2720.109375 2104.648438 C 2720.378906 2107.558594 2723.460938 2108.875 2724.929688 2108.253906 C 2732.539062 2105.050781 2740.109375 2108.105469 2747.660156 2107.75 C 2750.679688 2107.609375 2752.71875 2107.628906 2753 2103.921875 C 2753.269531 2100.527344 2755.128906 2099.328125 2758.46875 2100.949219 C 2761.359375 2102.347656 2764.199219 2102.636719 2767.558594 2101.828125 C 2770.691406 2101.078125 2773.199219 2104.808594 2776.148438 2105.179688 C 2779.941406 2105.652344 2778.390625 2110.042969 2781.011719 2110.558594 C 2783.761719 2111.101562 2786.308594 2111.054688 2785.039062 2115.160156 C 2784.660156 2116.371094 2786.308594 2116.605469 2787.308594 2116.023438 C 2792.679688 2112.910156 2798 2111.019531 2803.621094 2115.628906 C 2804.710938 2116.527344 2806.070312 2115.8125 2807.160156 2114.832031 C 2807.679688 2114.367188 2808.910156 2113.851562 2809.171875 2114.082031 C 2811.921875 2116.558594 2814.519531 2119.613281 2817.480469 2114.320312 C 2817.539062 2114.214844 2817.988281 2114.285156 2818.25 2114.335938 C 2820.269531 2114.730469 2820.28125 2118.488281 2823.171875 2117.351562 C 2824.359375 2116.882812 2822.390625 2113.160156 2825.710938 2114.714844 C 2827.71875 2115.65625 2829.628906 2113.558594 2831.839844 2114.898438 C 2833.238281 2115.742188 2835.441406 2115.183594 2837.25 2115.4375 C 2838.589844 2115.625 2839.769531 2115.960938 2840.71875 2114.539062 C 2841.269531 2113.707031 2842.320312 2112.605469 2843.101562 2114.175781 C 2846.109375 2120.289062 2850.878906 2117.566406 2854.660156 2115.976562 C 2858.070312 2114.546875 2859.191406 2115.636719 2860.730469 2118.246094 C 2861.769531 2119.992188 2863.660156 2121.230469 2865.089844 2122.757812 C 2865.789062 2123.503906 2866.378906 2124.371094 2866.941406 2125.226562 C 2868.96875 2128.308594 2863.511719 2128.753906 2864.691406 2131.78125 C 2865.488281 2133.839844 2870.179688 2134.4375 2867.789062 2137.097656 C 2865.320312 2139.832031 2866.769531 2140.074219 2868.640625 2141.519531 C 2870.210938 2142.722656 2870.78125 2144.949219 2873.148438 2145.617188 C 2875.390625 2146.253906 2876.46875 2147.460938 2873.378906 2149.007812 C 2870.949219 2150.222656 2872.859375 2151.796875 2873.820312 2152.632812 C 2875.859375 2154.421875 2877.480469 2156.019531 2877.519531 2159.152344 C 2877.589844 2164.78125 2879.160156 2166.136719 2884.980469 2165.234375 C 2888.429688 2164.695312 2890.929688 2166.074219 2894.410156 2167.097656 C 2890.640625 2172.375 2886.019531 2166.28125 2882.628906 2169.003906 C 2879.820312 2171.257812 2874.609375 2168.230469 2871.921875 2174.546875 C 2876.390625 2172.285156 2879.558594 2171.664062 2882.339844 2174.777344 C 2883.269531 2175.820312 2884.769531 2175.117188 2886 2174.464844 C 2889.019531 2172.867188 2891.929688 2171.425781 2892.289062 2176.992188 C 2892.371094 2178.226562 2893.980469 2178.945312 2895.46875 2178.136719 C 2898.628906 2176.425781 2901.050781 2177.863281 2904.148438 2179.042969 C 2908.410156 2180.667969 2913.300781 2181.777344 2918.109375 2180.726562 C 2920.058594 2180.300781 2921.730469 2180.296875 2923.109375 2181.683594 C 2923.308594 2183.105469 2922.441406 2184.121094 2921.691406 2184.363281 C 2914.988281 2186.515625 2909.371094 2190.953125 2902.570312 2192.996094 C 2898.859375 2194.109375 2893.988281 2193.699219 2891.941406 2198.359375 C 2889.429688 2197.925781 2887.148438 2198.15625 2886.058594 2200.859375 C 2885.761719 2201.605469 2886.519531 2202.613281 2887.25 2202.609375 C 2889.601562 2202.589844 2890.070312 2200.0625 2891.640625 2198.941406 C 2891.789062 2198.835938 2891.71875 2198.4375 2891.75 2198.175781 C 2895.761719 2197.527344 2899.621094 2197.339844 2902.171875 2201.429688 C 2901.210938 2202.621094 2899.949219 2203.316406 2898.699219 2203.003906 C 2894.800781 2202.03125 2894.648438 2201.9375 2894.710938 2204.851562 C 2894.738281 2206.691406 2893.410156 2206.238281 2892.640625 2206.363281 C 2887.5 2207.183594 2882.351562 2208.113281 2877.171875 2208.519531 C 2874.011719 2208.765625 2870.96875 2209.335938 2868.050781 2210.382812 C 2865.839844 2211.171875 2864.039062 2212.503906 2861.761719 2210.164062 C 2860.589844 2208.976562 2858.640625 2209.949219 2857.648438 2211.328125 C 2856.230469 2213.304688 2858.210938 2214.078125 2859.308594 2215.015625 C 2860.871094 2216.351562 2862.910156 2217.203125 2863.890625 2219.625 C 2862.171875 2221.492188 2860.230469 2221.578125 2858.398438 2220.234375 C 2853.519531 2216.65625 2848.808594 2219.5 2844.101562 2220.492188 C 2841.75 2220.984375 2842.28125 2223.285156 2841.851562 2224.882812 C 2842.671875 2225.261719 2843.140625 2225.6875 2843.558594 2225.640625 C 2845.96875 2225.367188 2848.699219 2225.039062 2849.550781 2227.851562 C 2850.339844 2230.46875 2848.070312 2232.78125 2846.96875 2234.917969 C 2846.011719 2236.796875 2843.578125 2235.957031 2841.78125 2234.140625 C 2838.398438 2230.734375 2836.488281 2230.980469 2834.671875 2234.953125 C 2833.480469 2237.566406 2830.53125 2238.191406 2829.28125 2240.574219 C 2832.628906 2244.746094 2836.789062 2238.574219 2840.25 2241.410156 L 2840.089844 2241.316406 C 2840.480469 2242.082031 2842.539062 2242.625 2841.269531 2243.453125 C 2839.609375 2244.535156 2837.378906 2244.921875 2835.328125 2245.195312 C 2834.101562 2245.359375 2832.578125 2244.566406 2832.25 2246.457031 C 2831.980469 2247.992188 2833.039062 2248.90625 2834.398438 2249.328125 C 2835.691406 2249.730469 2836.941406 2250.058594 2837.078125 2252.308594 C 2834.300781 2253.484375 2831.539062 2256.183594 2828.570312 2252.230469 C 2827.070312 2250.214844 2824.71875 2250.511719 2822.859375 2250.105469 C 2820.078125 2249.507812 2817.269531 2249.746094 2815 2247.394531 C 2813.710938 2246.066406 2811.921875 2245.796875 2810.019531 2247.105469 C 2808.929688 2247.855469 2807.179688 2247.464844 2806.589844 2246.113281 C 2805.75 2244.171875 2804.71875 2242.671875 2802.539062 2243.644531 C 2800.058594 2244.753906 2803.351562 2247.058594 2801.359375 2248.980469 C 2798.429688 2246.117188 2790.78125 2248.265625 2793.109375 2239.957031 C 2790 2240.449219 2789.820312 2242.839844 2789 2244.621094 C 2787.710938 2247.453125 2787.140625 2250.785156 2783.078125 2251.183594 C 2781.628906 2251.332031 2780.828125 2252.46875 2781.039062 2254.03125 C 2781.289062 2255.835938 2782.421875 2256.910156 2784.171875 2257.046875 C 2787.570312 2257.316406 2791.148438 2258.113281 2794.378906 2257.40625 C 2798.871094 2256.417969 2802.429688 2257.75 2806.519531 2259.179688 C 2813.109375 2261.476562 2820.039062 2262.804688 2826.199219 2266.316406 C 2828.128906 2267.410156 2828.769531 2265.84375 2830.039062 2264.894531 C 2831.761719 2263.601562 2834.179688 2262.945312 2833.851562 2266.738281 C 2833.730469 2268.179688 2834.441406 2268.632812 2835.628906 2268.488281 C 2836.371094 2268.402344 2837.449219 2267.535156 2837.730469 2267.773438 C 2842.539062 2271.871094 2847.328125 2271.207031 2852.800781 2268.835938 C 2855.011719 2267.878906 2856.609375 2271.671875 2859.339844 2272.898438 C 2856.21875 2274.449219 2850.761719 2273.699219 2853.5 2279.496094 C 2851.789062 2281.332031 2852.441406 2283.003906 2853.851562 2284.644531 C 2854.96875 2285.949219 2856.070312 2287.277344 2857.179688 2288.597656 C 2851.910156 2288.0625 2849.511719 2289.445312 2849.25 2293.144531 C 2848.949219 2297.664062 2852.03125 2300.265625 2857.25 2298.582031 C 2860.800781 2297.4375 2863.230469 2298.253906 2864.75 2300.703125 C 2867.128906 2304.519531 2870.621094 2306.644531 2874.179688 2308.914062 C 2877.609375 2311.101562 2878.011719 2314.433594 2874.570312 2316.066406 C 2870.519531 2317.992188 2867.53125 2322.226562 2861.851562 2321.328125 C 2860.160156 2321.058594 2853.640625 2320.480469 2855.28125 2327.039062 C 2855.640625 2328.480469 2847.960938 2330.324219 2846.628906 2328.605469 C 2843.03125 2323.929688 2839.53125 2326.425781 2836.441406 2328.5625 C 2831.628906 2331.890625 2831.800781 2332.136719 2826.191406 2332.859375 C 2827.21875 2330.71875 2830.21875 2330.515625 2830.589844 2327.617188 C 2825.328125 2326.988281 2822.328125 2332.539062 2817.429688 2332.109375 C 2817.449219 2332.6875 2817.378906 2333.148438 2817.46875 2333.1875 C 2821.050781 2334.527344 2820 2339.027344 2822.109375 2340.605469 C 2824.390625 2342.308594 2828.058594 2342.070312 2831.019531 2342.996094 C 2832.898438 2343.585938 2833.460938 2345.636719 2834.378906 2347.222656 C 2830.679688 2346.816406 2826.089844 2342.6875 2824.519531 2350.308594 C 2823.929688 2353.144531 2820.21875 2352.992188 2817.691406 2353.117188 C 2813.011719 2353.34375 2810.03125 2355.394531 2808.378906 2360.566406 C 2812.191406 2361.027344 2815.511719 2362.699219 2816.800781 2365.820312 C 2818.410156 2369.691406 2820.589844 2370.25 2824.199219 2369.375 C 2826.210938 2368.882812 2828.398438 2369.121094 2830.511719 2369.015625 C 2831.550781 2368.960938 2832.660156 2369.023438 2833.058594 2367.691406 C 2833.429688 2366.445312 2832.808594 2365.640625 2831.789062 2365.203125 C 2828.339844 2363.738281 2830.050781 2362.628906 2831.628906 2360.707031 C 2833.328125 2358.621094 2835.628906 2361.332031 2836.75 2359.855469 C 2836.210938 2354.097656 2828.890625 2354.65625 2827.859375 2349.277344 C 2830.121094 2348.566406 2832.230469 2347.902344 2834.359375 2347.238281 C 2836.910156 2345.175781 2840.121094 2343.550781 2841.890625 2340.953125 C 2844.921875 2336.527344 2845.859375 2337.800781 2846.820312 2341.90625 C 2847.070312 2342.949219 2847.890625 2343.71875 2849.609375 2344.304688 C 2850.789062 2342.074219 2850.320312 2336.988281 2855.210938 2339.085938 C 2858.910156 2340.671875 2853.929688 2343.207031 2856.089844 2345.636719 C 2859.160156 2346.308594 2862.828125 2347.117188 2867.738281 2348.195312 C 2861.03125 2351.976562 2854.371094 2350.566406 2848.421875 2353.035156 C 2848.671875 2356.332031 2851.320312 2357.292969 2853.789062 2357.691406 C 2857.851562 2358.347656 2861.960938 2357.964844 2863.96875 2363.046875 C 2864.71875 2364.960938 2867.921875 2363.394531 2869.929688 2363.925781 C 2871.210938 2364.261719 2872.480469 2364.746094 2872.789062 2366.292969 C 2873.199219 2368.316406 2871.640625 2368.234375 2870.390625 2368.601562 C 2869.421875 2368.886719 2867.648438 2369.550781 2867.691406 2369.804688 C 2868.679688 2375.828125 2863.648438 2373.816406 2861 2374.980469 C 2858.601562 2376.03125 2855.910156 2376.886719 2855.109375 2379.835938 C 2853.738281 2384.910156 2849.351562 2386.109375 2845.238281 2387.609375 C 2840.808594 2389.230469 2836.28125 2390.597656 2831.851562 2392.226562 C 2829.351562 2393.148438 2826 2392.796875 2825.558594 2396.964844 C 2825.371094 2398.761719 2822.941406 2398.113281 2821.449219 2398.429688 C 2816.519531 2399.480469 2811.578125 2397.433594 2806.53125 2398.773438 C 2809.910156 2400.039062 2813.808594 2401.445312 2816.890625 2401.113281 C 2823.691406 2400.371094 2828.769531 2404.480469 2834.78125 2405.597656 C 2836.359375 2405.890625 2836.660156 2407.398438 2837.628906 2407.953125 C 2841.289062 2410.054688 2843.71875 2414.683594 2849.058594 2413.558594 C 2850.371094 2413.277344 2851.488281 2414.054688 2851.578125 2415.839844 C 2851.800781 2419.863281 2854.199219 2421.515625 2858.011719 2420.855469 C 2866.441406 2419.402344 2873.601562 2424.972656 2881.75 2424.972656 C 2883.109375 2424.972656 2884.449219 2425.496094 2885.101562 2426.777344 C 2886.660156 2429.898438 2888.308594 2430.941406 2890.53125 2427.335938 C 2890.628906 2427.160156 2891.089844 2427.011719 2891.25 2427.097656 C 2900.25 2432.082031 2909.449219 2423.378906 2918.519531 2427.472656 C 2919.511719 2427.917969 2921.171875 2427.398438 2922.320312 2426.878906 C 2925.328125 2425.527344 2927.328125 2426.445312 2929.011719 2429.089844 C 2930.121094 2430.84375 2932.46875 2432.582031 2931.171875 2434.59375 C 2929.589844 2437.058594 2927.328125 2434.996094 2925.769531 2433.898438 C 2923.921875 2432.597656 2922.230469 2433.484375 2920.441406 2433.515625 C 2914.859375 2433.628906 2912.25 2432.632812 2907.300781 2428.605469 C 2903.03125 2432.773438 2898.191406 2433.832031 2891.851562 2433.523438 C 2885.058594 2433.1875 2878.25 2434.148438 2871.410156 2432.382812 C 2868.53125 2431.640625 2866.128906 2435.035156 2862.570312 2434.601562 C 2857.929688 2434.035156 2853.128906 2434.550781 2848.410156 2434.816406 C 2844.5 2435.042969 2840.269531 2438.367188 2836.980469 2433.363281 C 2836.769531 2433.039062 2835.421875 2433.167969 2834.769531 2433.46875 C 2827.980469 2436.558594 2821.480469 2434.816406 2815.179688 2432.078125 C 2813.160156 2431.199219 2811.238281 2431.570312 2809.871094 2432.339844 C 2807.070312 2433.914062 2804.03125 2434.175781 2799.929688 2434.476562 C 2803.828125 2439.4375 2806.660156 2443.78125 2812.859375 2442.824219 C 2813.789062 2447.484375 2809.679688 2448.179688 2807.78125 2450.425781 C 2807.519531 2450.726562 2806.851562 2450.671875 2806.371094 2450.78125 C 2805.761719 2445.777344 2800.058594 2448.695312 2798.058594 2445.355469 C 2796.679688 2443.066406 2793.890625 2441.523438 2796.539062 2438.507812 C 2799.671875 2434.921875 2795.519531 2433.625 2794.25 2431.558594 C 2792.371094 2428.523438 2790.808594 2429.210938 2789.179688 2432.132812 C 2788.519531 2433.300781 2786.839844 2432.101562 2785.601562 2431.679688 C 2779.890625 2429.753906 2774.261719 2426.722656 2768.050781 2428.027344 C 2760.710938 2429.574219 2753.46875 2427.667969 2746.429688 2427.980469 C 2738.101562 2428.347656 2729.800781 2429.121094 2721.410156 2428.683594 C 2715.460938 2428.371094 2709.609375 2431.273438 2703.449219 2428.882812 C 2700.890625 2427.886719 2697.589844 2429.34375 2697.96875 2432.675781 C 2698.230469 2434.96875 2697.25 2439.832031 2703.269531 2438.054688 C 2705.980469 2437.253906 2709.429688 2438.964844 2712.558594 2439.539062 L 2712.308594 2439.191406 C 2710.679688 2443.96875 2706.828125 2442.644531 2703.75 2441.84375 C 2697.941406 2440.335938 2692.320312 2442.351562 2686.660156 2442.550781 C 2682.089844 2442.707031 2676.320312 2444.664062 2672.121094 2443.617188 C 2673.640625 2440.503906 2677.839844 2443.132812 2679.339844 2440.25 C 2678.398438 2437.921875 2676.148438 2438.648438 2674.5 2438.15625 C 2671.710938 2437.324219 2668.898438 2436.878906 2669.949219 2432.703125 C 2670.21875 2431.640625 2669.308594 2429.246094 2668.730469 2429.175781 C 2664.511719 2428.664062 2664.199219 2423.878906 2661.050781 2422.523438 C 2659.351562 2421.785156 2657.289062 2421.871094 2655.460938 2421.601562 C 2654.179688 2424.015625 2657.96875 2425.054688 2656.378906 2427.5625 C 2655.160156 2429.453125 2657.398438 2431.453125 2657.890625 2434.597656 C 2654.421875 2431.558594 2651.378906 2431.660156 2649.160156 2434.3125 C 2647.488281 2436.304688 2646.800781 2435.542969 2645.589844 2434.179688 C 2643.808594 2432.167969 2642.371094 2432.683594 2640.25 2434.269531 C 2636.75 2436.882812 2632.339844 2437.082031 2628.121094 2436.660156 C 2626.199219 2436.46875 2623.800781 2436.546875 2622.96875 2433.808594 C 2622.289062 2431.589844 2620.859375 2431.972656 2619.378906 2433.203125 C 2616.660156 2435.46875 2614.03125 2435.097656 2610.71875 2433.917969 C 2606.898438 2432.554688 2602.429688 2431.632812 2599.070312 2435.570312 C 2597.890625 2436.953125 2596.660156 2435.875 2595.460938 2435.871094 C 2592.839844 2435.859375 2590.410156 2435.6875 2588.238281 2438.050781 C 2586.109375 2440.382812 2583.230469 2442.464844 2580.699219 2438.003906 C 2580.449219 2437.5625 2578.839844 2437.269531 2578.558594 2437.570312 C 2573.210938 2443.183594 2568.089844 2434.546875 2562.480469 2437.414062 C 2559.96875 2438.695312 2561.878906 2433.386719 2558.921875 2433.273438 C 2554.789062 2434.917969 2552.851562 2438.296875 2552.921875 2442.472656 C 2551.121094 2443.125 2550.421875 2442.359375 2549.648438 2441.601562 C 2547.78125 2439.753906 2545.980469 2437.800781 2543.921875 2436.179688 C 2540.738281 2433.667969 2540.5 2438.917969 2537.429688 2438.652344 C 2528.199219 2437.867188 2519.101562 2440.769531 2509.699219 2439.949219 C 2500.929688 2439.183594 2492.121094 2438.339844 2483.199219 2439.117188 C 2478.910156 2439.492188 2474.210938 2439.097656 2470.5 2435.03125 C 2467.878906 2432.167969 2463.539062 2434.09375 2461.058594 2435.953125 C 2458.339844 2437.996094 2455.960938 2437.726562 2453.058594 2437.816406 C 2443.878906 2438.105469 2434.71875 2438.765625 2425.570312 2439.480469 C 2423.710938 2439.625 2421.671875 2440.425781 2420.179688 2439.265625 C 2416.878906 2436.6875 2413.609375 2436.25 2410.03125 2438.359375 C 2408.699219 2439.140625 2408.25 2438.386719 2407.71875 2437.347656 C 2406.261719 2434.445312 2404.988281 2432.917969 2402.289062 2436.742188 C 2400.820312 2438.832031 2400.628906 2434.925781 2399.148438 2434.984375 C 2401.53125 2434.535156 2402.71875 2432.152344 2405.199219 2431.597656 C 2407.738281 2431.027344 2407.558594 2428.46875 2407.351562 2426.363281 C 2407.230469 2425.113281 2406.910156 2424.152344 2405.269531 2423.605469 C 2402.171875 2422.574219 2400.378906 2424.6875 2398.320312 2425.957031 C 2395.960938 2427.410156 2397.871094 2429.0625 2398.539062 2430.617188 C 2399.160156 2432.054688 2399.808594 2433.503906 2399.390625 2435.144531 C 2395.320312 2433.949219 2392.25 2438.40625 2388.128906 2437.175781 C 2387.949219 2437.121094 2387 2438.371094 2387.050781 2438.960938 C 2387.351562 2442.929688 2383.929688 2443.039062 2382.359375 2442.117188 C 2378.851562 2440.070312 2375.621094 2441.203125 2372.371094 2441.796875 C 2363.96875 2443.324219 2355.46875 2442.222656 2347.148438 2442 C 2338.089844 2441.753906 2329.378906 2443.75 2320.398438 2443.777344 C 2312.351562 2443.796875 2304.011719 2442.101562 2296.199219 2444.394531 C 2286.898438 2447.128906 2277.410156 2444.101562 2268.21875 2446.445312 C 2267.730469 2446.570312 2267.128906 2446.546875 2266.640625 2446.394531 C 2256.980469 2443.339844 2246.890625 2444.953125 2237.058594 2443.746094 C 2230.75 2442.972656 2225.539062 2441.382812 2221.820312 2438.230469 C 2221.671875 2438.109375 2221.308594 2438.253906 2220.910156 2438.285156 C 2219.378906 2439.339844 2220.289062 2440.519531 2221.101562 2441.449219 C 2223.199219 2443.855469 2221.761719 2445.222656 2219.800781 2446.511719 C 2217.699219 2447.898438 2215.539062 2448.0625 2214.558594 2445.472656 C 2212.890625 2441.039062 2208.558594 2441.484375 2205.339844 2439.964844 C 2202.441406 2438.59375 2202.128906 2442.007812 2200.660156 2443.160156 C 2199.441406 2444.117188 2200.808594 2448.523438 2197.558594 2446.628906 C 2195.660156 2445.523438 2191.089844 2443.964844 2193.789062 2439.578125 C 2194.191406 2438.933594 2194.75 2438.21875 2193.390625 2437.324219 C 2189.359375 2441.527344 2183.308594 2443 2179 2447.191406 C 2177.941406 2448.234375 2176.339844 2449.507812 2174.839844 2447.953125 C 2172.550781 2445.574219 2169.941406 2446.390625 2167.421875 2446.945312 C 2165.46875 2447.375 2164.289062 2447.59375 2163.46875 2445.117188 C 2162.890625 2443.378906 2160.730469 2444.363281 2159.191406 2444.371094 C 2155.898438 2444.386719 2153.101562 2447.488281 2149.339844 2445.425781 C 2147.710938 2444.527344 2146.890625 2446.761719 2146.570312 2448.402344 C 2146.371094 2449.445312 2146.03125 2450.574219 2144.648438 2450.285156 C 2143.28125 2449.996094 2143.128906 2448.914062 2143.761719 2447.867188 C 2145.171875 2445.523438 2143.570312 2444.816406 2141.921875 2445.15625 C 2140.378906 2445.476562 2138.839844 2445.738281 2137.28125 2445.957031 C 2135.359375 2446.222656 2134.089844 2445.320312 2133.570312 2443.714844 C 2132.671875 2440.945312 2134.898438 2441.621094 2136.328125 2441.507812 C 2137.699219 2441.402344 2138.191406 2440.492188 2137.789062 2439.382812 C 2137.589844 2438.8125 2136.710938 2438.199219 2136.058594 2438.121094 C 2132.25 2437.636719 2129.011719 2440.179688 2125.460938 2440.449219 C 2120.550781 2440.824219 2118.929688 2443.246094 2119.058594 2447.679688 C 2119.089844 2448.726562 2118.941406 2449.777344 2118.820312 2450.820312 C 2118.800781 2451.015625 2118.511719 2451.175781 2118.339844 2451.355469 C 2117.960938 2451.089844 2117.421875 2450.910156 2117.230469 2450.546875 C 2115.320312 2446.9375 2111.199219 2448.964844 2108.980469 2447.390625 C 2106.949219 2445.960938 2107.460938 2441.753906 2104.730469 2440.257812 C 2102.019531 2438.769531 2099.320312 2437.765625 2096.199219 2440.515625 C 2094.269531 2442.207031 2091.960938 2443.503906 2089.058594 2447.394531 C 2094.261719 2443.582031 2097.558594 2447.257812 2101.640625 2446.675781 C 2099.621094 2451.09375 2094.378906 2446.300781 2092.789062 2449.875 C 2090.660156 2454.644531 2087.011719 2445.773438 2084.460938 2451.246094 C 2083.210938 2453.917969 2079.261719 2451.933594 2076.25 2451.484375 C 2072.480469 2450.921875 2068.449219 2453.402344 2064.179688 2452.609375 C 2062.199219 2452.238281 2059.980469 2453.25 2058.109375 2451.769531 C 2056.558594 2450.550781 2055.730469 2451.410156 2055.210938 2452.832031 C 2053.738281 2456.839844 2051.339844 2456.53125 2048.558594 2454.273438 C 2046.011719 2452.195312 2041.730469 2453.398438 2040.320312 2449.332031 C 2038.679688 2451.1875 2038.71875 2453.097656 2038.390625 2454.867188 C 2038.070312 2456.566406 2037.960938 2458.3125 2037.671875 2460.773438 C 2035.550781 2458.585938 2035.339844 2455.78125 2032.910156 2455.078125 C 2029.089844 2453.964844 2027.738281 2451.433594 2027.328125 2447.542969 C 2026.988281 2444.324219 2023.800781 2443.484375 2020.96875 2443.023438 C 2019.890625 2442.847656 2019.609375 2443.433594 2019.351562 2444.769531 C 2018.75 2447.824219 2017.320312 2450.542969 2013.191406 2449.808594 C 2010.910156 2449.40625 2010.5 2452.027344 2008.980469 2453 C 2007.210938 2454.136719 2005.921875 2455.464844 2003.410156 2455.171875 C 1998.859375 2454.640625 1998.371094 2454.460938 1998.929688 2449.96875 C 1999.089844 2448.707031 1999.941406 2447.511719 1999.261719 2446.1875 C 1998.769531 2445.253906 1997.980469 2443.5 1997.730469 2443.570312 C 1989.289062 2445.90625 1993.039062 2438.773438 1992.671875 2436.21875 C 1992.089844 2432.285156 1991.058594 2430.269531 1986.980469 2430.835938 C 1982.371094 2431.472656 1981.128906 2428.683594 1980.679688 2424.59375 C 1977.320312 2425.023438 1974.738281 2428.070312 1970.941406 2427.179688 C 1969 2426.722656 1966.730469 2428.148438 1965.390625 2429.789062 C 1964.148438 2431.320312 1963.738281 2433.332031 1961.820312 2430.273438 C 1960.941406 2428.875 1958.828125 2429.03125 1957.429688 2429.796875 C 1955.839844 2430.660156 1954.960938 2432.367188 1953.621094 2429.175781 C 1952.578125 2426.691406 1952.101562 2425.679688 1954.941406 2424.453125 C 1956.75 2423.671875 1956.988281 2420.105469 1960.53125 2423.070312 C 1963.101562 2425.226562 1967.351562 2425.488281 1970.910156 2426.3125 C 1972.101562 2426.589844 1973.78125 2426.15625 1974.011719 2424.578125 C 1974.210938 2423.265625 1973.640625 2421.882812 1971.890625 2421.941406 C 1970.519531 2421.988281 1969.230469 2422.25 1969.128906 2420.25 C 1969.011719 2417.976562 1970.75 2417.800781 1972.238281 2417.464844 C 1974.929688 2416.855469 1977.488281 2417.734375 1980.050781 2418.398438 C 1983.660156 2419.335938 1986.730469 2418.605469 1989.179688 2416.023438 C 1989.179688 2412.832031 1985.21875 2413.132812 1985.03125 2410.234375 C 1984.960938 2409.195312 1983.511719 2409.632812 1982.488281 2410.257812 C 1977.660156 2413.199219 1969.339844 2412.46875 1967.21875 2407.835938 C 1965.289062 2403.597656 1962.21875 2403.660156 1959.050781 2403.199219 C 1956.75 2402.863281 1954.289062 2403.507812 1952.820312 2400.996094 L 1952.570312 2401.285156 C 1953.769531 2399.476562 1956.269531 2401.019531 1957.5 2399.3125 C 1956.640625 2395.101562 1955.628906 2391.777344 1949.71875 2392.046875 C 1946.429688 2392.199219 1943.039062 2389.304688 1942.050781 2385.386719 C 1941.691406 2383.976562 1940.96875 2381.609375 1942.578125 2380.992188 C 1949.519531 2378.339844 1946.570312 2372.5 1947.128906 2367.824219 C 1947.199219 2367.210938 1946.328125 2365.816406 1947.191406 2365.9375 C 1953.648438 2366.839844 1950.070312 2362.449219 1949.71875 2360.648438 C 1949.230469 2358.175781 1950.5 2357.410156 1951.988281 2356.296875 C 1952.539062 2355.886719 1953.789062 2355.488281 1952.320312 2354.152344 C 1949.988281 2352.035156 1950.71875 2349.222656 1953.199219 2349.703125 C 1958.058594 2350.640625 1963.929688 2346.628906 1967.929688 2353.316406 C 1969.25 2355.527344 1974.011719 2355.960938 1977.308594 2356.625 C 1979.871094 2357.136719 1981.671875 2353.945312 1979.828125 2351.871094 C 1976.46875 2348.0625 1975.648438 2345.964844 1982.019531 2346.171875 C 1982.898438 2346.199219 1983.589844 2345.449219 1983.191406 2344.546875 C 1982.890625 2343.878906 1982.128906 2342.953125 1981.558594 2342.941406 C 1979.140625 2342.886719 1976.640625 2345.160156 1974.21875 2342.488281 C 1975.328125 2338.9375 1979.421875 2341.554688 1981.441406 2339.109375 C 1979.691406 2336.617188 1976.730469 2337.484375 1974.589844 2336.453125 C 1972.390625 2335.398438 1970.5 2333.445312 1971.878906 2331.863281 C 1976.238281 2326.855469 1972.410156 2322.320312 1971.75 2317.675781 C 1971.28125 2314.363281 1969.769531 2311.09375 1974.660156 2309.835938 C 1974.210938 2309.464844 1974 2309.152344 1973.800781 2309.15625 C 1968.648438 2309.304688 1965.75 2307.320312 1965.929688 2301.664062 C 1965.96875 2300.253906 1966.210938 2297.164062 1963.371094 2297.855469 C 1961.101562 2298.40625 1958.738281 2300.332031 1960.789062 2303.15625 C 1963.75 2307.234375 1960.71875 2309.421875 1958.558594 2312 C 1957.871094 2312.824219 1956.871094 2313.890625 1955.929688 2313.09375 C 1951.378906 2309.265625 1946.351562 2314.007812 1941.640625 2312.109375 C 1939.121094 2311.09375 1941.640625 2316.300781 1938.269531 2315.386719 C 1936.519531 2314.914062 1934.519531 2314.769531 1932.769531 2315.117188 C 1930.539062 2315.558594 1928.710938 2314.175781 1926.539062 2314.4375 C 1923.019531 2314.867188 1921.488281 2317.339844 1921.101562 2320.46875 C 1917.421875 2319.082031 1919.800781 2317.394531 1919.519531 2316.074219 C 1919.261719 2314.847656 1918.621094 2314.21875 1917.429688 2314.164062 C 1915.640625 2314.082031 1916.25 2316.636719 1914.988281 2316.695312 C 1913.160156 2316.78125 1913.839844 2314.699219 1913.078125 2313.769531 C 1911.539062 2311.902344 1911.238281 2314.226562 1910.480469 2314.363281 C 1908.871094 2314.660156 1909.441406 2312.835938 1909.800781 2312.226562 C 1910.851562 2310.480469 1911.421875 2309.140625 1911.289062 2306.707031 C 1911.019531 2302.042969 1919.160156 2295.640625 1923.640625 2297.507812 C 1929.378906 2299.894531 1931.960938 2296.453125 1934.878906 2293.632812 C 1936.570312 2291.996094 1937.21875 2291.742188 1939.269531 2292.832031 C 1942.769531 2294.679688 1946.480469 2293.710938 1949.980469 2292.316406 C 1951.160156 2291.84375 1952.710938 2291.199219 1951.871094 2289.53125 C 1951.46875 2288.746094 1949.769531 2287.726562 1949.421875 2287.957031 C 1946.328125 2290.035156 1945.621094 2287.980469 1944.640625 2285.675781 C 1944.300781 2284.863281 1942.75 2283.726562 1942.269531 2283.933594 C 1938.128906 2285.695312 1933.929688 2284.78125 1929.730469 2284.714844 C 1928.589844 2284.695312 1926.449219 2285.804688 1926.429688 2286.460938 C 1926.179688 2292.710938 1921.96875 2291.820312 1917.988281 2291.445312 C 1914.839844 2291.144531 1913.039062 2292.773438 1912 2295.542969 L 1912.171875 2295.3125 C 1912.058594 2293.199219 1907.648438 2290.070312 1913.609375 2288.457031 C 1907.71875 2288.34375 1901.828125 2288.234375 1896.039062 2288.125 C 1895.269531 2290.488281 1897.300781 2290.5 1897.859375 2291.496094 C 1898.648438 2292.902344 1897.359375 2293.308594 1896.46875 2293.621094 C 1895.089844 2294.105469 1893.878906 2293.929688 1893.460938 2292.191406 C 1892.660156 2288.898438 1892.109375 2285.511719 1890.929688 2282.359375 C 1889.640625 2278.867188 1886.808594 2278.546875 1884.839844 2281.863281 C 1883.730469 2283.738281 1882.460938 2284.585938 1880.691406 2285.003906 C 1876.890625 2285.902344 1874.398438 2288.441406 1872.390625 2291.496094 C 1871.351562 2293.089844 1870.261719 2295.03125 1868.539062 2295.234375 C 1865.179688 2295.628906 1864.671875 2299.550781 1861.75 2300.09375 C 1858.550781 2300.683594 1858.890625 2296.136719 1855.839844 2295.988281 C 1846.378906 2295.527344 1838.660156 2289.527344 1829.660156 2287.472656 C 1827.710938 2287.023438 1824.171875 2286.761719 1824.410156 2284.800781 C 1824.839844 2281.210938 1822.441406 2276.890625 1824.921875 2274.335938 C 1827.53125 2271.632812 1829.378906 2265.84375 1835.429688 2268.804688 C 1836.679688 2269.414062 1838 2268.332031 1838.21875 2266.804688 C 1838.46875 2265.167969 1837.410156 2264.242188 1835.941406 2264.308594 C 1832.25 2264.480469 1828.730469 2264.496094 1825.089844 2263.121094 C 1822.25 2262.054688 1820.539062 2264.671875 1819.691406 2267.339844 C 1817.890625 2266.085938 1818.019531 2264.390625 1818.921875 2263.695312 C 1820.890625 2262.175781 1822.21875 2260.59375 1822.601562 2258.027344 C 1822.839844 2256.449219 1824.089844 2254.773438 1825.929688 2255.445312 C 1831.390625 2257.441406 1836.550781 2253.5 1842 2254.957031 C 1843.609375 2255.382812 1845.628906 2254.675781 1847.339844 2254.140625 C 1849.558594 2253.449219 1851.160156 2253.699219 1853.050781 2255.308594 C 1854.308594 2256.382812 1856.800781 2258.914062 1857.421875 2257.890625 C 1859.691406 2254.144531 1863.628906 2257.167969 1866.308594 2254.859375 C 1871.089844 2250.726562 1871.320312 2250.996094 1875.679688 2256.449219 L 1875.859375 2256.226562 L 1867.929688 2256.855469 C 1867.429688 2259.292969 1868.628906 2261.3125 1868.929688 2263.414062 C 1866.121094 2263.3125 1863.308594 2263.214844 1860.511719 2263.117188 C 1863.410156 2265.480469 1866.191406 2266.113281 1868.789062 2263.261719 C 1872.519531 2263.648438 1876.238281 2260.890625 1879.988281 2263.226562 C 1880.179688 2263.34375 1880.488281 2263.273438 1880.75 2263.261719 C 1883.710938 2263.171875 1884.570312 2259.316406 1887.011719 2259.261719 C 1889.441406 2259.207031 1891.859375 2261.074219 1894.359375 2261.359375 C 1897.011719 2261.65625 1897.570312 2257.101562 1900.820312 2257.917969 L 1900.570312 2257.722656 C 1903.339844 2261.308594 1903.628906 2267.496094 1907.730469 2268.921875 C 1913.289062 2270.859375 1917.96875 2274.707031 1923.539062 2276.019531 C 1927.359375 2272.222656 1927.371094 2268.730469 1924.871094 2264.339844 C 1922.839844 2260.753906 1921.800781 2256.503906 1920.910156 2252.421875 C 1920.480469 2250.421875 1920.949219 2248.125 1924.480469 2249.761719 C 1929.089844 2251.902344 1929.328125 2251.695312 1932.429688 2247.007812 C 1933.378906 2245.582031 1934.109375 2246.710938 1934.890625 2246.546875 C 1937.640625 2245.964844 1942.46875 2251.148438 1942.898438 2243.8125 C 1942.898438 2243.746094 1943.808594 2243.738281 1944.289062 2243.703125 C 1943.949219 2248.371094 1951.808594 2246.328125 1950.800781 2251.6875 C 1950.578125 2252.84375 1951.78125 2253.414062 1952.96875 2253.363281 C 1954.660156 2253.292969 1955.191406 2252.671875 1954.5 2250.902344 C 1953.539062 2248.394531 1957.488281 2248.019531 1957.011719 2245.472656 C 1955.410156 2243.511719 1953.058594 2245.875 1951.300781 2244.675781 C 1955.539062 2239.992188 1955.570312 2239.9375 1961.21875 2243.550781 C 1962.929688 2244.652344 1965.390625 2244.371094 1966.558594 2246.480469 C 1963.320312 2251.367188 1963.320312 2251.367188 1970.730469 2252.855469 C 1970.070312 2250.160156 1968.550781 2248.113281 1966.410156 2246.480469 C 1971.890625 2247.117188 1976.609375 2244.878906 1980.980469 2242.125 C 1982.640625 2241.085938 1983.738281 2240.367188 1985.839844 2240.695312 C 1992.109375 2241.667969 1993.609375 2240.972656 1996.109375 2235.429688 C 1997.058594 2233.316406 1998.121094 2232.804688 2000.140625 2232.683594 C 2001.679688 2232.589844 2003.210938 2231.992188 2004.71875 2231.5625 C 2007.039062 2230.90625 2010.171875 2231.425781 2008.851562 2226.894531 C 2008.398438 2225.367188 2010.871094 2222.984375 2012 2220.992188 C 2010.988281 2218.65625 2012.378906 2218.28125 2014.210938 2218.320312 C 2017.160156 2218.386719 2020.328125 2218.433594 2020.648438 2214.574219 C 2020.789062 2212.859375 2014.339844 2210.414062 2011.980469 2211.042969 C 2011.21875 2211.242188 2010.570312 2211.800781 2009.820312 2212.015625 C 2008.058594 2212.523438 2006.660156 2212.3125 2006.628906 2209.988281 C 2006.609375 2208.542969 2006.171875 2207.273438 2004.480469 2207.277344 C 2002.359375 2207.277344 2001.171875 2208.796875 2000.351562 2210.496094 C 1999.601562 2212.0625 2000.929688 2212.925781 2001.910156 2213.726562 C 2005.128906 2216.363281 2009.441406 2217.480469 2012.019531 2221 C 2008.191406 2220.671875 2004.359375 2220.339844 2000.558594 2220.011719 C 1999.800781 2223.210938 2002.78125 2225.917969 2000.359375 2228.621094 C 1998.390625 2225.347656 1998.410156 2225.5625 1993.589844 2226.023438 C 1991.789062 2226.195312 1988.449219 2228.0625 1988.578125 2223.199219 C 1988.621094 2221.828125 1985.539062 2220.359375 1983.851562 2218.96875 C 1981.75 2217.226562 1980.140625 2218.519531 1978.261719 2219.652344 C 1975.5 2221.328125 1972.441406 2218.253906 1969.191406 2220.203125 C 1967.089844 2221.464844 1966.191406 2221.957031 1966.269531 2224.664062 C 1966.398438 2228.867188 1968.851562 2232.804688 1967.910156 2237.757812 C 1963.539062 2230.136719 1963.539062 2230.136719 1956.78125 2231.515625 C 1956.089844 2225.695312 1961.410156 2221.339844 1960.691406 2215.257812 C 1960.558594 2214.046875 1965.5 2212.320312 1961.980469 2209.175781 C 1953 2213.886719 1953 2213.886719 1948.621094 2219.824219 C 1946.230469 2219.339844 1946.820312 2216.066406 1944.621094 2215.433594 C 1946.648438 2216.3125 1948.109375 2215.335938 1949.378906 2213.902344 C 1949.890625 2213.328125 1950.390625 2212.4375 1949.671875 2211.867188 C 1947.621094 2210.25 1944.96875 2210.382812 1943.25 2211.722656 C 1942.101562 2212.617188 1943.640625 2214.496094 1944.828125 2215.578125 C 1942.671875 2214.972656 1941.238281 2215.925781 1940.351562 2217.789062 C 1939.859375 2218.839844 1939.359375 2219.734375 1938.109375 2218.902344 C 1937.101562 2218.230469 1936.96875 2217.261719 1937.710938 2216.214844 C 1938.160156 2215.570312 1938.609375 2214.90625 1938.929688 2214.1875 C 1939.488281 2212.878906 1938.558594 2212.210938 1937.589844 2211.839844 C 1936.46875 2211.417969 1935.488281 2211.835938 1935.238281 2213.097656 C 1934.988281 2214.339844 1935.578125 2215.820312 1934.289062 2216.738281 C 1933.679688 2217.171875 1932.878906 2217.660156 1932.210938 2217.59375 C 1930.941406 2217.472656 1930.519531 2216.46875 1931 2215.324219 C 1931.578125 2213.941406 1932.828125 2211.503906 1930.519531 2211.824219 C 1925.550781 2212.511719 1923.25 2208.289062 1919.25 2206.996094 C 1920.371094 2204.464844 1926.03125 2202.730469 1920.910156 2199.03125 C 1919.378906 2197.929688 1919.980469 2197.183594 1921.070312 2196.03125 C 1923.808594 2193.128906 1926.039062 2189.566406 1931.449219 2190.210938 C 1928.011719 2187.359375 1927.621094 2183.765625 1927.179688 2180.371094 C 1926.898438 2178.136719 1927.75 2176.082031 1924.539062 2175 C 1923.21875 2174.5625 1924.808594 2172.335938 1925.609375 2171.066406 C 1926.339844 2170.914062 1927.121094 2170.878906 1927.820312 2170.621094 C 1929.25 2170.105469 1929.980469 2168.902344 1929.058594 2167.695312 C 1928.199219 2166.570312 1926.800781 2166.75 1925.78125 2167.898438 C 1924.738281 2169.058594 1924.988281 2170.195312 1925.890625 2171.300781 C 1925.140625 2171.15625 1924.390625 2171.007812 1923.640625 2170.859375 L 1923.859375 2171.050781 C 1922.769531 2169.347656 1922.859375 2167.6875 1923.558594 2165.785156 C 1924.339844 2163.675781 1922.441406 2161.667969 1920.21875 2161.855469 C 1918.679688 2161.988281 1918.691406 2162.78125 1919.171875 2163.953125 C 1919.679688 2165.175781 1920.070312 2166.449219 1918.480469 2167.296875 C 1916.46875 2166.941406 1916.578125 2165.050781 1915.890625 2163.742188 C 1915.351562 2162.722656 1914.148438 2161.746094 1913.449219 2162.644531 C 1911.351562 2165.34375 1908.601562 2165.167969 1905.699219 2165.304688 C 1902.160156 2165.472656 1903.71875 2169.078125 1902.550781 2170.921875 C 1901.710938 2172.234375 1903.910156 2173.703125 1905.5 2173.75 C 1907.820312 2173.816406 1910.089844 2174.804688 1912.480469 2174.125 C 1912.808594 2174.035156 1913.679688 2175.027344 1913.929688 2175.660156 C 1914.210938 2176.386719 1913.441406 2177.769531 1913.199219 2177.59375 C 1910.539062 2175.640625 1908.78125 2180.421875 1905.351562 2178.164062 C 1903.179688 2176.738281 1900.480469 2177.136719 1899.789062 2173.390625 C 1899.339844 2170.964844 1897.058594 2169.042969 1893.699219 2169.929688 C 1890.160156 2170.867188 1886.519531 2171.925781 1883.359375 2168.605469 C 1882.820312 2168.039062 1881.230469 2168.03125 1880.320312 2168.335938 C 1877.179688 2169.386719 1874.691406 2169.84375 1875.019531 2165.148438 C 1875.058594 2164.683594 1874.070312 2163.890625 1873.429688 2163.691406 C 1872.128906 2163.292969 1871.519531 2164.425781 1871.128906 2165.355469 C 1869.511719 2169.164062 1868.621094 2173.355469 1864.878906 2175.945312 C 1863.929688 2176.59375 1862.230469 2176.835938 1862.339844 2176.324219 C 1863.511719 2170.820312 1860.589844 2173.402344 1858.449219 2174.179688 C 1858.039062 2174.328125 1857.011719 2174.003906 1857.011719 2173.898438 C 1856.980469 2166.488281 1853.230469 2171.164062 1850.480469 2171.726562 C 1845.058594 2172.824219 1840.96875 2169.429688 1836.78125 2166.875 C 1835.039062 2165.816406 1835.429688 2163.433594 1836.171875 2161.753906 C 1836.929688 2160.03125 1838.851562 2160.460938 1840.390625 2160.347656 C 1843.289062 2160.140625 1845.160156 2162.460938 1847.628906 2163.308594 C 1850.390625 2164.253906 1853.070312 2164.613281 1854.269531 2161.375 C 1855.21875 2158.785156 1857.230469 2158.386719 1859.238281 2158.300781 C 1864.621094 2158.070312 1869.980469 2157.859375 1875.390625 2158.605469 C 1878.660156 2159.058594 1881.171875 2159.390625 1883.171875 2162.582031 C 1884.941406 2165.410156 1888.179688 2166.164062 1891.621094 2164.800781 C 1893.441406 2164.074219 1894.878906 2162.542969 1897.410156 2163.289062 C 1901.058594 2164.355469 1899.308594 2160.496094 1900.808594 2158.699219 C 1903.441406 2160.875 1906.238281 2164.3125 1909.800781 2160.011719 C 1910.539062 2159.125 1911.691406 2159.007812 1912.710938 2159.542969 C 1916.160156 2161.378906 1918.25 2160.484375 1918.929688 2156.582031 C 1919.398438 2153.820312 1921.199219 2153.777344 1923.578125 2153.667969 C 1926.699219 2153.527344 1929.761719 2154.605469 1932.921875 2153.753906 C 1935.648438 2153.011719 1938.410156 2153.324219 1939.578125 2149.449219 C 1940.441406 2146.640625 1952.410156 2142.261719 1954.941406 2143.359375 C 1958.210938 2144.78125 1959.378906 2148.179688 1960.609375 2151.21875 C 1961.140625 2152.527344 1960.019531 2154.308594 1961.640625 2156.273438 C 1966.039062 2152.21875 1970.96875 2149.117188 1977.308594 2149.832031 C 1977.820312 2149.964844 1978.308594 2150.132812 1978.800781 2150.300781 C 1980.101562 2150.738281 1981.371094 2150.886719 1982.269531 2149.589844 C 1982.5 2149.246094 1982.609375 2148.449219 1982.390625 2148.222656 C 1981.179688 2146.941406 1979.988281 2148.058594 1978.898438 2148.523438 C 1978.230469 2148.804688 1977.761719 2149.535156 1977.199219 2150.0625 C 1976.339844 2147.433594 1971.730469 2148.152344 1971.960938 2144.265625 C 1971.980469 2144 1968.960938 2139.832031 1966.828125 2144.238281 C 1966.378906 2145.164062 1965.019531 2143.105469 1964.71875 2141.871094 C 1964.46875 2140.890625 1964.070312 2139.765625 1965.769531 2139.675781 C 1966.808594 2139.625 1967.878906 2139.355469 1968.871094 2139.546875 C 1970.011719 2139.765625 1971.5 2139.816406 1971.460938 2138.695312 C 1971.191406 2130.765625 1975.820312 2135.519531 1978.550781 2135.976562 C 1981.078125 2136.402344 1982.28125 2136.164062 1982.859375 2133.175781 C 1984.429688 2124.992188 1991.160156 2122.414062 2000.070312 2121.644531 C 2001.910156 2121.484375 2004.039062 2122.222656 2005.550781 2121.511719 C 2008.808594 2119.972656 2011.28125 2120.867188 2013.21875 2123.273438 C 2015.058594 2125.558594 2016.441406 2125.496094 2018.210938 2123.398438 C 2020.839844 2120.273438 2023.890625 2119.183594 2028.308594 2118.988281 C 2036.839844 2118.617188 2045.691406 2119.316406 2053.839844 2115.597656 C 2054.550781 2115.273438 2055.390625 2114.992188 2056.140625 2115.054688 C 2065.378906 2115.78125 2074.628906 2114.742188 2083.839844 2115.28125 C 2088.601562 2115.5625 2093.121094 2113.054688 2097.878906 2114.527344 C 2098.320312 2114.664062 2099.128906 2114.527344 2099.378906 2114.214844 C 2104.289062 2108.285156 2110.289062 2110.445312 2116.140625 2111.976562 C 2117.75 2112.398438 2119.589844 2112.773438 2120.789062 2112.070312 C 2126.289062 2108.863281 2132.621094 2110.496094 2138.410156 2108.683594 C 2143.359375 2107.132812 2148.46875 2109.582031 2153.351562 2110.6875 C 2154.878906 2111.035156 2156.050781 2112.542969 2157.890625 2111.289062 C 2158.808594 2110.667969 2159.769531 2110.777344 2160.878906 2111.082031 C 2165.308594 2112.304688 2165.320312 2112.246094 2165.480469 2107.253906 C 2165.488281 2107.03125 2165.75 2106.816406 2166.308594 2105.96875 C 2168.050781 2108.203125 2167.910156 2111.328125 2170.140625 2112.910156 C 2171.949219 2114.199219 2173.800781 2115.4375 2175.730469 2113.390625 C 2177.21875 2111.800781 2175.820312 2110.589844 2174.851562 2109.296875 C 2173.929688 2108.074219 2172.480469 2107.066406 2172.679688 2104.945312 C 2175.578125 2103.34375 2177.859375 2105.335938 2180.289062 2106.476562 C 2181.308594 2106.957031 2182.519531 2107.101562 2183.089844 2106.070312 C 2183.929688 2104.546875 2182.519531 2103.730469 2181.589844 2102.832031 L 2181.378906 2103.097656 C 2182.910156 2102.851562 2183.648438 2101.5 2184.75 2100.660156 C 2185.839844 2103.796875 2185.609375 2107.683594 2190.898438 2110.425781 C 2188.878906 2106.527344 2192 2104.414062 2190.441406 2101.175781 C 2188.550781 2101.855469 2186.660156 2100.667969 2184.589844 2100.855469 C 2185.480469 2098.742188 2185.070312 2095.03125 2189.441406 2098.175781 C 2190.789062 2099.140625 2193.628906 2095.492188 2196.578125 2096.910156 C 2196.539062 2097.703125 2196.761719 2098.609375 2196.410156 2099.144531 C 2192.390625 2105.253906 2192.890625 2105.71875 2199.628906 2108.589844 C 2202.808594 2109.945312 2202.320312 2103.972656 2205.101562 2106.8125 C 2208.289062 2110.0625 2207.878906 2106.730469 2208.558594 2105.007812 C 2209 2103.886719 2210.109375 2103.511719 2211.121094 2104.394531 C 2216.261719 2108.859375 2221.730469 2104.035156 2227.019531 2104.917969 C 2227.929688 2105.074219 2228.679688 2103.605469 2228.75 2102.535156 C 2228.828125 2101.203125 2228.558594 2099.75 2227.160156 2099.171875 C 2225.539062 2098.5 2223.359375 2098.945312 2222.558594 2096.71875 C 2231.589844 2091.742188 2233.429688 2092.644531 2242.160156 2106.410156 C 2242.871094 2100.449219 2249.929688 2102.886719 2252.449219 2098.574219 C 2248.261719 2094.730469 2240.289062 2101.449219 2238.398438 2092.515625 C 2239.160156 2090.53125 2242.96875 2094.113281 2243.820312 2090.75 C 2244.089844 2089.675781 2245.789062 2088.898438 2246.378906 2089.433594 C 2249.859375 2092.601562 2253.78125 2089.351562 2257.75 2090.40625 C 2263.371094 2091.898438 2270.121094 2091.59375 2275.96875 2088.5 C 2278.28125 2087.28125 2280.800781 2086.390625 2283.308594 2085.625 C 2284.769531 2085.183594 2286.058594 2085.378906 2287.5 2086.738281 C 2292.539062 2091.46875 2292.691406 2091.34375 2296.070312 2085.105469 C 2296.558594 2084.203125 2296.75 2083.144531 2297.199219 2081.800781 C 2299.769531 2083.019531 2302.300781 2084.222656 2304.949219 2085.476562 C 2304.828125 2086.230469 2304.808594 2087.019531 2304.578125 2087.746094 C 2304.050781 2089.460938 2301.550781 2090.761719 2302.5 2092.578125 C 2303.699219 2094.855469 2305.71875 2096.792969 2308.101562 2098.019531 C 2309.789062 2098.890625 2311.890625 2099.394531 2313.039062 2097.414062 C 2314.019531 2095.726562 2313.789062 2093.746094 2311.75 2092.628906 C 2310.640625 2092.023438 2309.429688 2091.601562 2308.261719 2091.09375 C 2312.429688 2083.488281 2320.050781 2084.269531 2326.730469 2084.050781 C 2329.660156 2083.953125 2332.371094 2084.589844 2334.710938 2082.457031 C 2337.78125 2079.65625 2340.058594 2082.910156 2342.699219 2083.375 C 2346.449219 2084.03125 2351.261719 2083.445312 2350.28125 2089.804688 C 2350.21875 2090.199219 2351.449219 2090.703125 2351.910156 2091.289062 C 2354.148438 2094.144531 2357.140625 2093.660156 2359.96875 2092.867188 C 2363.980469 2091.75 2367.699219 2090.988281 2370.808594 2094.835938 C 2371.359375 2095.523438 2372.78125 2096.050781 2373.628906 2095.875 C 2379.859375 2094.574219 2386.839844 2096.789062 2392.308594 2092.019531 C 2393.148438 2091.289062 2394.128906 2091.589844 2394.269531 2092.140625 C 2395.179688 2095.660156 2399.179688 2095.753906 2401.058594 2098.132812 C 2400.058594 2100.261719 2398.261719 2099.351562 2396.898438 2099.683594 C 2394.28125 2100.328125 2392.449219 2101.371094 2393.480469 2104.59375 C 2394.140625 2106.699219 2392.871094 2108.832031 2393.148438 2110.84375 C 2393.398438 2112.652344 2392.890625 2116.332031 2397.210938 2113.726562 C 2399.578125 2112.292969 2399 2115.382812 2399.441406 2116.558594 C 2399.949219 2117.921875 2400.378906 2119.058594 2402.148438 2118.460938 C 2404.238281 2117.757812 2403.351562 2116.714844 2402.558594 2115.539062 C 2400.269531 2112.148438 2402.640625 2110.140625 2404.929688 2108.253906 C 2407.628906 2106.027344 2410.441406 2103.976562 2404.789062 2101.921875 C 2403.75 2101.542969 2403.359375 2100.347656 2403.488281 2099.238281 C 2403.691406 2097.402344 2404.988281 2097.4375 2406.390625 2097.691406 C 2406.910156 2097.78125 2407.878906 2097.808594 2407.910156 2097.671875 C 2409.589844 2091.5 2415.660156 2092.191406 2419.820312 2089.914062 C 2421.160156 2089.1875 2420.910156 2087.714844 2420.820312 2086.390625 C 2420.808594 2086.148438 2421.570312 2085.652344 2421.980469 2085.644531 C 2422.839844 2085.625 2423.75 2086.417969 2423.550781 2087.03125 C 2421.390625 2093.496094 2427.691406 2098.230469 2426.03125 2105.230469 C 2430.140625 2104.003906 2432.488281 2102.496094 2434.390625 2099.917969 C 2435.628906 2098.257812 2437.28125 2096.78125 2439.019531 2095.652344 C 2441.859375 2093.816406 2443.601562 2094.457031 2443.488281 2098.234375 C 2443.46875 2098.859375 2444.308594 2099.511719 2444.820312 2100.257812 C 2446.628906 2098.628906 2448.570312 2097.277344 2447.949219 2094.449219 C 2447.429688 2092.054688 2449.019531 2091.054688 2450.910156 2090.527344 C 2452.859375 2089.980469 2454.71875 2090.257812 2455.371094 2092.546875 C 2455.828125 2094.167969 2456.378906 2095.898438 2458.261719 2095.671875 C 2460.761719 2095.367188 2460.191406 2092.898438 2460.628906 2091.207031 C 2460.820312 2090.472656 2460.941406 2089.714844 2461.078125 2089.003906 C 2457.808594 2085.96875 2453.148438 2088.28125 2449.71875 2085.261719 C 2452.859375 2084.453125 2451.699219 2080.742188 2454.289062 2078.230469 C 2455.929688 2082.539062 2457.980469 2086.214844 2463.25 2083.628906 C 2462.878906 2091.40625 2464 2092.996094 2470.320312 2090.953125 C 2474.070312 2089.742188 2477.808594 2089.332031 2481.53125 2088.503906 C 2482.339844 2088.320312 2482.96875 2087.660156 2482.539062 2086.835938 C 2482.21875 2086.222656 2481.511719 2085.65625 2480.851562 2085.398438 C 2479.140625 2084.742188 2476.511719 2089.960938 2475.921875 2085.28125 C 2475.578125 2082.609375 2480.511719 2084.089844 2482.359375 2082.195312 C 2483.859375 2084.832031 2487.859375 2085.226562 2488.320312 2088.765625 C 2488.480469 2090.0625 2488.121094 2091.507812 2488.570312 2092.660156 C 2489.089844 2093.976562 2490.511719 2094.804688 2491.621094 2093.25 C 2494 2089.902344 2496.679688 2086.644531 2496.550781 2081.875 C 2498.378906 2082.839844 2498.390625 2085.46875 2500.648438 2085.015625 C 2503.269531 2084.492188 2501.25 2083.03125 2501.128906 2082.105469 C 2500.570312 2078.039062 2504.101562 2078.914062 2505.921875 2078.507812 C 2507.46875 2078.160156 2509.328125 2079.488281 2511.101562 2079.800781 C 2517.839844 2080.992188 2519.789062 2078.753906 2517.96875 2072.023438 C 2517.710938 2071.0625 2516.429688 2070.460938 2516.96875 2069.210938 C 2523.191406 2067.9375 2524.558594 2069.132812 2523.03125 2075.382812 C 2522.199219 2078.761719 2521.121094 2081.578125 2523.589844 2084.945312 C 2525.96875 2088.179688 2529.101562 2087.425781 2532.039062 2087.691406 C 2533.480469 2087.820312 2533.800781 2086.070312 2534.269531 2084.804688 C 2535.058594 2082.65625 2532.429688 2080.898438 2533.671875 2078.796875 C 2536.371094 2077.019531 2538.128906 2079.5 2540.28125 2080.117188 L 2540.128906 2079.949219 C 2540 2081.265625 2539.710938 2082.59375 2539.800781 2083.898438 C 2539.941406 2085.890625 2539.5 2088.21875 2542.550781 2088.78125 C 2544.980469 2089.226562 2547.640625 2089.851562 2548.871094 2087.28125 C 2549.910156 2085.109375 2550.621094 2083.542969 2553.359375 2084.300781 C 2553.710938 2084.398438 2554.359375 2083.964844 2554.660156 2083.601562 C 2555.890625 2082.136719 2551.96875 2080.230469 2554.789062 2079.164062 C 2556.351562 2078.574219 2555.78125 2082.144531 2557.890625 2081.828125 C 2559.019531 2081.660156 2560.25 2079.425781 2561.109375 2081.242188 C 2562.039062 2083.203125 2559.621094 2083.398438 2558.441406 2084.273438 C 2556.429688 2085.765625 2553.121094 2084.960938 2551.910156 2087.835938 C 2552.859375 2089.890625 2554.578125 2089.488281 2556.078125 2089.402344 C 2561.699219 2089.066406 2561.691406 2089.035156 2560.160156 2094.804688 C 2567.019531 2094.910156 2569.761719 2088.230469 2575.058594 2086.058594 L 2574.589844 2085.882812 C 2578.21875 2089.328125 2578.71875 2089.15625 2581.070312 2083.695312 L 2580.859375 2084.007812 C 2583.941406 2082.882812 2586.960938 2081.582031 2590.089844 2080.683594 C 2594.03125 2079.554688 2596.421875 2080.757812 2598 2084.664062 C 2599.410156 2088.152344 2602.039062 2090.140625 2605.480469 2090.636719 C 2607.890625 2090.988281 2610.160156 2091.367188 2612.179688 2092.703125 C 2614.839844 2094.46875 2617.089844 2093.800781 2619.328125 2091.835938 C 2623.839844 2087.886719 2623.769531 2088.078125 2628.179688 2091.183594 C 2630.148438 2092.578125 2630.570312 2095.324219 2633.171875 2096.105469 C 2634.320312 2096.449219 2634.449219 2097.75 2633.570312 2098.667969 C 2630.679688 2101.683594 2632.988281 2103.886719 2634.699219 2106.144531 C 2635.988281 2107.855469 2637.589844 2109.746094 2639.871094 2109.199219 C 2642.210938 2108.644531 2641.46875 2106.199219 2641.539062 2104.464844 C 2641.679688 2100.617188 2644.550781 2101.378906 2646.730469 2101.507812 C 2648.929688 2101.632812 2650.570312 2102.566406 2650.390625 2098.769531 C 2650.160156 2093.738281 2656.261719 2097.65625 2657.980469 2093.84375 C 2654.039062 2100.488281 2660.988281 2103.035156 2662.140625 2107.492188 C 2662.269531 2108.027344 2663.960938 2108.335938 2664.941406 2108.371094 C 2665.230469 2108.382812 2665.96875 2107.042969 2665.839844 2106.46875 C 2663.949219 2097.773438 2669.738281 2095.015625 2676.25 2092.660156 C 2677.398438 2092.242188 2678.320312 2091.203125 2680.148438 2089.871094 C 2679.96875 2094.769531 2683.71875 2097.617188 2683.628906 2102.101562 C 2683.578125 2104.457031 2686.230469 2105.488281 2688.25 2105.089844 C 2690.109375 2104.71875 2689.378906 2102.488281 2689.5 2100.996094 C 2689.519531 2100.734375 2689.351562 2100.398438 2689.460938 2100.214844 C 2690.460938 2098.574219 2685.96875 2097.585938 2688.960938 2095.71875 C 2691.089844 2094.394531 2692.199219 2096.082031 2693.71875 2097.058594 C 2698.269531 2099.984375 2701.609375 2094.855469 2705.851562 2094.878906 C 2706.480469 2094.882812 2707.429688 2092.960938 2708.910156 2093.960938 C 2714.269531 2097.5625 2720.46875 2098.367188 2726.640625 2099.152344 C 2728.820312 2099.429688 2729.101562 2101.839844 2730.890625 2102.410156 Z M 2730.628906 2102.164062 "/>
</svg>
