<svg width="690" height="286" xmlns="http://www.w3.org/2000/svg">

 <g>
  <title>Layer 1</title>
  <g stroke="null">
   <path stroke="null" transform="translate(0 0)" d="m435.66529,0.00032c0.69277,0.00026 0.69277,0.00026 1.39955,0.00053c16.74077,0.0101 33.51244,0.20237 50.20977,1.60186c0.49269,0.04066 0.98538,0.08133 1.493,0.12322c30.53846,2.56158 60.81381,7.59349 90.73193,14.62697c0.61322,0.14318 1.22643,0.28636 1.85823,0.43388c30.21243,7.10598 61.75111,17.44322 84.37361,41.22822c0.51805,0.51693 1.0361,1.03385 1.56985,1.56644c14.03403,14.34783 22.57394,34.3445 23.10544,55.12255c0.19217,18.45042 -5.83212,33.37786 -17.76605,46.60344c-20.33027,21.63832 -49.6414,29.55982 -76.536,36.73168c-0.8593,0.22986 -0.8593,0.22986 -1.73596,0.46435c-57.32594,15.31842 -115.35183,26.61687 -173.97238,34.33624c-0.44767,0.05905 -0.89534,0.11809 -1.35658,0.17892c-13.26637,1.74831 -26.52145,3.35154 -39.86219,4.29169c-1.6871,0.13422 -1.6871,0.13422 -3.16951,0.49079c-2.19409,0.46182 -4.39878,0.62935 -6.62458,0.8113c-0.48683,0.04111 -0.97366,0.08221 -1.47524,0.12456c-1.57736,0.13211 -3.15494,0.2608 -4.73257,0.38902c-0.53533,0.04421 -1.07065,0.08843 -1.62221,0.13398c-6.93114,0.57094 -13.85698,1.082 -20.80627,1.31819c-0.74415,0.02606 -0.74415,0.02606 -1.50334,0.05264c-0.41132,0.01155 -0.82264,0.02309 -1.24643,0.03499c-1.18467,0.08377 -2.36504,0.23639 -3.54125,0.41006c-3.78724,0.52372 -7.59998,0.66087 -11.41181,0.84662c-0.42892,0.02122 -0.85783,0.04245 -1.29975,0.06431c-3.37965,0.16593 -6.75973,0.31927 -10.14009,0.46725c-0.7626,0.03347 -0.7626,0.03347 -1.5406,0.06763c-42.36923,1.83807 -85.09366,2.04166 -127.44451,-0.43741c-0.76343,-0.04462 -1.52687,-0.08924 -2.31343,-0.13522c-17.69591,-1.0482 -35.37456,-2.35568 -53.0368,-3.93238c-0.62322,-0.05554 -1.24645,-0.11109 -1.88855,-0.16832c-1.73265,-0.15589 -3.46499,-0.31512 -5.19723,-0.47623c-0.75482,-0.06866 -0.75482,-0.06866 -1.52488,-0.13872c-2.33474,-0.2224 -4.59556,-0.54289 -6.8874,-1.06564c-2.32161,-0.14667 -4.64259,-0.24905 -6.96649,-0.3441c-2.27023,-0.32403 -3.44491,-0.80117 -5.24873,-2.28546c-1.22152,-1.97217 -1.22152,-1.97217 -1.06883,-3.98543c0.45807,-1.93108 0.45807,-1.93108 1.67959,-3.24586c1.15129,-0.10978 1.15129,-0.10978 2.55995,-0.03081c0.52789,0.02796 1.05578,0.05592 1.59967,0.08474c0.83198,0.05466 0.83198,0.05466 1.68078,0.11042c0.51923,0.02627 1.03846,0.05254 1.57342,0.0796c3.31969,0.19287 6.59309,0.56437 9.89027,1.01947c7.64357,1.02396 15.33927,1.43754 23.02433,1.93962c1.2914,0.08467 2.58272,0.17059 3.87403,0.25686c12.6031,0.8404 25.20719,1.55109 37.82593,2.065c0.54848,0.02257 1.09696,0.04516 1.66207,0.06842c0.9885,0.04011 1.97706,0.07879 2.96568,0.11537c2.70408,0.10766 5.38836,0.30192 8.08491,0.54582c6.37773,0.50044 12.76494,0.42688 19.15636,0.42981c1.41275,0.00262 2.82549,0.00538 4.23823,0.00826c4.54536,0.00747 9.09071,0.00635 13.63608,0.00458c1.56076,0.00004 3.12151,0.00008 4.68227,0.00012c19.35051,-0.004 38.69165,-0.11895 58.03526,-0.6986c0.90066,-0.02605 1.80132,-0.05208 2.70198,-0.0781c10.19531,-0.30064 20.33901,-0.89389 30.50259,-1.80688c3.3606,-0.29153 6.72416,-0.53513 10.0879,-0.78053c1.38436,-0.1019 2.76871,-0.20386 4.15306,-0.3059c0.69822,-0.05139 1.39644,-0.10278 2.11582,-0.15572c12.25496,-0.90567 24.50429,-1.87029 36.74684,-2.95372c0.60703,-0.05274 1.21405,-0.10548 1.83948,-0.15981c5.71832,-0.49891 11.38881,-1.03373 17.05177,-2.047c2.47661,-0.41605 4.95826,-0.73791 7.44783,-1.04932c0.48847,-0.06114 0.97694,-0.12228 1.4802,-0.18527c1.02974,-0.12838 2.05953,-0.25642 3.08934,-0.38417c14.40585,-1.79304 28.78253,-3.80481 43.14617,-5.9531c0.4546,-0.06781 0.9092,-0.13561 1.37757,-0.20547c24.40477,-3.65198 48.61862,-8.74805 72.77699,-13.92572c3.18371,-0.68188 6.36936,-1.35039 9.55789,-2.00568c11.85573,-2.45375 23.57956,-5.43309 35.30486,-8.51847c2.62615,-0.69069 5.25385,-1.37405 7.88264,-2.05306c51.42189,-11.61351 51.42189,-11.61351 90.64554,-46.42626c7.02084,-12.72342 8.53019,-27.29719 5.32537,-41.63305c-5.21949,-20.95789 -19.54979,-37.86474 -36.66505,-48.63484c-24.4589,-14.96603 -51.99783,-21.80443 -79.3226,-27.898c-0.40421,-0.09096 -0.80842,-0.18193 -1.22488,-0.27565c-14.67465,-3.29922 -29.4724,-5.40371 -44.33925,-7.41227c-1.33733,-0.18333 -2.67344,-0.37429 -4.00937,-0.5691c-6.08366,-0.86816 -12.16558,-1.40224 -18.28675,-1.85212c-1.64397,-0.1209 -3.28762,-0.24602 -4.93127,-0.37187c-10.54339,-0.79904 -21.08022,-1.40602 -31.647,-1.68248c-1.48816,-0.03926 -2.9762,-0.08213 -4.46425,-0.12534c-32.66115,-0.91109 -65.07653,1.28259 -97.53449,5.05754c-0.50116,0.05803 -1.00232,0.11607 -1.51866,0.17587c-3.43914,0.39887 -6.87723,0.80716 -10.31483,1.22109c-0.44423,0.0528 -0.88847,0.1056 -1.34616,0.16c-4.29793,0.51353 -8.55244,1.07778 -12.78366,2.05613c-2.46035,0.53587 -4.94216,0.91248 -7.42397,1.31414c-14.62526,2.38317 -29.10615,5.55925 -43.56862,8.87798c-0.4135,0.09478 -0.82699,0.18956 -1.25302,0.28721c-10.9745,2.52258 -21.86836,5.39039 -32.75874,8.29995c-0.61764,0.16416 -1.23528,0.32832 -1.87163,0.49745c-7.34582,1.95653 -14.62314,4.0596 -21.85501,6.46004c-2.78903,0.92251 -5.59836,1.7547 -8.41466,2.57467c-4.06701,1.19849 -8.04876,2.55371 -12.03868,4.02571c-2.38326,0.86194 -4.79294,1.61425 -7.20985,2.35816c-5.62871,1.75997 -11.16993,3.76202 -16.71004,5.81893c-0.74595,0.27568 -0.74595,0.27568 -1.50696,0.55694c-9.69078,3.5827 -19.31795,7.33483 -28.91658,11.19391c-0.49128,0.19692 -0.98256,0.39384 -1.48873,0.59672c-1.95903,0.7854 -3.91615,1.57561 -5.87142,2.37181c-1.80082,0.73241 -3.60719,1.44704 -5.41573,2.15706c-20.04749,7.91687 -40.37337,16.38963 -59.29393,27.08653c-0.48961,0.27223 -0.97921,0.54446 -1.48366,0.82495c-6.79395,3.79032 -13.32598,7.88797 -19.70211,12.44612c-0.59048,0.42116 -1.18096,0.84233 -1.78934,1.27626c-16.71318,12.15819 -31.70082,28.07319 -36.51579,49.77403c-0.5903,3.36804 -0.68904,6.66634 -0.66906,10.08699c0.00394,0.71517 0.00787,1.43034 0.01193,2.16717c0.13048,6.25365 1.09964,11.67497 3.34726,17.43127c0.17675,0.45305 0.3535,0.9061 0.53561,1.37288c2.4974,6.19083 5.55187,11.41688 9.84733,16.37665c0.28402,0.3361 0.56804,0.67221 0.86067,1.01851c5.03451,5.91812 10.54242,10.51086 16.8514,14.75886c0.53468,0.3645 0.53468,0.3645 1.08016,0.73636c6.02808,4.0622 12.46527,7.00865 19.07495,9.78189c0.48887,0.21027 0.97774,0.42053 1.48143,0.63717c5.12432,2.11819 10.40712,3.49395 15.7344,4.86847c0.49347,0.12825 0.98694,0.2565 1.49536,0.38864c14.2821,3.69937 28.68603,6.47356 43.22082,8.74228c3.63942,0.57013 7.26707,1.16508 10.88411,1.8805c5.83688,1.15385 11.67585,1.92522 17.57652,2.58834c1.3852,0.15919 2.77029,0.31948 4.15537,0.47986c0.9183,0.1062 1.83664,0.21187 2.75505,0.31702c3.1271,0.35951 6.25008,0.74915 9.37257,1.15217c46.34259,5.94626 93.90532,6.24372 140.45358,3.31006c0.77998,-0.04904 1.55996,-0.09809 2.36357,-0.14862c5.90547,-0.40671 11.78281,-1.0404 17.66842,-1.69249c2.56101,-0.28016 5.12352,-0.54319 7.68607,-0.80643c22.77487,-2.29466 22.77487,-2.29466 45.4015,-5.84975c2.90899,-0.54444 5.8219,-1.04114 8.74152,-1.51508c56.40302,-9.22491 115.74307,-23.35112 168.62881,-47.06824c2.80347,-1.22177 5.00899,-1.76604 8.09109,-1.46822c1.72656,0.82595 2.73013,1.52877 3.8936,3.1226c0.58333,2.26032 0.32323,3.82205 -0.22904,6.08086c-2.4107,3.23071 -5.09083,4.42435 -8.58883,5.83434c-0.53645,0.22366 -1.07291,0.44733 -1.62561,0.67778c-4.16054,1.71731 -8.35681,3.33084 -12.5795,4.86222c-2.84149,1.03883 -5.63838,2.16864 -8.42769,3.35827c-6.31367,2.6887 -12.70068,5.02226 -19.16615,7.24888c-1.07887,0.37403 -2.15768,0.7482 -3.23647,1.12251c-34.45465,11.9316 -69.40552,21.73661 -105.07462,28.46423c-1.99071,0.37686 -3.97934,0.76503 -5.96805,1.15396c-8.91065,1.72096 -17.84763,3.20049 -26.80668,4.59403c-0.52888,0.0832 -1.05776,0.1664 -1.60267,0.25212c-6.47803,1.01502 -12.94968,1.86393 -19.47164,2.48051c-2.76859,0.26292 -5.49881,0.59386 -8.24222,1.08845c-5.56941,0.97394 -11.17712,1.45394 -16.79593,1.97217c-0.79154,0.07553 -1.58308,0.15106 -2.39861,0.22886c-40.79186,3.87129 -82.2144,4.5589 -123.098,1.84518c-1.53256,-0.10127 -3.06534,-0.19808 -4.59819,-0.29415c-119.53622,-7.6112 -119.53622,-7.6112 -180.92337,-46.84708c-1.08166,-1.02794 -2.18656,-2.02863 -3.31863,-2.99164c-2.19592,-1.91694 -3.9083,-4.16151 -5.70203,-6.50457c-0.47474,-0.61777 -0.9495,-1.23553 -1.43863,-1.87202c-6.00009,-7.99367 -10.42475,-16.54942 -13.21964,-26.39575c-0.21493,-0.7381 -0.42987,-1.4762 -0.65132,-2.23666c-4.20869,-17.45664 -0.7029,-35.95861 7.30767,-51.41767c30.64518,-53.09451 102.29592,-73.92096 244.06527,-121.45508c28.52673,-7.16894 57.23901,-12.87712 86.26315,-17.12167c2.09721,-0.3078 4.19137,-0.63325 6.28446,-0.97228c29.72368,-4.76752 59.93754,-6.17479 89.95127,-6.15019zs" fill="#E9AF58"/>
  </g>
 </g>
</svg>