<?xml version="1.0" encoding="UTF-8"?>
<svg viewBox="1343 1395 830 330" xmlns="http://www.w3.org/2000/svg">
  <path d="M0 0 C1.6948855 -0.00697914 3.38977075 -0.0140201 5.08465576 -0.02111816 C10.47701336 -0.04041091 15.8693304 -0.04529443 21.26171875 -0.046875 C22.17922283 -0.04746414 23.09672691 -0.04805328 24.04203415 -0.04866028 C52.1157196 -0.06139181 80.00170645 0.2710641 107.94921875 3.203125 C108.6838031 3.27809204 109.41838745 3.35305908 110.17523193 3.43029785 C120.46390734 4.4816458 130.70886613 5.75008471 140.94921875 7.203125 C141.60821167 7.29658203 142.26720459 7.39003906 142.94616699 7.48632812 C170.5021009 11.41501556 197.75680188 16.68686317 224.88671875 22.890625 C226.15662155 23.17903259 226.15662155 23.17903259 227.45217896 23.4732666 C229.87853336 24.02643861 232.30281194 24.58788415 234.7265625 25.15234375 C235.79654984 25.39584816 235.79654984 25.39584816 236.88815308 25.64427185 C249.96807815 28.73141411 249.96807815 28.73141411 252.94921875 33.203125 C252.94921875 34.523125 252.94921875 35.843125 252.94921875 37.203125 C253.67496094 37.48414063 254.40070312 37.76515625 255.1484375 38.0546875 C282.1499527 49.1264385 304.30487028 72.76229551 315.94921875 99.203125 C323.3993552 118.17943615 327.34424632 141.28491353 320.33984375 161.015625 C303.00445908 200.75066401 270.23209814 220.17972379 231.29760742 235.75024414 C202.50781544 247.02904296 172.98919056 256.15760621 143.2467041 264.55407715 C141.67701144 264.99752096 140.10760659 265.4419845 138.53845215 265.8873291 C75.85161152 283.67812402 12.35215422 296.73477155 -52.20840454 305.40592957 C-56.82275401 306.02826251 -61.4261467 306.70413696 -66.02807617 307.41137695 C-90.74015732 311.16017254 -115.75363105 313.16253329 -140.67578125 314.890625 C-141.98316254 314.98162476 -141.98316254 314.98162476 -143.31695557 315.07446289 C-163.94893294 316.49489875 -184.51642732 317.36827861 -205.19921875 317.40625 C-206.80341612 317.41049107 -206.80341612 317.41049107 -208.44002151 317.41481781 C-214.12228882 317.42968782 -219.80453163 317.43898875 -225.48681641 317.44335938 C-230.06632647 317.4477006 -234.6456435 317.46143978 -239.22509766 317.484375 C-269.07727091 317.63086923 -298.66411726 316.80358447 -328.43388367 314.54556274 C-333.48430818 314.16475321 -338.53685851 313.85105455 -343.59329224 313.56016541 C-356.42699623 312.7746636 -369.2039677 311.25868346 -381.97201538 309.77651978 C-384.14597181 309.52449892 -386.32029775 309.27563974 -388.49502563 309.03036499 C-421.82707099 305.24277285 -458.6337114 298.96350762 -484.05078125 275.203125 C-485.10072266 274.28853516 -485.10072266 274.28853516 -486.171875 273.35546875 C-498.98353428 261.59271724 -507.30609524 244.22510671 -508.375 226.9296875 C-509.31133722 201.5879961 -498.15556417 179.84309748 -481.73828125 161.140625 C-480.1889557 159.48238377 -478.6252669 157.837496 -477.05078125 156.203125 C-476.5727002 155.6992627 -476.09461914 155.19540039 -475.60205078 154.67626953 C-467.98957775 146.67944948 -460.078432 139.57817058 -451.05078125 133.203125 C-450.42171875 132.75678711 -449.79265625 132.31044922 -449.14453125 131.85058594 C-417.50234297 109.61762259 -382.38337204 92.67235645 -347.05078125 77.203125 C-346.07111389 76.77419952 -346.07111389 76.77419952 -345.07165527 76.33660889 C-301.61399685 57.35885169 -256.79058203 41.81651847 -210.95080566 29.70581055 C-209.2199226 29.24787438 -207.49026321 28.78531934 -205.76074219 28.32226562 C-156.7429731 15.25731236 -106.57089632 7.62954015 -56.11328125 3.015625 C-55.18692871 2.93076843 -54.26057617 2.84591187 -53.30615234 2.75848389 C-50.60808373 2.51341772 -47.909633 2.27321225 -45.2109375 2.03515625 C-44.43786758 1.96554184 -43.66479767 1.89592743 -42.86830139 1.82420349 C-28.57596737 0.58780207 -14.34061004 0.03681893 0 0 Z M-13.05078125 25.203125 C-14.23589294 25.39195251 -14.23589294 25.39195251 -15.44494629 25.58459473 C-48.55565844 30.87032565 -81.96138421 37.83727881 -113.52294922 49.29589844 C-116.01231274 50.18931884 -118.51295869 51.03515443 -121.0234375 51.8671875 C-146.64330358 60.42326559 -172.19024167 71.40798746 -195.52734375 85.05859375 C-198.29997746 86.31615053 -200.04227655 86.57403654 -203.05078125 86.203125 C-204.92578125 84.515625 -204.92578125 84.515625 -206.05078125 82.203125 C-205.98046875 79.77734375 -205.98046875 79.77734375 -205.05078125 77.203125 C-202.69140625 75.421875 -202.69140625 75.421875 -199.30078125 73.703125 C-198.65592773 73.37546143 -198.01107422 73.04779785 -197.34667969 72.71020508 C-156.93058134 52.57942465 -113.32283323 34.66296517 -69.05078125 25.203125 C-69.05078125 24.873125 -69.05078125 24.543125 -69.05078125 24.203125 C-81.67734705 24.57947569 -93.89357692 26.46665083 -106.33007812 28.58203125 C-109.58658109 29.12563647 -112.84514201 29.64631597 -116.10725403 30.15457153 C-139.27330885 33.76629375 -162.10817783 38.48043782 -184.95715332 43.72399902 C-187.83825052 44.38333705 -190.72205403 45.03057095 -193.60546875 45.6796875 C-203.62977768 47.96823259 -213.45418383 50.72385061 -223.27734375 53.7578125 C-226.19717884 54.65505955 -229.11782525 55.50533328 -232.07421875 56.2734375 C-255.85014247 62.45145632 -279.25428559 71.10109095 -302.05078125 80.203125 C-303.61916748 80.82719238 -303.61916748 80.82719238 -305.21923828 81.46386719 C-319.99177473 87.36099411 -334.6404952 93.46648701 -349.05078125 100.203125 C-349.96907715 100.63141602 -350.88737305 101.05970703 -351.83349609 101.50097656 C-398.27097723 123.21262335 -398.27097723 123.21262335 -441.05078125 151.203125 C-442.38496094 152.20279297 -442.38496094 152.20279297 -443.74609375 153.22265625 C-464.37264465 169.32368031 -484.38586916 190.28131763 -488.05078125 217.203125 C-489.01217202 230.40580742 -485.72573031 243.99100591 -476.98046875 254.125 C-476.34367187 254.81078125 -475.706875 255.4965625 -475.05078125 256.203125 C-474.06464844 257.32460937 -474.06464844 257.32460937 -473.05859375 258.46875 C-457.52756236 275.19447611 -434.68799225 281.72902593 -413.05078125 286.203125 C-412.25498154 286.36988235 -411.45918182 286.53663971 -410.63926697 286.70845032 C-394.34229434 290.06790038 -377.92963412 291.6948664 -361.37764359 293.14035416 C-359.21022929 293.33058711 -357.04317339 293.524495 -354.87619019 293.71957397 C-335.00118069 295.50792886 -315.12025921 297.27564131 -295.17788696 298.11026001 C-293.64299167 298.17727033 -292.10832171 298.24951354 -290.57382202 298.32504272 C-269.1326935 299.37999473 -247.70001248 299.40597752 -226.23828125 299.390625 C-225.30685177 299.39021084 -224.37542229 299.38979668 -223.41576767 299.38936996 C-170.81838271 299.3601034 -118.90723255 296.39303173 -66.59765625 290.66015625 C-64.97686661 290.4840255 -64.97686661 290.4840255 -63.32333374 290.30433655 C-54.07141579 289.26886841 -44.89614488 287.84943546 -35.71875 286.29296875 C-30.95755473 285.50122747 -26.19075804 284.77412454 -21.4140625 284.08203125 C54.47433782 273.08424857 129.038889 253.6756635 201.85736084 229.8861084 C203.75776652 229.2656334 205.65933719 228.64872943 207.56103516 228.03222656 C233.35656871 219.61935159 260.29499842 209.29655785 280.94921875 191.203125 C282.46515625 190.0584375 282.46515625 190.0584375 284.01171875 188.890625 C295.13729115 178.71190982 302.18176593 166.36156037 306.94921875 152.203125 C307.32240234 151.09904297 307.32240234 151.09904297 307.703125 149.97265625 C312.77310895 131.64271426 307.05135407 111.328612 298.05493164 95.18676758 C294.85308765 89.75689487 291.09179305 84.93508996 286.94921875 80.203125 C286.3975 79.51992187 285.84578125 78.83671875 285.27734375 78.1328125 C280.50038555 72.33222039 274.87746915 67.7862425 268.94921875 63.203125 C268.08296875 62.52121094 267.21671875 61.83929687 266.32421875 61.13671875 C249.66985088 48.47245985 231.27504439 42.31107168 211.01171875 38.203125 C210.18795746 38.03292847 209.36419617 37.86273193 208.51547241 37.68737793 C193.58830012 34.60398564 178.61971141 31.99594428 163.54394531 29.74121094 C160.00781006 29.21189539 156.4745359 28.66616775 152.94140625 28.1171875 C131.77517718 24.86142456 110.59550353 21.95282594 89.16723633 21.36083984 C86.94921875 21.203125 86.94921875 21.203125 83.85375977 20.70703125 C78.99850387 20.0804291 74.22287189 19.98388196 69.33203125 19.9296875 C68.29921021 19.91711411 67.26638916 19.90454071 66.20227051 19.8915863 C39.36915257 19.62959299 13.43483899 20.90367766 -13.05078125 25.203125 Z" fill="#E9AF58" transform="translate(1850, 1400)"/>
</svg>