<?xml version="1.0" encoding="UTF-8"?>
<svg version="1.1" xmlns="http://www.w3.org/2000/svg" width="3500" height="2000">
<path d="M0 0 C1.1342831 0.00040031 1.1342831 0.00040031 2.29148102 0.00080872 C29.70116321 0.01618145 57.16143708 0.30865157 84.5 2.4375 C85.30668121 2.49935486 86.11336243 2.56120972 86.94448853 2.62493896 C136.94514565 6.52152911 186.51503091 14.17590249 235.5 24.875 C236.50401855 25.09280121 237.50803711 25.31060242 238.54248047 25.53500366 C288.00932554 36.34437614 339.64764616 52.06904132 376.6875 88.25 C377.53570313 89.03632812 378.38390625 89.82265625 379.2578125 90.6328125 C402.23574701 112.45824872 416.21815601 142.87651839 417.08837891 174.48339844 C417.40302204 202.54956593 407.53944139 225.25668406 388 245.375 C354.7132219 278.29049008 306.7220571 290.34040514 262.6875 301.25 C261.28056885 301.59964813 261.28056885 301.59964813 259.84521484 301.95635986 C165.9853719 325.25823303 70.97950061 342.44505611 -25 354.1875 C-25.73297176 354.2773177 -26.46594353 354.36713539 -27.22112656 354.45967484 C-48.94217574 357.11913807 -70.64473231 359.55792174 -92.48754883 360.98803711 C-95.24984096 361.19220541 -95.24984096 361.19220541 -97.67700195 361.73461914 C-101.26938755 362.43712271 -104.87912519 362.69196432 -108.5234375 362.96875 C-109.32052628 363.0312796 -110.11761505 363.0938092 -110.93885803 363.15823364 C-113.52146868 363.35918881 -116.10443735 363.55494711 -118.6875 363.75 C-119.563992 363.81725281 -120.44048401 363.88450562 -121.34353638 363.95379639 C-132.69191405 364.82229932 -144.03158591 365.59969851 -155.40966797 365.95898438 C-156.62807373 365.99862305 -156.62807373 365.99862305 -157.87109375 366.0390625 C-158.54454834 366.05662598 -159.21800293 366.07418945 -159.91186523 366.09228516 C-161.85153494 366.21971591 -163.78414576 366.4518807 -165.70996094 366.71606445 C-171.91080682 367.51273398 -178.15342187 367.72135449 -184.39453125 368.00390625 C-185.09679714 368.03619072 -185.79906303 368.06847519 -186.52260971 368.10173798 C-192.05611616 368.35413805 -197.59032039 368.58740914 -203.125 368.8125 C-204.37360495 368.86342112 -204.37360495 368.86342112 -205.64743423 368.91537094 C-275.01863378 371.71137914 -344.97139197 372.02107896 -414.3125 368.25 C-415.56246765 368.1821228 -416.8124353 368.11424561 -418.10028076 368.04431152 C-447.07380632 366.44983325 -476.01908887 364.46093251 -504.9375 362.0625 C-505.95790375 361.97800598 -506.9783075 361.89351196 -508.02963257 361.80645752 C-510.86650158 361.56932858 -513.70286996 361.32710644 -516.5390625 361.08203125 C-517.77492348 360.97757942 -517.77492348 360.97757942 -519.03575134 360.87101746 C-522.85842125 360.53271351 -526.56006244 360.04519346 -530.3125 359.25 C-534.11367991 359.02688727 -537.91381784 358.87114992 -541.71875 358.7265625 C-545.43580402 358.23364881 -547.35910858 357.50784634 -550.3125 355.25 C-552.3125 352.25 -552.3125 352.25 -552.0625 349.1875 C-551.3125 346.25 -551.3125 346.25 -549.3125 344.25 C-547.42749023 344.08300781 -547.42749023 344.08300781 -545.12109375 344.203125 C-544.25677734 344.24566406 -543.39246094 344.28820313 -542.50195312 344.33203125 C-541.13973633 344.41517578 -541.13973633 344.41517578 -539.75 344.5 C-538.89986328 344.53996094 -538.04972656 344.57992188 -537.17382812 344.62109375 C-531.73849256 344.91446708 -526.37895294 345.47958761 -520.98046875 346.171875 C-508.46563938 347.72949347 -495.86547004 348.35862262 -483.28270721 349.12237167 C-481.16829945 349.25116959 -479.0540172 349.38187457 -476.9397583 349.51309204 C-456.30467586 350.79148438 -435.66799287 351.87255404 -415.00732422 352.65429688 C-414.10929077 352.68864334 -413.21125732 352.72298981 -412.28601074 352.75837708 C-410.66753289 352.81940086 -409.04896923 352.87822911 -407.43029785 352.93388367 C-403.00289938 353.09765378 -398.60792596 353.39314732 -394.19287109 353.76416016 C-383.750608 354.52542141 -373.29282102 354.41351549 -362.828125 354.41796875 C-360.51503974 354.42196322 -358.20195481 354.42615384 -355.88887024 354.43052673 C-348.44673963 354.44188536 -341.00463654 354.44018916 -333.5625 354.4375 C-331.00706991 354.43755603 -328.45163981 354.43761708 -325.89620972 354.43768311 C-294.21359501 354.43159288 -262.54630985 354.25673638 -230.875 353.375 C-229.40035047 353.33537843 -227.92570041 353.29577645 -226.4510498 353.25619507 C-209.75825036 352.79887439 -193.14995789 351.89643646 -176.50912476 350.50762939 C-171.00679931 350.06417391 -165.49964477 349.69360664 -159.9921875 349.3203125 C-157.72557875 349.16530693 -155.45897725 349.01019519 -153.19238281 348.85498047 C-152.04918579 348.77681091 -150.90598877 348.69864136 -149.72814941 348.61810303 C-129.66308229 347.24042397 -109.60724015 345.77308177 -89.5625 344.125 C-88.56861267 344.044776 -87.57472534 343.964552 -86.55072021 343.88189697 C-77.1881083 343.12297768 -67.90380076 342.30942259 -58.63183594 340.76806641 C-54.576885 340.13518866 -50.51367629 339.64559201 -46.4375 339.171875 C-45.63773239 339.07887115 -44.83796478 338.98586731 -44.01396179 338.89004517 C-42.32795681 338.69477081 -40.64189443 338.49999141 -38.95578003 338.30566406 C-15.36907202 335.57814034 8.16989531 332.51791325 31.6875 329.25 C32.43181274 329.14685486 33.17612549 329.04370972 33.94299316 328.93743896 C73.90095383 323.38217345 113.54633494 315.63019963 153.10084534 307.75410461 C158.31355227 306.71685113 163.52940695 305.69992866 168.75 304.703125 C188.16140983 300.97056077 207.3568417 296.43849402 226.5546875 291.74511719 C230.85449474 290.69446894 235.15683127 289.65496436 239.4609375 288.62207031 C323.65407271 270.95599212 323.65407271 270.95599212 387.875 218 C399.37022738 198.64556018 401.84149279 176.47643164 396.59423828 154.66918945 C388.04837355 122.78874437 364.58534012 97.07060782 336.5625 80.6875 C296.51590876 57.92166776 251.4263811 47.51932799 206.6875 38.25 C206.02568726 38.1116272 205.36387451 37.97325439 204.68200684 37.83068848 C180.6551813 32.81201864 156.42681115 29.61074245 132.08529663 26.5553894 C129.89567571 26.27651378 127.70806754 25.9860283 125.52075195 25.68969727 C115.55997163 24.36907986 105.60203035 23.55665544 95.57983398 22.87231445 C92.88816283 22.68839938 90.197005 22.49807743 87.50585938 22.30664062 C70.24314983 21.09116784 52.99118057 20.16785479 35.69018555 19.74731445 C33.25362855 19.68758894 30.81726098 19.62237044 28.38085938 19.55664062 C-25.09527696 18.17071586 -78.16903165 21.50767082 -131.3125 27.25 C-132.13304871 27.33828064 -132.95359741 27.42656128 -133.79901123 27.51751709 C-139.42991869 28.12427396 -145.05911137 28.74534232 -150.6875 29.375 C-151.41484344 29.45531464 -152.14218689 29.53562927 -152.89157104 29.61837769 C-159.92857323 30.39955106 -166.89449394 31.25786303 -173.82226562 32.74609375 C-177.85060273 33.56123961 -181.91407968 34.13411527 -185.97753906 34.74511719 C-209.92350134 38.3703185 -233.63307911 43.20166074 -257.3125 48.25 C-257.98951965 48.39417358 -258.66653931 48.53834717 -259.36407471 48.68688965 C-277.33263219 52.52415241 -295.16916438 56.8865723 -313 61.3125 C-314.01125946 61.56221558 -315.02251892 61.81193115 -316.06442261 62.06921387 C-328.09174184 65.04542385 -340.00690059 68.24454191 -351.84765625 71.89599609 C-356.4141485 73.29929159 -361.01387377 74.5651933 -365.625 75.8125 C-372.28392011 77.63561206 -378.80324029 79.69711622 -385.3359375 81.9362793 C-389.2380579 83.24743075 -393.18342325 84.39183494 -397.140625 85.5234375 C-406.35652908 88.20065152 -415.42917397 91.24609712 -424.5 94.375 C-425.72133636 94.79436325 -425.72133636 94.79436325 -426.96734619 95.22219849 C-442.83408309 100.67208439 -458.59665799 106.37970103 -474.3125 112.25 C-475.116875 112.5495459 -475.92125 112.8490918 -476.75 113.15771484 C-479.95751797 114.35242685 -483.16191193 115.55447996 -486.36328125 116.765625 C-489.3117695 117.87975132 -492.26933604 118.96681974 -495.23046875 120.046875 C-528.05425376 132.08975619 -561.33385279 144.97824428 -592.3125 161.25 C-593.11413574 161.66411133 -593.91577148 162.07822266 -594.74169922 162.50488281 C-605.86545445 168.27058793 -616.56034794 174.50379851 -627 181.4375 C-627.96679688 182.07816406 -628.93359375 182.71882813 -629.9296875 183.37890625 C-657.2942007 201.87354276 -681.83348808 226.08290556 -689.71704102 259.09350586 C-690.68354034 264.21686371 -690.84520759 269.23413195 -690.8125 274.4375 C-690.80605469 275.52538818 -690.79960937 276.61327637 -690.79296875 277.73413086 C-690.57933902 287.24697821 -688.99252653 295.49370158 -685.3125 304.25 C-685.02310547 304.93916504 -684.73371094 305.62833008 -684.43554688 306.33837891 C-680.34654839 315.75566363 -675.3454579 323.70535631 -668.3125 331.25 C-667.8474707 331.76127441 -667.38244141 332.27254883 -666.90332031 332.79931641 C-658.66031447 341.80175983 -649.64219683 348.78809101 -639.3125 355.25 C-638.43706543 355.80445801 -638.43706543 355.80445801 -637.54394531 356.37011719 C-627.67416041 362.54941125 -617.13455143 367.03143976 -606.3125 371.25 C-605.51207275 371.56984863 -604.71164551 371.88969727 -603.88696289 372.21923828 C-595.49691272 375.44136022 -586.84736172 377.53412414 -578.125 379.625 C-577.31703979 379.82009155 -576.50907959 380.01518311 -575.67663574 380.21618652 C-552.29253817 385.84354742 -528.70896928 390.06355325 -504.91113281 393.51464844 C-498.95229862 394.38191082 -493.01275166 395.28692706 -487.09056091 396.37521362 C-477.53382771 398.13041297 -467.97367387 399.30379034 -458.3125 400.3125 C-456.04450673 400.55466315 -453.77669516 400.79847766 -451.50889587 401.04244995 C-450.00537032 401.20399574 -448.50175892 401.36474461 -446.99806213 401.52468872 C-441.87806425 402.07157359 -436.76479546 402.66427283 -431.65234375 403.27734375 C-355.77555398 412.32259434 -277.90103429 412.77508209 -201.6875 408.3125 C-200.41044189 408.23789551 -199.13338379 408.16329102 -197.81762695 408.08642578 C-188.14858999 407.46775924 -178.52562452 406.50380985 -168.88909912 405.51187134 C-164.69594801 405.08570256 -160.50036177 404.68558586 -156.3046875 404.28515625 C-119.01536374 400.79459903 -119.01536374 400.79459903 -81.96875 395.38671875 C-77.20584839 394.55854473 -72.4365428 393.80297215 -67.65625 393.08203125 C24.69249313 379.04941008 121.85002862 357.56108474 208.43994141 321.48339844 C213.03007183 319.62489182 216.64116508 318.79696245 221.6875 319.25 C224.51439795 320.50639909 226.15754961 321.57551768 228.0625 324 C229.01758949 327.43832218 228.59171661 329.81397688 227.6875 333.25 C223.74045834 338.16445383 219.35227483 339.98017484 213.625 342.125 C212.74666504 342.46523193 211.86833008 342.80546387 210.96337891 343.15600586 C204.15132051 345.76832649 197.28077495 348.22277765 190.36694336 350.55224609 C185.71456416 352.13248993 181.13521422 353.85112376 176.56826782 355.66073608 C166.23088507 359.75070493 155.77343347 363.30043994 145.1875 366.6875 C143.42107426 367.2564611 141.65471772 367.82563711 139.88842773 368.39501953 C83.47577501 386.54496623 26.25067421 401.4600162 -32.15039062 411.69384766 C-35.40978261 412.26711008 -38.66577104 412.85758865 -41.921875 413.44921875 C-56.5112962 416.06708905 -71.14383298 418.31770321 -85.8125 420.4375 C-86.67843781 420.56405975 -87.54437561 420.69061951 -88.43655396 420.8210144 C-99.04303668 422.36501919 -109.63907858 423.65635939 -120.31750488 424.59428406 C-124.85051877 424.99421825 -129.32070838 425.49763841 -133.8125 426.25 C-142.93129675 427.73151736 -152.11281571 428.46167754 -161.3125 429.25 C-162.60849121 429.3648877 -163.90448242 429.47977539 -165.23974609 429.59814453 C-232.0283182 435.48702311 -299.84950199 436.53298992 -366.78826904 432.40496826 C-369.29754459 432.25091815 -371.80714698 432.10365704 -374.31689453 431.95751953 C-570.03371186 420.37960717 -570.03371186 420.37960717 -670.54296875 360.6953125 C-672.3139661 359.13163924 -674.12302595 357.60942304 -675.9765625 356.14453125 C-679.57194224 353.22854601 -682.37561705 349.81417833 -685.3125 346.25 C-686.08980469 345.31027344 -686.86710937 344.37054687 -687.66796875 343.40234375 C-697.49193138 331.24264069 -704.73642787 318.22790677 -709.3125 303.25 C-709.66441406 302.12722656 -710.01632813 301.00445313 -710.37890625 299.84765625 C-717.26980288 273.29319684 -711.52976585 245.14863304 -698.4140625 221.6328125 C-648.23867204 140.86722116 -530.92480519 109.18671464 -298.80566406 36.87939453 C-252.09880803 25.97424111 -205.08814783 17.29113954 -157.56689453 10.83447266 C-154.13312865 10.36626185 -150.70434527 9.87118551 -147.27734375 9.35546875 C-98.61070523 2.10327681 -49.14151553 -0.03741679 0 0 Z " fill="#212525" transform="translate(3017.3125,1339.75)"/>
<path d="M0 0 C2.2365826 -0.00237524 4.4731441 -0.00768171 6.70972061 -0.01329041 C90.5829487 -0.16753313 174.42352255 13.01858052 254.6595192 37.31007385 C255.42715591 37.53936584 256.19479263 37.76865784 256.98569107 38.00489807 C264.9061075 40.37206325 272.69353711 42.99364525 280.41098404 45.95240784 C284.70622747 47.59567554 289.02446107 49.1344601 293.37851334 50.61451721 C320.51992923 59.87096559 347.64381795 70.80144218 373.11020279 83.99855042 C375.63893104 85.29948205 378.17680655 86.58146388 380.7167244 87.86038208 C398.82305907 96.98710793 416.34055235 106.75745315 433.6595192 117.31007385 C435.37633214 118.34368135 437.09373359 119.3763123 438.81186295 120.4077301 C443.11984234 123.00188776 447.39568003 125.64414147 451.6595192 128.31007385 C452.35561295 128.74013733 453.0517067 129.17020081 453.7688942 129.61329651 C469.80774937 139.57446513 469.80774937 139.57446513 472.6595192 146.31007385 C473.53151339 150.34878382 472.91067834 153.59845627 471.5345192 157.49757385 C469.2659489 160.90042929 466.91326749 162.85168625 463.6595192 165.31007385 C464.09522232 165.95331604 464.53092545 166.59655823 464.9798317 167.2592926 C477.45802408 186.19265377 483.89455209 206.32447458 480.0345192 228.9780426 C476.41547825 241.98397101 469.63345653 254.29345047 460.6595192 264.31007385 C459.97244888 265.12733948 459.28537857 265.9446051 458.57748795 266.78663635 C435.14656543 294.0593858 399.19370441 309.47299514 365.45444107 319.47511292 C362.2613513 320.42902338 359.07788773 321.41217326 355.8938942 322.39601135 C340.27769096 327.18960583 324.59448183 331.50108593 308.7532692 335.4858551 C304.19470604 336.63668927 299.67978393 337.87597432 295.17123795 339.20851135 C285.20558233 342.08715381 275.08391061 344.32322597 264.9720192 346.62257385 C263.38292236 346.98482056 263.38292236 346.98482056 261.76172256 347.35438538 C202.38808572 360.86518828 142.27808377 370.49460886 81.63907242 376.12513733 C79.85046367 376.29223518 78.0623324 376.46442481 76.27426529 376.63722229 C42.93163038 379.85083987 9.48774344 380.69350897 -23.98948288 380.62792969 C-26.89550532 380.62247048 -29.80151957 380.6201161 -32.70754623 380.61805725 C-63.36142328 380.58428406 -93.86698379 379.90986489 -124.44173813 377.53468323 C-127.30613959 377.31273479 -130.17108564 377.09961688 -133.03628159 376.88819885 C-322.3415665 362.73428242 -322.3415665 362.73428242 -384.3404808 303.31007385 C-385.65919174 302.08610901 -385.65919174 302.08610901 -387.0045433 300.8374176 C-410.40445716 278.45919013 -426.4167467 246.33847504 -427.5436058 213.7514801 C-427.72123552 202.59610596 -426.82810508 192.18181493 -424.3404808 181.31007385 C-424.19594467 180.6566803 -424.05140854 180.00328674 -423.90249252 179.33009338 C-421.81130451 170.06448624 -418.65554244 161.75588545 -414.3404808 153.31007385 C-413.88930893 152.39870667 -413.43813705 151.48733948 -412.9732933 150.5483551 C-407.28161223 139.53479145 -399.86833405 129.59749637 -391.4264183 120.5483551 C-389.47603697 118.45553019 -387.62416713 116.30708844 -385.7779808 114.12257385 C-382.27310035 110.11356676 -378.41268022 106.72844718 -374.3404808 103.31007385 C-373.18612534 102.27173401 -373.18612534 102.27173401 -372.00844955 101.2124176 C-357.15133469 88.1825321 -339.84475448 77.42188755 -322.3404808 68.31007385 C-321.7133519 67.98136292 -321.08622299 67.65265198 -320.44009018 67.3139801 C-315.78276892 64.88858686 -311.07347742 62.58348917 -306.3404808 60.31007385 C-305.64664291 59.97040588 -304.95280502 59.63073792 -304.23794174 59.28077698 C-256.09748392 35.85402043 -200.81302065 22.33648002 -148.3404808 13.31007385 C-147.0435228 13.08464905 -145.74656479 12.85922424 -144.41030502 12.62696838 C-122.56450641 8.84999967 -100.70173714 5.64114885 -78.62948227 3.53010559 C-76.33677822 3.30971794 -74.04497278 3.08119085 -71.75307846 2.85255432 C-47.86058295 0.51791923 -23.98868777 0.0216779 0 0 Z M-67.7779808 31.12257385 C-68.83582779 31.20525513 -69.89367477 31.2879364 -70.98357773 31.37312317 C-83.82362582 32.40532798 -96.52092698 33.92652761 -109.23748398 35.97465515 C-112.10652867 36.4322551 -114.98084099 36.85060451 -117.8561058 37.2671051 C-145.01724987 41.28711216 -171.73478515 46.52346535 -198.3404808 53.31007385 C-199.68635737 53.64775739 -201.03238976 53.98482041 -202.37856674 54.32130432 C-268.08177422 70.77792973 -347.39801684 96.40365847 -385.3404808 157.31007385 C-398.08505953 178.81755661 -403.66729489 204.51978246 -397.85512924 229.21168518 C-396.83177016 232.96881917 -395.66302959 236.64789809 -394.3404808 240.31007385 C-393.98759995 241.29137268 -393.98759995 241.29137268 -393.62759018 242.29249573 C-388.99285639 254.7666966 -381.89574966 265.21677914 -373.3404808 275.31007385 C-372.30794174 276.52823792 -372.30794174 276.52823792 -371.2545433 277.77101135 C-332.49028062 322.1330015 -272.48968896 335.19692828 -216.74233627 343.77638245 C-213.56218165 344.27529288 -210.39080629 344.80946121 -207.21938705 345.3608551 C-182.649107 349.58431319 -157.69026227 352.09087183 -132.82656479 353.83912659 C-128.65149242 354.1358248 -124.48130019 354.46564051 -120.31093979 354.82203674 C-94.929242 356.85536829 -69.50670829 356.66391255 -44.0603714 356.62752533 C-40.24660372 356.62253278 -36.43284642 356.62103381 -32.61907578 356.62007141 C-3.15147054 356.6042108 26.28918988 356.47171048 55.7220192 354.93507385 C56.93310349 354.87204071 58.14418777 354.80900757 59.39197159 354.74406433 C70.9830162 354.11575118 82.50091376 353.2516326 94.01181412 351.73927307 C99.16347864 351.13311376 104.30532278 350.8801261 109.4876442 350.65382385 C114.09180623 350.35892436 118.61213421 349.56235377 123.16440201 348.83644104 C127.77895916 348.14148538 132.40600642 347.63412664 137.0435524 347.11940002 C171.8468545 343.20938585 206.41845916 337.08779873 240.72690201 330.10401917 C244.4261847 329.35284638 248.13190552 328.63787026 251.8392067 327.92726135 C300.70439547 318.4119861 353.68537354 305.97212708 398.6595192 284.31007385 C399.34981216 283.98007385 400.04010513 283.65007385 400.75131607 283.31007385 C414.19696659 276.84606158 427.32774904 270.14342812 438.6595192 260.31007385 C439.90668716 259.27946838 439.90668716 259.27946838 441.17905045 258.2280426 C451.27577017 249.62024007 458.37177759 239.88744924 462.6595192 227.31007385 C462.97791763 226.4283551 463.29631607 225.54663635 463.62436295 224.63819885 C467.88946977 211.35150662 466.26548137 198.20326591 460.44467545 185.70069885 C443.69076243 155.20372096 405.16071555 141.43417441 373.8494606 132.21534729 C364.21254521 129.48048717 354.47445551 127.30097089 344.6595192 125.31007385 C343.5448024 125.08384338 343.5448024 125.08384338 342.40756607 124.8530426 C321.08751761 120.55055538 299.714625 116.84783802 278.1595192 113.93507385 C277.26211014 113.81374084 276.36470108 113.69240784 275.44009781 113.56739807 C257.97909635 111.22773249 240.49923672 109.23725602 222.9095192 108.18507385 C222.20816849 108.1430484 221.50681778 108.10102295 220.78421402 108.057724 C191.20827923 106.33488198 161.53519105 106.81399285 132.0345192 109.44728088 C125.41876928 110.03047899 118.80394993 110.49716198 112.1751442 110.89601135 C93.82892072 112.0309377 75.9377375 113.63681093 57.92538834 117.41651917 C56.66976089 117.67529846 55.41413345 117.93407776 54.1204567 118.20069885 C53.03554947 118.43820862 51.95064224 118.67571838 50.83285904 118.92042542 C47.24189226 119.36135348 44.20481119 118.9619916 40.6595192 118.31007385 C40.3295192 116.33007385 39.9995192 114.35007385 39.6595192 112.31007385 C43.79448329 109.46377185 47.93488623 108.30995469 52.77280045 107.2592926 C53.56675217 107.07990646 54.36070389 106.90052032 55.17871475 106.71569824 C57.77435349 106.13289949 60.37283619 105.56434093 62.9720192 104.99757385 C64.78199894 104.59768296 66.59197613 104.19778049 68.40195084 103.79786682 C92.65133133 98.47462496 116.91464422 93.66675863 141.6595192 91.31007385 C142.58466324 91.22192917 143.50980728 91.13378448 144.46298599 91.04296875 C153.44998823 90.26881487 162.3870346 90.16346187 171.39780045 90.17726135 C172.97431325 90.17658564 174.55082596 90.17561339 176.12733841 90.17436218 C179.40573509 90.17289995 182.68410426 90.17499324 185.96249771 90.17970276 C190.14606169 90.18542289 194.32956182 90.18209726 198.51312351 90.17613029 C201.7586197 90.17250476 205.0041009 90.17367201 208.24959755 90.17625809 C209.79203868 90.17692062 211.33448121 90.17612274 212.8769207 90.17377853 C220.20948131 90.16506931 227.39783951 90.19938336 234.6595192 91.31007385 C236.61117567 91.45179296 238.56449243 91.57269629 240.5188942 91.66944885 C277.26667152 93.7096427 312.92568116 100.01759418 348.42490005 109.74098206 C350.82280144 110.35165704 353.22971767 110.84413218 355.6595192 111.31007385 C352.58166302 108.81513456 349.48404219 107.1806881 345.87436295 105.56007385 C344.71847672 105.03985657 343.56259048 104.51963928 342.3716774 103.98365784 C341.11375762 103.42512123 339.85552951 102.86727858 338.5970192 102.31007385 C337.95259872 102.02350922 337.30817825 101.73694458 336.64422989 101.44169617 C312.06147428 90.5208587 287.11478708 80.97134585 261.6595192 72.31007385 C261.01110062 72.0883551 260.36268204 71.86663635 259.69461441 71.63819885 C209.2739501 54.40510557 157.18458235 42.33989862 104.3470192 35.56007385 C103.5613356 35.45902344 102.77565201 35.35797302 101.96615982 35.25386047 C45.93698001 28.11620713 -11.48765168 26.69809642 -67.7779808 31.12257385 Z " fill="#202424" transform="translate(2751.3404808044434,260.68992614746094)"/>
<path d="M0 0 C1.96360294 -0.00706562 3.92720564 -0.01419829 5.89080811 -0.02139282 C12.13163634 -0.04091433 18.37242534 -0.04608505 24.61328125 -0.046875 C25.67788197 -0.04716957 26.74248268 -0.04746414 27.83934402 -0.04776764 C59.96173017 -0.04920338 91.92126034 0.16951804 123.92578125 3.203125 C125.02017517 3.3049408 126.11456909 3.40675659 127.24212646 3.51165771 C158.27400438 6.41147269 189.19002578 10.01063839 219.92578125 15.203125 C220.70685242 15.33440796 221.48792358 15.46569092 222.29266357 15.60095215 C259.82731623 21.93348852 298.01071711 29.37036426 333.92578125 42.203125 C334.99570313 42.57953125 336.065625 42.9559375 337.16796875 43.34375 C355.41939256 50.03742621 372.10000294 59.62138456 386.92578125 72.203125 C387.68375 72.81542969 388.44171875 73.42773438 389.22265625 74.05859375 C404.32528937 86.68751972 415.51575891 106.44112155 417.74047852 126.09008789 C418.70413508 137.07881988 418.44054917 147.67390608 414.92578125 158.203125 C414.63574219 159.12351562 414.34570312 160.04390625 414.046875 160.9921875 C404.10364282 190.53065965 378.7360373 209.63257583 351.92578125 223.203125 C279.50008822 258.68432267 191.85532166 270.69102348 22.42224121 301.12393188 C14.6739091 302.22280918 6.95764864 303.47847488 -0.76171875 304.765625 C-9.77392538 306.25129731 -18.76891284 307.62998357 -27.85986328 308.53759766 C-33.14902791 309.0713895 -38.38457368 309.82159214 -43.63671875 310.640625 C-60.48928141 313.24718555 -77.43106489 315.12013022 -94.41015625 316.67578125 C-101.07329538 317.28814069 -107.72947175 317.96772904 -114.38671875 318.640625 C-124.37240491 319.64320393 -134.35934395 320.63090655 -144.35043335 321.57815552 C-146.21203484 321.75496981 -148.07343172 321.93393456 -149.93481445 322.11303711 C-170.36785734 324.03609886 -190.83048031 325.45249783 -211.32470703 326.52587891 C-214.62297008 326.69912004 -217.92085627 326.87847536 -221.21875 327.05859375 C-227.34204302 327.38837481 -233.46640514 327.69274474 -239.59152222 327.9864502 C-242.78197635 328.13955133 -245.97209637 328.29841411 -249.16213989 328.45983887 C-279.67796939 329.99183448 -310.13163915 330.52365031 -340.68432617 330.46386719 C-346.65364148 330.45229574 -352.62278026 330.45919095 -358.59208965 330.47101212 C-363.29980265 330.47829147 -368.00747465 330.4759181 -372.71518898 330.47075653 C-374.91674637 330.46944599 -377.11830779 330.47097365 -379.31986046 330.47571564 C-397.02604043 330.50561533 -414.69826923 329.76455835 -432.13671875 326.453125 C-433.48467529 326.20042847 -433.48467529 326.20042847 -434.85986328 325.94262695 C-462.76720054 320.4574254 -486.99501975 309.38461218 -508.07421875 290.203125 C-508.79867188 289.57277344 -509.523125 288.94242188 -510.26953125 288.29296875 C-524.79851896 274.91100638 -536.94233516 252.81523363 -538.21459961 233.01879883 C-538.88674599 216.31570977 -536.84970276 202.18404288 -529.07421875 187.203125 C-528.64496094 186.32527344 -528.21570312 185.44742188 -527.7734375 184.54296875 C-520.10232331 169.52487196 -508.16886517 157.24595245 -496.38671875 145.390625 C-495.75677002 144.75592285 -495.12682129 144.1212207 -494.4777832 143.46728516 C-490.82638017 139.82887301 -487.08701749 136.43925302 -483.07421875 133.203125 C-483.40421875 132.213125 -483.73421875 131.223125 -484.07421875 130.203125 C-484.34765625 127.93359375 -484.34765625 127.93359375 -484.44921875 125.390625 C-484.49820312 124.55917969 -484.5471875 123.72773438 -484.59765625 122.87109375 C-483.83089678 118.96290928 -482.06160895 116.69261684 -479.07421875 114.203125 C-475.25056007 111.90533771 -471.25242493 110.05862107 -467.19921875 108.203125 C-466.01392578 107.6477002 -464.82863281 107.09227539 -463.60742188 106.52001953 C-460.42335505 105.03077908 -457.22996254 103.56273903 -454.0333252 102.10070801 C-452.09018692 101.21044097 -450.14971167 100.31461341 -448.20996094 99.41699219 C-381.62363155 68.63147941 -311.66847504 45.20450409 -240.07421875 29.203125 C-239.22529053 29.0131897 -238.3763623 28.82325439 -237.50170898 28.62756348 C-182.44856986 16.36015298 -125.71362583 6.20869481 -69.28515625 3.44921875 C-63.25386906 3.13170557 -57.24136171 2.53544553 -51.23095703 1.95092773 C-34.19411253 0.37113629 -17.09928162 0.03818991 0 0 Z M-67.07421875 31.515625 C-67.78773121 31.56924446 -68.50124367 31.62286392 -69.23637772 31.67810822 C-84.91098603 32.86219662 -100.44832256 34.52440306 -115.98651123 36.89724731 C-120.68599163 37.58578542 -125.41286186 38.03185652 -130.13671875 38.515625 C-146.89246897 40.32963412 -163.47693375 43.31548323 -180.07421875 46.203125 C-180.07421875 46.533125 -180.07421875 46.863125 -180.07421875 47.203125 C-178.18703125 47.6053125 -178.18703125 47.6053125 -176.26171875 48.015625 C-173.9309024 48.61686031 -172.19541001 49.12884649 -170.13671875 50.390625 C-168.39419681 53.36316243 -168.13323442 55.78021594 -168.07421875 59.203125 C-169.34521484 61.89428711 -169.34521484 61.89428711 -172.07421875 64.203125 C-175.93418793 64.94177236 -179.75716255 64.82812193 -183.67578125 64.76953125 C-185.42792686 64.77546799 -185.42792686 64.77546799 -187.21546936 64.78152466 C-189.73171685 64.78980264 -192.24801242 64.78815754 -194.76425171 64.77767944 C-201.38777925 64.75738882 -208.0098662 64.83198127 -214.6328125 64.9140625 C-215.29584948 64.92188688 -215.95888645 64.92971127 -216.64201546 64.93777275 C-256.40544813 65.43368021 -294.33682842 71.60893607 -332.07421875 84.203125 C-333.99549537 84.83361524 -335.91779118 85.4609231 -337.84020996 86.08792114 C-351.70449267 90.61254325 -365.48452616 95.3441475 -379.1640625 100.40234375 C-383.03247391 101.83136621 -386.91897684 103.19520198 -390.82006836 104.53198242 C-423.14846443 115.6713965 -457.04288506 132.915312 -483.07421875 155.203125 C-484.41806641 156.33814453 -484.41806641 156.33814453 -485.7890625 157.49609375 C-500.93156718 170.67870569 -517.54763942 190.10857428 -519.07421875 211.203125 C-520.34903412 232.33694634 -516.31736494 250.15649146 -502.28125 266.7421875 C-501.18876953 267.96035156 -501.18876953 267.96035156 -500.07421875 269.203125 C-499.27371094 270.09773437 -498.47320313 270.99234375 -497.6484375 271.9140625 C-474.34141546 296.56771248 -439.3319668 305.80236312 -406.29399109 307.3841095 C-402.51606927 307.44783287 -398.74323163 307.4545273 -394.96484375 307.43359375 C-393.56186949 307.43286099 -392.15889463 307.43292356 -390.75592041 307.43371582 C-387.04522478 307.43288598 -383.33470218 307.4188951 -379.62405396 307.40096664 C-377.29876806 307.39051056 -374.97349465 307.38340099 -372.64819336 307.37734985 C-289.64898638 307.15745553 -206.44295883 303.26321655 -123.9405365 293.93556213 C-118.02357294 293.27737742 -112.10746934 292.81447982 -106.16625977 292.42724609 C-101.36424351 292.07918049 -96.59976288 291.49440597 -91.82421875 290.890625 C-89.67065549 290.6243314 -87.51700427 290.35874842 -85.36328125 290.09375 C-83.63126465 289.88008789 -83.63126465 289.88008789 -81.86425781 289.66210938 C-77.67297624 289.15453341 -73.4795263 288.66873198 -69.28515625 288.1875 C-67.764643 288.01217281 -66.24413519 287.83679842 -64.72363281 287.66137695 C-62.4851895 287.4031943 -60.24666093 287.14599802 -58.00769043 286.89242554 C-50.59964171 286.0524603 -43.26290981 285.11161412 -35.9375 283.70068359 C-31.86067404 282.9922447 -27.7605934 282.52573047 -23.65301514 282.03265381 C-14.4696562 280.91138499 -5.3377949 279.45071439 3.80078125 278.015625 C4.77054901 277.86383789 5.74031677 277.71205078 6.73947144 277.55566406 C37.2194939 272.78095584 67.65550862 267.87152843 97.90827942 261.80456543 C104.0659399 260.57015364 110.22776966 259.35798562 116.39097595 258.15158081 C144.28368295 252.68753804 172.10199425 247.07493789 199.6965332 240.24169922 C204.41415536 239.07715187 209.1426315 237.95940079 213.87109375 236.83984375 C297.28711076 219.87722558 297.28711076 219.87722558 369.92578125 178.203125 C370.99892578 177.27113281 370.99892578 177.27113281 372.09375 176.3203125 C383.13379257 166.11307778 389.79319293 152.43405861 390.39428711 137.43652344 C390.60091907 121.96315341 384.44812146 109.49539254 373.92578125 98.203125 C355.32500908 79.55573436 329.66338979 70.33506951 304.92578125 63.203125 C303.93232193 62.91405273 303.93232193 62.91405273 302.91879272 62.61914062 C291.73640841 59.37771285 280.51610217 56.66882407 269.11328125 54.328125 C268.30386078 54.16048645 267.49444031 53.9928479 266.66049194 53.82012939 C261.57597676 52.76730982 256.48858551 51.72943564 251.39880371 50.70239258 C249.02096622 50.22234147 246.64377345 49.73919368 244.26660156 49.25585938 C221.5527667 44.65750844 198.75850267 41.16195849 175.78497314 38.13316345 C171.28553231 37.53643935 166.8067476 36.87286879 162.328125 36.1328125 C154.0941926 34.83725449 145.79352312 34.27871168 137.48828125 33.640625 C135.06933185 33.45232065 132.65051865 33.26257742 130.23191833 33.06983948 C128.74178842 32.95131371 127.25144996 32.83536958 125.76087952 32.72251892 C121.7669084 32.40733103 117.87422477 31.86488481 113.92578125 31.203125 C112.14914827 31.0768503 110.36990717 30.9830657 108.58984375 30.921875 C107.11644531 30.86580078 107.11644531 30.86580078 105.61328125 30.80859375 C104.60265625 30.77378906 103.59203125 30.73898437 102.55078125 30.703125 C100.54285395 30.63344115 98.53503401 30.56058314 96.52734375 30.484375 C95.20210693 30.43893555 95.20210693 30.43893555 93.85009766 30.39257812 C90.92578125 30.203125 90.92578125 30.203125 87.35472107 29.70333862 C82.61139562 29.10351577 77.91477995 29.03332631 73.13842773 29.01025391 C72.18680756 29.00219821 71.23518738 28.99414251 70.25473022 28.9858427 C67.10212094 28.96136215 63.94954242 28.944799 60.796875 28.9296875 C59.70025103 28.92347067 58.60362705 28.91725384 57.47377205 28.91084862 C49.10362767 28.86475139 40.73353522 28.84207119 32.36328125 28.828125 C30.52455444 28.8244523 30.52455444 28.8244523 28.64868164 28.82070541 C-3.32746055 28.76564673 -35.18095978 29.08291157 -67.07421875 31.515625 Z " fill="#202424" transform="translate(1735.07421875,326.796875)"/>
<path d="M0 0 C2.58293674 -0.00694186 5.16587335 -0.0139369 7.74880981 -0.02098083 C15.32968571 -0.03944992 22.91054709 -0.04470881 30.49144316 -0.04631376 C32.62414933 -0.04687581 34.75685478 -0.04794176 36.8895607 -0.0491066 C75.50868492 -0.06759396 114.10212041 0.20328347 152.70569992 1.42073059 C155.74145548 1.51548023 158.77732874 1.60514721 161.81326294 1.69396973 C166.51722128 1.83370037 171.22031171 1.99010935 175.92321396 2.16169548 C177.62116706 2.22227338 179.31927648 2.27864406 181.0175209 2.33041573 C183.31022011 2.40218147 185.60148154 2.49195401 187.89331055 2.5871582 C189.80239449 2.65710747 189.80239449 2.65710747 191.75004578 2.72846985 C195.26529737 3.23277938 197.23491139 4.08469596 200.05859375 6.203125 C201.22202602 8.52998953 201.25755363 10.05033913 201.30859375 12.640625 C201.334375 13.42308594 201.36015625 14.20554687 201.38671875 15.01171875 C200.96861215 17.80407352 200.28558805 18.49969913 198.05859375 20.203125 C195.68373108 20.55163574 195.68373108 20.55163574 192.81274414 20.51367188 C191.71925156 20.50662231 190.62575897 20.49957275 189.49913025 20.49230957 C188.29285477 20.46906616 187.08657928 20.44582275 185.84375 20.421875 C183.9255117 20.40296204 183.9255117 20.40296204 181.96852112 20.38366699 C178.41514664 20.34834667 174.86226494 20.29424128 171.30918121 20.23724365 C167.50556609 20.17958128 163.70176518 20.1395224 159.89794922 20.09765625 C153.29715387 20.02273228 146.69653925 19.93820766 140.09594727 19.84716797 C89.24877015 19.14793761 38.40597597 18.69693843 -12.44140625 19.640625 C-13.51075409 19.6601825 -14.58010193 19.67973999 -15.68185425 19.69989014 C-26.09714064 19.89797408 -36.50450729 20.17814034 -46.91015625 20.67578125 C-47.70691772 20.71287704 -48.5036792 20.74997284 -49.32458496 20.78819275 C-52.97040815 20.9768042 -56.57241785 21.25213385 -60.19360352 21.72070312 C-63.1381146 22.09972429 -65.97602815 22.35737818 -68.9375 22.44921875 C-70.25693604 22.4965918 -70.25693604 22.4965918 -71.60302734 22.54492188 C-72.51906738 22.57650391 -73.43510742 22.60808594 -74.37890625 22.640625 C-81.94426623 22.93874237 -89.39122085 23.49529839 -96.8972168 24.47460938 C-101.49571527 25.06549318 -106.05693128 25.41216497 -110.69140625 25.640625 C-119.56699651 26.13225018 -128.27857267 27.45007894 -137.06054688 28.78393555 C-140.37217782 29.26580591 -143.68902743 29.69520238 -147.0078125 30.125 C-155.47430239 31.24544731 -163.89443598 32.60211218 -172.31640625 34.015625 C-173.10397308 34.14762299 -173.89153992 34.27962097 -174.70297241 34.4156189 C-207.60121857 39.9473511 -241.00194398 46.21039539 -272.78271484 56.51904297 C-275.04068659 57.23458661 -277.30895027 57.89839398 -279.5859375 58.55078125 C-308.92212516 66.98061755 -338.90172609 77.62507306 -365.87548828 92.09570312 C-367.39325033 92.90928959 -368.91577505 93.71400717 -370.44091797 94.51367188 C-395.10540122 107.44689129 -417.91419504 122.77244258 -437.94140625 142.203125 C-438.48780762 142.72374512 -439.03420898 143.24436523 -439.59716797 143.78076172 C-466.18560305 169.13575243 -485.80837218 203.03060395 -487.14453125 240.47265625 C-487.78075271 276.89333363 -474.28049071 309.17435115 -449.484375 335.58203125 C-446.99477265 338.14811908 -444.47155703 340.67710171 -441.94140625 343.203125 C-441.35359375 343.82574219 -440.76578125 344.44835938 -440.16015625 345.08984375 C-406.47059062 380.38732046 -353.82051599 395.4250472 -306.94140625 401.203125 C-305.69222412 401.37231445 -304.44304199 401.54150391 -303.15600586 401.71582031 C-288.84424299 403.5326014 -274.53013511 403.59831158 -260.12188339 403.58048248 C-257.97778456 403.57809592 -255.83370516 403.57920136 -253.68960571 403.58050537 C-229.13091494 403.57732689 -204.64879265 402.66082643 -180.12890625 401.328125 C-179.32095234 401.28449577 -178.51299843 401.24086655 -177.68056107 401.19591522 C-162.07142345 400.34942582 -146.4760612 399.44791421 -130.91470337 397.93774414 C-120.21062689 396.90885934 -109.47994042 396.26499122 -98.74993896 395.57122803 C-74.13009557 393.97349546 -49.54908135 392.08852947 -24.97518921 389.89994812 C-19.34200507 389.4018227 -13.70661374 388.94622588 -8.0683136 388.51005554 C5.98872455 387.41923774 20.0140573 386.0746414 34.04125977 384.65356445 C37.8573206 384.26702014 41.67373751 383.88416597 45.49023438 383.50195312 C78.25991447 380.29944611 78.25991447 380.29944611 110.93359375 376.265625 C113.13929005 375.9646028 115.34502148 375.66383803 117.55078125 375.36328125 C119.42854248 375.10502563 119.42854248 375.10502563 121.34423828 374.84155273 C125.08833677 374.33065181 128.83465859 373.83793497 132.58154297 373.34790039 C150.89845585 370.94575776 169.17441878 368.32590178 187.43359375 365.515625 C188.12990276 365.40864288 188.82621178 365.30166077 189.54362106 365.19143677 C216.16236967 361.09829555 242.64782611 356.48393153 269.05859375 351.203125 C271.02294578 350.81297098 272.98730129 350.42283445 274.95166016 350.03271484 C304.94696984 344.05412249 334.70887368 337.21717774 364.39526367 329.86260986 C366.85995766 329.2523106 369.32536753 328.64500493 371.79101562 328.03857422 C427.58756031 315.17967336 427.58756031 315.17967336 476.05859375 286.203125 C476.73664062 285.6771875 477.4146875 285.15125 478.11328125 284.609375 C489.80500888 275.32878186 497.34458875 260.72263677 500.05859375 246.203125 C502.59538373 221.6267484 493.9792173 200.36564483 479.05859375 181.203125 C476.5465637 178.28065737 473.97611763 175.43978367 471.3359375 172.6328125 C469.45199157 170.62283931 467.67903896 168.58171672 465.93359375 166.453125 C462.6496794 162.60832169 458.94623873 159.4244912 455.05859375 156.203125 C454.56810547 155.78434082 454.07761719 155.36555664 453.57226562 154.93408203 C389.02530323 99.9215837 294.38329214 75.98903369 212.05859375 64.203125 C210.94806641 64.0371582 209.83753906 63.87119141 208.69335938 63.70019531 C170.61366966 58.07790317 132.24500503 56.92299768 93.80859375 56.953125 C93.0732415 56.95339188 92.33788925 56.95365875 91.5802536 56.95393372 C65.94263931 56.968711 40.2614761 57.25806797 14.68359375 59.140625 C13.56984375 59.21474609 12.45609375 59.28886719 11.30859375 59.36523438 C4.62759128 59.83751214 -1.9926917 60.55172217 -8.6342926 61.4143219 C-16.15604252 62.38194204 -23.69882184 63.10543082 -31.24673462 63.83502197 C-44.8431191 65.15336899 -58.43155897 66.53815436 -72.00521851 68.0737915 C-73.48263281 68.2408916 -74.96018907 68.40674233 -76.43789673 68.57122803 C-83.71657057 69.38377303 -90.92668519 70.32215952 -98.12231445 71.70068359 C-103.3293324 72.62872057 -108.57828063 73.26096482 -113.8236084 73.93164062 C-117.63733362 74.42052903 -121.44934916 74.92254519 -125.26171875 75.421875 C-126.88540843 75.63417756 -128.50910642 75.84641663 -130.1328125 76.05859375 C-131.35121826 76.21787354 -131.35121826 76.21787354 -132.59423828 76.38037109 C-134.24587104 76.59600002 -135.89756413 76.81116735 -137.54931641 77.02587891 C-150.10797436 78.65922321 -162.6295618 80.39620993 -175.0949707 82.64892578 C-185.05032683 84.44762384 -195.00728857 85.95880906 -205.05224609 87.16381836 C-210.3165862 87.806452 -215.47046247 88.64816989 -220.65356445 89.77734375 C-225.576497 90.69353139 -230.12891908 91.38124166 -234.44140625 88.578125 C-236.31640153 85.60938247 -236.94140625 83.72793854 -236.94140625 80.203125 C-235.75390625 77.515625 -235.75390625 77.515625 -232.94140625 75.203125 C-224.92741123 72.57930052 -216.46399462 71.30958792 -208.1640625 69.93359375 C-206.97128189 69.73201157 -205.77850128 69.53042938 -204.54957581 69.32273865 C-200.70181624 68.67385146 -196.85293444 68.03194041 -193.00390625 67.390625 C-191.00435295 67.0555096 -189.00490843 66.71975073 -187.00547409 66.38392639 C-179.81544789 65.17642503 -172.62401172 63.97758126 -165.43182373 62.78302002 C-162.29956323 62.2626289 -159.16755503 61.74075421 -156.03564453 61.21826172 C-137.23100636 58.08516159 -118.41242046 55.17517044 -99.51123047 52.67529297 C-95.76982785 52.18043093 -92.02939305 51.67867887 -88.2890625 51.17578125 C-82.22099269 50.36165644 -76.152802 49.54870193 -70.08251953 48.7512207 C-66.99622234 48.3451941 -63.91183033 47.92633321 -60.82763672 47.50463867 C-46.18709156 45.52294561 -31.52692288 43.997591 -16.81640625 42.640625 C-15.65808289 42.53262573 -14.49975952 42.42462646 -13.30633545 42.31335449 C4.13095044 40.68950706 21.56702381 39.1143653 39.05859375 38.203125 C39.78632996 38.16182465 40.51406616 38.12052429 41.26385498 38.07797241 C58.56167443 37.11065585 75.85100042 37.01547713 93.16992188 37.01782227 C96.32785828 37.0179031 99.48564827 37.01100989 102.64355469 36.99731445 C129.00546649 36.88486431 155.4044229 37.30495506 181.578125 40.7734375 C185.03322023 41.19999247 188.45857241 41.4425052 191.93359375 41.640625 C198.20607396 42.04783613 204.31939959 42.95455391 210.51220703 43.98730469 C214.59966709 44.66601949 218.67760691 45.3000465 222.79296875 45.78515625 C264.24850125 50.71631718 304.79710616 61.82321767 344.12512207 75.52935791 C345.89868193 76.14739968 347.67340583 76.76209841 349.44824219 77.37646484 C367.72268593 83.73113409 385.54644955 91.08516774 402.72607422 100 C405.45481842 101.40749963 408.19628496 102.78882527 410.9375 104.171875 C429.06482556 113.37889731 446.28881707 123.31534097 462.05859375 136.203125 C462.5808252 136.62384277 463.10305664 137.04456055 463.64111328 137.47802734 C490.8049976 159.41523407 514.81337668 188.61292952 520.05859375 224.203125 C520.29415665 228.40970729 520.2894674 232.61554605 520.30859375 236.828125 C520.32921875 237.94058594 520.34984375 239.05304688 520.37109375 240.19921875 C520.42200594 251.13261207 518.20307683 260.8741227 513.43359375 270.703125 C513.08586914 271.4252417 512.73814453 272.1473584 512.37988281 272.89135742 C496.89167455 303.99557584 464.50841022 321.0541268 433.05859375 332.203125 C431.93710938 332.61691406 430.815625 333.03070312 429.66015625 333.45703125 C416.07071379 338.25610009 402.00466573 341.61766917 388.05859375 345.203125 C387.0936499 345.45187378 386.12870605 345.70062256 385.13452148 345.95690918 C317.10521188 363.48171718 248.59823708 377.25681349 179.14746094 387.73095703 C175.96203322 388.21788536 172.77972599 388.72208227 169.59765625 389.23046875 C157.43509334 391.16253309 145.28212093 392.85660888 133.03515625 394.16430664 C126.99819538 394.81730587 121.04255165 395.680904 115.05908203 396.71240234 C110.0363144 397.53386393 104.98828436 398.11641984 99.93359375 398.703125 C98.45246094 398.87908203 98.45246094 398.87908203 96.94140625 399.05859375 C80.75785888 400.96858094 64.55459632 402.69417993 48.34643555 404.38037109 C45.26013417 404.70166335 42.17400861 405.02460776 39.08789062 405.34765625 C29.27399078 406.37211687 19.45829891 407.37594267 9.63671875 408.32421875 C8.80750412 408.40526855 7.97828949 408.48631836 7.12394714 408.56982422 C0.9479276 409.15842412 -5.22995882 409.57275852 -11.4271698 409.86083984 C-15.33895897 410.05401916 -19.08294048 410.55920894 -22.94140625 411.203125 C-25.43959694 411.37722457 -27.94006373 411.51998939 -30.44140625 411.640625 C-36.68765449 411.96734047 -42.90326014 412.44933164 -49.12890625 413.046875 C-64.50274766 414.47926599 -79.89729591 415.66099183 -95.29052734 416.86254883 C-98.72463205 417.13075808 -102.1585375 417.40133027 -105.59228516 417.67407227 C-122.61521262 419.02577298 -139.61511169 420.35973441 -156.68164062 421.02124023 C-161.95380548 421.22942412 -167.19156753 421.68611442 -172.44140625 422.203125 C-183.06863154 423.17247919 -193.68710606 423.58716319 -204.3515625 423.86132812 C-209.89937934 424.00874842 -215.40205351 424.21554159 -220.9296875 424.71875 C-230.74691387 425.5229041 -240.59810628 425.40025279 -250.44140625 425.390625 C-251.48264648 425.39035309 -252.52388672 425.39008118 -253.59667969 425.38980103 C-270.46094242 425.36957504 -287.15300026 424.92012107 -303.94140625 423.203125 C-304.91722656 423.10660645 -305.89304687 423.01008789 -306.8984375 422.91064453 C-357.53777016 417.69424507 -407.67410783 401.57722697 -446.94140625 368.203125 C-448.02540852 367.3143314 -449.11009448 366.42637127 -450.1953125 365.5390625 C-480.83138088 340.22822985 -504.44713518 304.0776644 -509.94140625 264.203125 C-510.32827502 258.96921167 -510.38023853 253.76055008 -510.31640625 248.515625 C-510.3114212 247.82068939 -510.30643616 247.12575378 -510.30130005 246.40975952 C-510.0861897 220.70131505 -504.52521619 197.73814865 -491.94140625 175.203125 C-491.59352051 174.57212891 -491.24563477 173.94113281 -490.88720703 173.29101562 C-477.12397069 148.57388089 -456.39426047 126.19614798 -433.66845703 109.47705078 C-431.90042714 108.17289755 -430.15278405 106.84448658 -428.40625 105.51171875 C-394.53883942 79.88837897 -355.74187859 62.43164459 -315.94140625 48.203125 C-315.3039447 47.97496094 -314.66648315 47.74679687 -314.00970459 47.51171875 C-291.99620781 39.66092968 -269.68236521 33.34505759 -247.00537109 27.71618652 C-245.12374095 27.24844986 -243.24343642 26.7753886 -241.36328125 26.30175781 C-163.24724226 6.7491623 -80.32199591 0.13499123 0 0 Z " fill="#212525" transform="translate(2836.94140625,818.796875)"/>
<path d="M0 0 C3.74749706 -0.00434408 7.49475863 -0.01810112 11.2421875 -0.04101562 C35.71438418 -0.18753725 59.91196823 0.6003896 84.29922676 2.68521595 C90.52590474 3.2172573 96.75573547 3.66255447 102.99119568 4.07791138 C120.51732399 5.24674831 137.6821941 7.2544703 155.01074219 10.11914062 C159.78061787 10.90406555 164.55515276 11.63454714 169.33886719 12.33007812 C255.51772273 24.98138193 255.51772273 24.98138193 264.67480469 36.42773438 C266.27334736 40.02445539 266.4045245 42.33394449 265.92480469 46.24023438 C263.68456208 50.55477569 261.55111444 53.56688829 256.92480469 55.24023438 C249.00731897 55.09663426 241.13077873 53.52284336 233.35839844 52.13085938 C230.92555161 51.70377482 228.49268971 51.2767761 226.05981445 50.84985352 C224.17324631 50.5163237 224.17324631 50.5163237 222.24856567 50.17605591 C195.6600119 45.48282216 195.6600119 45.48282216 168.98730469 41.30273438 C167.81804443 41.12838867 166.64878418 40.95404297 165.4440918 40.77441406 C143.80433677 37.67500552 122.02319329 35.71225261 100.24194336 33.93261719 C96.33308567 33.61284405 92.42483299 33.28631428 88.51660156 32.95898438 C85.96389983 32.74765221 83.41116651 32.53670113 80.85839844 32.32617188 C79.72357529 32.23137543 78.58875214 32.13657898 77.41954041 32.03890991 C60.74305214 30.68491638 44.16222649 30.06986726 27.43261719 30.03710938 C26.43493191 30.034282 25.43724663 30.03145462 24.40932846 30.02854156 C19.11581931 30.01366643 13.82233652 30.00436683 8.52880859 30 C4.24161131 29.99564358 -0.04538153 29.98184516 -4.33251953 29.95898438 C-29.41799416 29.82787063 -54.14317675 30.36622584 -79.1076355 32.88217163 C-84.8817383 33.40327054 -90.66230669 33.72476407 -96.45098877 34.03390503 C-103.6946157 34.44629124 -110.87681377 35.3564243 -118.07519531 36.24023438 C-118.91195801 36.34062012 -119.7487207 36.44100586 -120.61083984 36.54443359 C-163.59878067 41.73497752 -205.94231412 50.38951017 -248.07519531 60.24023438 C-249.26064941 60.51722168 -250.44610352 60.79420898 -251.66748047 61.07958984 C-318.58015787 76.88484344 -398.64792658 97.02378989 -449.07519531 146.24023438 C-450.00847656 147.10003906 -450.94175781 147.95984375 -451.90332031 148.84570312 C-470.67010229 166.59027212 -481.80798888 190.64807829 -482.59423828 216.40039062 C-482.75233112 229.68729436 -481.37175584 241.66723157 -477.07519531 254.24023438 C-476.85057617 254.91296387 -476.62595703 255.58569336 -476.39453125 256.27880859 C-469.71865752 275.75739506 -458.12047177 292.35569711 -444.07519531 307.24023438 C-443.41390625 307.96597656 -442.75261719 308.69171875 -442.07128906 309.43945312 C-431.52872741 320.5821606 -418.59138488 329.14487988 -405.07519531 336.24023438 C-404.15601318 336.73450928 -404.15601318 336.73450928 -403.21826172 337.23876953 C-352.39868082 364.47889864 -293.06620178 366.47683652 -236.76269531 366.49023438 C-235.90914207 366.49067623 -235.05558884 366.49111809 -234.17617035 366.49157333 C-208.56676182 366.49850807 -183.14744302 366.13872684 -157.65161133 363.50317383 C-154.83476411 363.21569686 -152.01673344 362.94274773 -149.19824219 362.671875 C-128.36292673 360.66180703 -107.57618329 358.58129247 -86.98339844 354.75830078 C-82.4137679 353.94426821 -77.82613676 353.2505918 -73.23950195 352.53979492 C-66.510054 351.48754481 -59.79152289 350.37288927 -53.07519531 349.24023438 C-51.7998291 349.02625 -50.52446289 348.81226563 -49.21044922 348.59179688 C-1.8806869 340.46138425 45.1515067 327.63918125 90.92480469 313.24023438 C91.86372559 312.94610657 92.80264648 312.65197876 93.77001953 312.34893799 C174.90689967 287.04055196 174.90689967 287.04055196 244.92480469 240.24023438 C246.02695313 239.26376953 246.02695313 239.26376953 247.15136719 238.26757812 C257.41479339 228.65881491 266.10419715 216.45039048 270.92480469 203.24023438 C271.42947266 201.86931641 271.42947266 201.86931641 271.94433594 200.47070312 C276.85422856 184.44068839 274.99578768 165.55040688 267.48730469 150.74023438 C252.88667885 123.80280661 221.78480015 108.68268427 193.70214844 99.90039062 C178.86921456 95.50116201 163.6020841 92.57910258 148.36230469 89.99023438 C147.02848755 89.76364136 147.02848755 89.76364136 145.66772461 89.5324707 C129.67364518 86.95334357 113.51680912 85.67496743 97.36230469 84.61523438 C96.36677582 84.54953247 95.37124695 84.48383057 94.34555054 84.4161377 C78.13917674 83.37508074 61.97574198 82.96414298 45.73730469 82.99023438 C44.73238983 82.99110046 43.72747498 82.99196655 42.69210815 82.99285889 C32.40992096 83.01588588 22.14515569 83.20326143 11.87402344 83.69335938 C11.05811234 83.73160828 10.24220123 83.76985718 9.40156555 83.80926514 C5.17073681 84.03442507 1.10179162 84.49290186 -3.07519531 85.24023438 C-5.76417854 85.39008483 -8.44714662 85.5123297 -11.13769531 85.61523438 C-17.78176291 85.92799617 -24.2993688 86.5910777 -30.87597656 87.57617188 C-32.2314711 87.77481842 -32.2314711 87.77481842 -33.61434937 87.97747803 C-36.43545145 88.39308832 -39.2554406 88.81558603 -42.07519531 89.24023438 C-42.95156647 89.37153748 -43.82793762 89.50284058 -44.73086548 89.63812256 C-82.47838846 95.31139636 -120.16438186 101.7714392 -156.94799805 112.1496582 C-162.85918832 113.81254084 -167.93808787 115.04510092 -174.07519531 114.24023438 C-177.51472561 112.09052794 -177.96564197 110.67844776 -178.95019531 106.74023438 C-179.12876674 101.74023437 -179.12876674 101.74023437 -177.07519531 99.24023438 C-172.75268952 96.80095964 -168.42617695 95.36041885 -163.63378906 94.18945312 C-162.56599213 93.92044189 -162.56599213 93.92044189 -161.47662354 93.64599609 C-159.15727828 93.06498332 -156.83530642 92.49554062 -154.51269531 91.92773438 C-153.71441315 91.7304776 -152.91613098 91.53322083 -152.09365845 91.32998657 C-136.83303909 87.56208044 -121.51352552 84.20516499 -106.07519531 81.24023438 C-105.11000977 81.05122559 -104.14482422 80.8622168 -103.15039062 80.66748047 C-90.77432936 78.2664465 -78.33658998 76.55653847 -65.82519531 75.05273438 C-64.78427231 74.92544952 -64.78427231 74.92544952 -63.72232056 74.79559326 C-45.65788958 72.60815694 -27.62798191 72.07960005 -9.44628906 72.07226562 C-7.51790851 72.06903638 -5.58952817 72.0656712 -3.66114807 72.06217957 C0.35326707 72.05624712 4.36766088 72.0543335 8.38208008 72.05493164 C12.43974273 72.05501278 16.49729218 72.04808041 20.55493164 72.03442383 C62.59765748 71.89495012 62.59765748 71.89495012 83.36473083 73.99583435 C86.97750828 74.34073178 90.59546499 74.58274026 94.21607971 74.8290863 C129.19255243 77.24427712 166.64681004 83.01593586 199.92480469 94.24023438 C200.80104492 94.52479492 201.67728516 94.80935547 202.58007812 95.10253906 C234.69808881 105.54170387 264.26271847 121.26892276 280.49121094 152.22851562 C288.9378984 170.05480826 291.41292523 192.35106072 284.92480469 211.24023438 C271.61663365 247.44328543 241.30329187 269.7919485 208.92480469 288.24023438 C208.23660645 288.63662109 207.5484082 289.03300781 206.83935547 289.44140625 C186.02353255 301.33027517 163.24018295 309.70389774 140.86181641 318.12597656 C138.19862836 319.13634982 135.54632282 320.16956007 132.89746094 321.21679688 C109.40605726 330.45520215 85.20847465 338.35845102 60.92480469 345.24023438 C59.04849365 345.77680664 59.04849365 345.77680664 57.13427734 346.32421875 C10.09468331 359.75804783 -37.47410636 370.66642896 -85.87573242 377.90881348 C-88.0557537 378.23730486 -90.23454505 378.57297308 -92.41308594 378.91113281 C-125.68835561 384.06723998 -159.14212258 387.27761773 -192.76660156 389.0065918 C-195.32305329 389.18712045 -197.83731058 389.43247872 -200.38061523 389.73046875 C-218.4713963 391.79577076 -236.83952331 391.42827293 -255.02270508 391.42553711 C-257.84047893 391.42545602 -260.6580896 391.43239276 -263.47583008 391.44604492 C-287.5252624 391.56044386 -311.48337807 390.90579997 -335.26269531 386.99023438 C-335.9202179 386.88452118 -336.57774048 386.77880798 -337.25518799 386.66989136 C-384.88558312 378.97741267 -427.51399233 361.26135143 -463.07519531 328.24023438 C-463.66816406 327.70140625 -464.26113281 327.16257812 -464.87207031 326.60742188 C-470.99773161 320.80262855 -475.99866956 313.95314217 -481.07519531 307.24023438 C-481.71714844 306.39332031 -482.35910156 305.54640625 -483.02050781 304.67382812 C-504.42491328 275.25521502 -516.30526258 237.71772507 -511.30615234 201.32958984 C-504.96972628 161.9116307 -479.2293447 129.28200355 -447.51269531 106.32226562 C-435.00873538 97.50878933 -421.88827924 89.68614043 -408.04443359 83.18066406 C-406.06633526 82.23600317 -404.11581208 81.24777587 -402.16503906 80.24804688 C-320.38037579 39.0149858 -222.07655336 19.61201505 -83.07519531 3.24023438 C-81.76631348 3.12695801 -80.45743164 3.01368164 -79.10888672 2.89697266 C-71.7684442 2.27353242 -64.42841523 1.68975278 -57.07519531 1.24023438 C-55.77743164 1.15338379 -54.47966797 1.0665332 -53.14257812 0.97705078 C-35.45127982 -0.09832667 -17.71674019 0.0174627 0 0 Z " fill="#202424" transform="translate(696.0751953125,280.759765625)"/>
<path d="M0 0 C3.54394167 0.00569128 7.08780815 0.00231177 10.63174725 -0.003438 C30.90169058 -0.03139383 50.97881076 0.41164299 71.1418457 2.59912109 C75.63586819 3.07235658 80.13357157 3.46139681 84.63720703 3.83056641 C139.65269035 8.37660481 205.09024163 16.90128558 250.3215332 51.13037109 C251.34504883 51.86255859 252.36856445 52.59474609 253.4230957 53.34912109 C277.01595581 70.48953582 293.52807579 93.99717066 301.3215332 122.13037109 C301.80106445 123.83386719 301.80106445 123.83386719 302.2902832 125.57177734 C310.80057926 162.09513125 301.11220955 202.01905529 281.9465332 233.56787109 C235.77078158 307.31532435 144.70582931 337.69033006 42.09429932 363.49572754 C19.00337127 368.78088613 -4.34503138 373.62845359 -27.85131836 376.63427734 C-31.97412167 377.16869533 -36.08782828 377.75196282 -40.2019043 378.34912109 C-40.92686096 378.45385742 -41.65181763 378.55859375 -42.39874268 378.66650391 C-45.35485058 379.09376313 -48.31080303 379.52205231 -51.26635742 379.953125 C-66.15706154 382.1222174 -81.03103882 384.0734674 -96.0534668 385.06787109 C-103.40914642 385.57312434 -110.75191917 386.11791933 -118.08862305 386.85302734 C-193.56038466 394.29841841 -271.02035146 392.87883408 -346.6784668 389.13037109 C-348.14171453 389.05924035 -349.60497178 388.98830518 -351.0682373 388.9175415 C-361.7091076 388.4026926 -372.34895105 387.86966419 -382.98802948 387.3190155 C-384.59071715 387.23617376 -386.19342356 387.15369361 -387.79615021 387.0716095 C-405.60166565 386.15954886 -423.3793877 385.07604974 -441.1472168 383.59130859 C-441.893088 383.52917238 -442.6389592 383.46703617 -443.40743256 383.40301704 C-456.21139334 382.32754246 -468.96132427 380.97861345 -481.6784668 379.13037109 C-483.15331543 378.92009277 -483.15331543 378.92009277 -484.65795898 378.70556641 C-526.42948364 372.63482509 -571.1872944 358.49978978 -598.4362793 324.19287109 C-618.22372361 297.16611789 -624.25419183 265.80185185 -619.95776367 232.81811523 C-614.62897336 199.68445834 -596.48927249 171.0162074 -573.6784668 147.13037109 C-572.91663086 146.32728516 -572.15479492 145.52419922 -571.36987305 144.69677734 C-565.849861 139.0193318 -559.93458158 133.97478614 -553.6784668 129.13037109 C-553.0371582 128.62908691 -552.39584961 128.12780273 -551.73510742 127.61132812 C-538.4087194 117.26388896 -524.32526805 108.48101605 -509.6784668 100.13037109 C-508.13376709 99.24865234 -508.13376709 99.24865234 -506.55786133 98.34912109 C-425.25771865 52.36841865 -328.22912434 21.30948002 -228.8034668 20.94287109 C-227.89360016 20.94178345 -226.98373352 20.9406958 -226.04629517 20.9395752 C-216.20450813 20.94090978 -206.47705036 21.11170647 -196.6784668 22.13037109 C-183.68736116 23.29454349 -172.36629153 20.67314824 -159.7795105 17.56555176 C-150.99992184 15.40189233 -142.19229453 13.53833407 -133.3034668 11.88037109 C-132.6347052 11.75543274 -131.9659436 11.63049438 -131.2769165 11.50177002 C-120.58784348 9.52281596 -109.87595521 7.97596426 -99.07299805 6.77099609 C-95.20703901 6.33792612 -91.38133727 5.7743102 -87.54174805 5.14990234 C-80.45786785 4.037907 -73.35545797 3.36128562 -66.21508789 2.75268555 C-64.07603905 2.56980098 -61.93781663 2.3789191 -59.79956055 2.18701172 C-55.42828646 1.8010452 -51.0547395 1.45450792 -46.6784668 1.13037109 C-45.98546478 1.07844604 -45.29246277 1.026521 -44.57846069 0.97302246 C-29.73643128 -0.09077982 -14.87140935 -0.02403369 0 0 Z M-66.3034668 24.38037109 C-67.61040497 24.4827005 -68.91734314 24.58502991 -70.2638855 24.69046021 C-100.34361291 26.16094981 -100.34361291 26.16094981 -129.6784668 32.13037109 C-129.6784668 32.79037109 -129.6784668 33.45037109 -129.6784668 34.13037109 C-128.41776367 34.47068359 -127.15706055 34.81099609 -125.8581543 35.16162109 C-105.41564728 40.77921333 -85.77570729 47.90957054 -66.6784668 57.13037109 C-65.73165039 57.58476563 -64.78483398 58.03916016 -63.80932617 58.50732422 C-34.96427781 72.50593358 -4.5449405 91.33450266 17.3215332 115.13037109 C17.8215332 117.81787109 17.8215332 117.81787109 17.3215332 120.13037109 C14.3215332 122.13037109 14.3215332 122.13037109 11.4387207 122.02490234 C7.71406348 120.95604708 6.17313668 119.54883016 3.4465332 116.81787109 C-38.97677546 76.57305666 -100.83357406 53.14401362 -157.6784668 44.13037109 C-158.39728027 44.01467773 -159.11609375 43.89898438 -159.85668945 43.77978516 C-173.84439917 41.57859058 -185.15607964 42.33565304 -198.8034668 45.69287109 C-200.3216484 46.05879116 -201.83987811 46.42451164 -203.3581543 46.79003906 C-220.12394454 50.86194146 -236.74223035 55.48142113 -252.9753418 61.35351562 C-257.00666721 62.76895445 -260.40367407 63.54959297 -264.6784668 63.13037109 C-266.6159668 61.56787109 -266.6159668 61.56787109 -267.6784668 59.13037109 C-267.8659668 55.63037109 -267.8659668 55.63037109 -266.6784668 52.13037109 C-260.3826276 48.43128813 -253.57402244 46.21053383 -246.6784668 43.88037109 C-245.61756836 43.51685547 -244.55666992 43.15333984 -243.46362305 42.77880859 C-240.87023496 41.89098204 -238.2752161 41.0083075 -235.6784668 40.13037109 C-235.6784668 39.80037109 -235.6784668 39.47037109 -235.6784668 39.13037109 C-252.85231304 38.31472668 -269.69725351 40.59965047 -286.67858887 42.86474609 C-288.51617408 43.10881528 -290.35460865 43.34646718 -292.19311523 43.58349609 C-367.87802496 53.47634965 -443.2099891 82.19890534 -508.6784668 121.13037109 C-509.4101709 121.56124023 -510.141875 121.99210937 -510.89575195 122.43603516 C-526.84066117 131.87518226 -541.99318213 142.72629453 -555.23608398 155.71875 C-556.65223364 157.10469741 -558.09098661 158.46742752 -559.5300293 159.82958984 C-584.49412844 183.91467141 -601.24131695 216.66477995 -602.03417969 251.71337891 C-602.19763807 276.9645952 -595.14721535 300.26412265 -577.6784668 319.13037109 C-575.14191869 321.65683352 -572.49254463 323.91968148 -569.6784668 326.13037109 C-568.95014648 326.72978516 -568.22182617 327.32919922 -567.47143555 327.94677734 C-538.40115461 350.60786248 -498.6434886 358.81662111 -462.6784668 362.13037109 C-461.46723145 362.24300293 -460.25599609 362.35563477 -459.00805664 362.47167969 C-434.19718777 364.71841003 -409.30119395 365.92261754 -384.4284668 367.25537109 C-383.21771233 367.3205147 -383.21771233 367.3205147 -381.98249817 367.38697433 C-377.21328266 367.64343011 -372.44390438 367.89646899 -367.67427063 368.14502907 C-366.21967401 368.22102844 -364.76511148 368.29768446 -363.31059265 368.37515831 C-338.78541406 369.67705112 -314.28858659 370.29150389 -289.72924805 370.29833984 C-288.34701202 370.29977193 -286.96477616 370.30136973 -285.58254051 370.30312538 C-278.33806325 370.31229026 -271.09360397 370.31647195 -263.84912109 370.31567383 C-257.96693177 370.31514256 -252.08480911 370.32218325 -246.20263672 370.33618164 C-213.31937107 370.41259886 -180.50302224 370.37713369 -147.6784668 368.13037109 C-146.48351593 368.04995575 -145.28856506 367.96954041 -144.05740356 367.88668823 C-137.29856901 367.41965816 -130.55070662 366.86585054 -123.8034668 366.25537109 C-122.83617645 366.17011169 -121.86888611 366.08485229 -120.87228394 365.99700928 C-77.82410385 362.20203949 -35.10248983 356.40755224 7.3215332 348.13037109 C8.45751953 347.90945801 9.59350586 347.68854492 10.76391602 347.4609375 C89.127611 331.98439627 181.78176266 309.14552036 239.3215332 250.13037109 C239.96348633 249.52193359 240.60543945 248.91349609 241.2668457 248.28662109 C263.1799075 227.21343274 280.66532118 194.05593563 281.6574707 163.25927734 C282.04945608 130.88426775 275.36933479 106.87424722 252.3215332 83.13037109 C240.48689411 71.2549229 226.41691872 63.13362727 211.3215332 56.13037109 C209.71665039 55.36466797 209.71665039 55.36466797 208.0793457 54.58349609 C190.09141446 46.4031655 170.62231248 41.15359666 151.3215332 37.13037109 C150.21116699 36.89608398 149.10080078 36.66179687 147.95678711 36.42041016 C127.20004213 32.10928608 106.35058324 29.31179296 85.29241943 26.93344116 C80.9019512 26.43655624 76.51982475 25.90099009 72.13977051 25.31973267 C26.54854396 19.32381695 -20.58548137 20.76133447 -66.3034668 24.38037109 Z " fill="#202424" transform="translate(763.678466796875,1343.86962890625)"/>
<path d="M0 0 C3.67848756 -0.00436146 7.35673752 -0.01819787 11.03515625 -0.04101562 C52.94605117 -0.29540451 94.11147405 2.98393286 135.49633789 9.69433594 C137.75311805 10.06005274 140.01062031 10.42133957 142.26879883 10.77832031 C180.17600782 16.79499714 218.37129568 24.79019616 252.86499023 42.24023438 C253.50243164 42.56169434 254.13987305 42.8831543 254.79663086 43.21435547 C283.97334595 58.22995458 309.75740094 83.87646191 320.0065918 115.53173828 C327.62247867 139.89259913 325.58065578 165.62414085 313.86499023 188.24023438 C308.27261263 198.63771313 301.59300919 207.44724708 293.28051758 215.80566406 C291.9876169 217.11595802 290.73083067 218.46163698 289.47827148 219.81054688 C255.6819161 255.50041623 204.30154321 273.7158328 159.38891602 290.89111328 C156.36340941 292.04941656 153.34237267 293.2186334 150.32241821 294.39131165 C130.6536166 302.01134825 110.72987108 308.68902868 90.63079834 315.07963562 C86.25209221 316.47254787 81.88279358 317.88784313 77.52514648 319.34570312 C12.37941402 341.02498549 -55.15488317 355.20638792 -122.69750977 366.99023438 C-124.39979736 367.28849121 -124.39979736 367.28849121 -126.13647461 367.59277344 C-133.14592967 368.79663624 -140.16469048 369.80622305 -147.21728516 370.72216797 C-151.26660627 371.25763624 -155.30808698 371.83476115 -159.34985352 372.42382812 C-175.92037033 374.82038851 -192.45981671 376.91632518 -209.14453125 378.33959961 C-210.3879126 378.44602783 -211.63129395 378.55245605 -212.91235352 378.66210938 C-214.5403186 378.79504395 -214.5403186 378.79504395 -216.20117188 378.93066406 C-218.90108819 379.21555163 -221.47778871 379.69834814 -224.13500977 380.24023438 C-225.46457522 380.36413768 -226.7972347 380.4591122 -228.13110352 380.52148438 C-228.85491211 380.55886719 -229.5787207 380.59625 -230.32446289 380.63476562 C-231.06631836 380.66957031 -231.80817383 380.704375 -232.57250977 380.74023438 C-238.30609427 380.99849047 -238.30609427 380.99849047 -243.99047852 381.74023438 C-248.64465434 382.48027724 -253.30495977 382.57017233 -258.01000977 382.74023438 C-259.92419037 382.80998185 -261.83826017 382.88284696 -263.75219727 382.95898438 C-264.59379395 382.98927734 -265.43539063 383.01957031 -266.30249023 383.05078125 C-268.49003808 383.19709543 -270.67120926 383.44068733 -272.84521484 383.72436523 C-277.60570322 384.34073951 -282.3609488 384.57098021 -287.15454102 384.77539062 C-288.62864944 384.84006027 -288.62864944 384.84006027 -290.13253784 384.90603638 C-293.40395874 385.04505075 -296.67561077 385.17548059 -299.94750977 385.30273438 C-301.65482773 385.36951889 -301.65482773 385.36951889 -303.39663696 385.43765259 C-354.02334663 387.35423548 -405.69631171 388.30056053 -456.13500977 383.24023438 C-457.16916016 383.13984863 -458.20331055 383.03946289 -459.26879883 382.93603516 C-495.1898786 379.36374267 -534.55223349 371.1249965 -559.13500977 342.24023438 C-561.69429722 338.69074642 -563.96595848 335.03891319 -566.13500977 331.24023438 C-566.71895508 330.24056641 -566.71895508 330.24056641 -567.31469727 329.22070312 C-572.95545535 318.83558651 -574.81992518 308.06416241 -574.63500977 296.36523438 C-574.6236499 295.13869141 -574.61229004 293.91214844 -574.60058594 292.6484375 C-574.40666193 283.5946477 -573.41147576 275.74191412 -570.13500977 267.24023438 C-569.76118164 266.21671875 -569.38735352 265.19320313 -569.00219727 264.13867188 C-561.60308615 245.1753871 -550.18334669 229.69552372 -536.13500977 215.24023438 C-535.58296875 214.66241211 -535.03092773 214.08458984 -534.4621582 213.48925781 C-526.24905485 204.90091273 -517.68749482 197.29939191 -508.13500977 190.24023438 C-507.4545459 189.73137695 -506.77408203 189.22251953 -506.07299805 188.69824219 C-439.48161726 139.00769041 -356.92712935 104.91783361 -274.13500977 96.24023438 C-272.69762451 96.08578857 -272.69762451 96.08578857 -271.23120117 95.92822266 C-233.51411433 92.06058683 -194.69419877 93.39721138 -157.13500977 98.24023438 C-157.13500977 99.56023437 -157.13500977 100.88023437 -157.13500977 102.24023438 C-158.34930664 102.22452393 -159.56360352 102.20881348 -160.81469727 102.19262695 C-197.84446544 101.75845243 -234.26486849 102.63887541 -270.72680664 109.59179688 C-274.07243813 110.22832963 -277.42261981 110.83146616 -280.77563477 111.42773438 C-310.72275265 116.84818963 -340.64287225 124.46260326 -369.13500977 135.24023438 C-370.12388184 135.61100098 -371.11275391 135.98176758 -372.1315918 136.36376953 C-416.72639027 153.17537953 -460.56823582 174.5793039 -498.13500977 204.24023438 C-499.03993164 204.95308594 -499.94485352 205.6659375 -500.87719727 206.40039062 C-507.91365137 212.05148054 -514.5655411 218.06040316 -521.13500977 224.24023438 C-522.27389648 225.28050781 -522.27389648 225.28050781 -523.43579102 226.34179688 C-541.5849522 243.5287539 -555.3450032 265.96785766 -557.37329102 291.20507812 C-557.77681772 307.36738471 -552.97942887 322.57886847 -541.82250977 334.60742188 C-501.19547345 373.91784127 -427.93198549 367.67512188 -375.66057968 367.55788803 C-373.1413625 367.55261689 -370.62215782 367.55072647 -368.10293579 367.54922485 C-324.72457742 367.50448263 -281.25048841 366.1394835 -238.0847168 361.640625 C-234.57063381 361.28439456 -231.05605459 360.95874358 -227.53779602 360.64793396 C-187.41642141 357.09928822 -147.33506952 351.66796616 -107.79956055 343.94482422 C-104.00898537 343.21600344 -100.21260434 342.52997265 -96.41235352 341.85351562 C-7.34111701 325.88791663 80.18985119 299.03801524 288.09741211 190.52832031 C298.84241287 174.72027519 305.30091808 155.1879495 302.36499023 135.96679688 C296.69461209 106.77723668 279.69129065 85.29336391 255.53295898 68.95117188 C220.67952872 46.33225052 176.23997295 39.37473895 135.93273926 32.58917236 C133.89032254 32.24450927 131.84882069 31.89478532 129.80737305 31.54443359 C109.48239646 28.07912506 89.18321272 26.0114651 68.60926819 24.68333435 C65.55123432 24.47762246 62.54866367 24.19283729 59.51660156 23.73852539 C54.8805962 23.10590609 50.2757195 22.88181208 45.60327148 22.68945312 C44.60322586 22.64761398 43.60318024 22.60577484 42.5728302 22.56266785 C30.40164114 22.09409119 18.23132889 22.04226691 6.05249023 22.05273438 C4.25107574 22.05314224 4.25107574 22.05314224 2.41326904 22.05355835 C-17.18805029 22.07386841 -36.60027587 22.65816954 -56.13500977 24.24023438 C-58.69099024 24.42525611 -61.2469799 24.61015089 -63.80297852 24.79492188 C-113.63828123 28.64465939 -162.78008879 37.80721433 -211.13500977 50.24023438 C-211.8502179 50.42328125 -212.56542603 50.60632813 -213.30230713 50.79492188 C-233.02101242 55.84825252 -252.35260296 61.74031199 -271.60374451 68.35124207 C-276.34655787 69.97885378 -281.10713388 71.54413104 -285.87695312 73.09033203 C-296.8343003 76.65987337 -307.50097439 80.80629429 -318.13500977 85.24023438 C-319.19010742 85.67948242 -320.24520508 86.11873047 -321.33227539 86.57128906 C-336.6851149 92.93977872 -336.6851149 92.93977872 -351.76000977 99.92773438 C-356.58939499 102.17882993 -359.84357413 103.27962352 -365.13500977 102.24023438 C-368.76005005 99.69499333 -369.90637588 97.95153981 -371.26000977 93.74023438 C-371.13500977 90.24023438 -371.13500977 90.24023438 -369.09277344 87.76025391 C-365.84492314 84.9930801 -362.5302636 83.1813209 -358.68579102 81.41992188 C-357.60397552 80.90924164 -357.60397552 80.90924164 -356.50030518 80.38824463 C-354.15465939 79.28549951 -351.80170411 78.19959597 -349.44750977 77.11523438 C-347.80862613 76.3523308 -346.16987399 75.58914469 -344.53125 74.82568359 C-262.69707002 36.84677076 -175.13068138 12.54004317 -85.34179688 3.43530273 C-83.681577 3.2655642 -82.02172828 3.09214921 -80.36230469 2.91479492 C-53.64106201 0.05910988 -26.84270017 0.02722033 0 0 Z " fill="#212525" transform="translate(757.135009765625,823.759765625)"/>
<path d="M0 0 C3.83136329 0.01136301 7.66244748 0.0046356 11.49380112 -0.0068922 C36.87299267 -0.07132569 62.10649833 0.94303953 87.29711914 4.26074219 C88.45195801 4.40850098 89.60679687 4.55625977 90.79663086 4.70849609 C108.55174294 7.0069424 126.16054158 9.8376352 143.73461914 13.26074219 C144.56945831 13.42205627 145.40429749 13.58337036 146.26443481 13.74957275 C158.71991065 16.16979247 171.01799516 19.0679928 183.29711914 22.26074219 C184.82743774 22.65592041 184.82743774 22.65592041 186.38867188 23.05908203 C228.64735717 34.19055669 275.12672677 51.40569634 299.29711914 90.26074219 C312.02662891 112.55152819 315.05405538 138.80339281 308.68774414 163.66699219 C294.73197482 212.24140122 254.45174545 244.40957737 211.9465332 267.95996094 C202.86537898 272.92411684 193.70505375 277.72630065 184.39331055 282.24365234 C182.92515574 282.9560135 181.45883201 283.6721551 179.99389648 284.39111328 C166.27932852 291.11501917 152.33373468 297.18755576 138.2277832 303.04150391 C135.67070525 304.10531991 133.11938249 305.18125863 130.57055664 306.26464844 C120.95156132 310.33145006 111.19548915 313.88769113 101.3059082 317.23925781 C99.15263452 317.97029458 97.00113626 318.70656911 94.85083008 319.44628906 C80.2438377 324.4687728 65.6529484 329.21640733 50.64086914 332.90917969 C46.59013484 333.90582855 42.59325489 335.03699223 38.59008789 336.20996094 C31.1607551 338.35104288 23.66673705 340.07624739 16.10961914 341.69824219 C15.41582153 341.8479245 14.72202393 341.99760681 14.00720215 342.15182495 C9.10768475 343.20674663 4.20388253 344.24009602 -0.70288086 345.26074219 C-1.8232373 345.49438477 -2.94359375 345.72802734 -4.09790039 345.96875 C-50.36805853 355.45157824 -97.13818854 359.49821584 -144.30677795 359.5699234 C-145.67729347 359.57210637 -147.04780797 359.57510955 -148.4183197 359.57900238 C-176.64331639 359.65894124 -204.53702626 358.05466126 -232.56079102 354.63867188 C-235.55822777 354.27814102 -238.55738268 353.94196981 -241.55834961 353.61230469 C-263.24873876 351.16042751 -284.7353243 347.05083284 -306.07788086 342.51074219 C-307.02219971 342.3123877 -307.96651855 342.1140332 -308.93945312 341.90966797 C-310.22613892 341.62712158 -310.22613892 341.62712158 -311.53881836 341.33886719 C-312.27664551 341.17805664 -313.01447266 341.01724609 -313.7746582 340.8515625 C-315.70288086 340.26074219 -315.70288086 340.26074219 -318.70288086 338.26074219 C-319.01538086 335.76074219 -319.01538086 335.76074219 -318.70288086 333.26074219 C-316.70288086 331.26074219 -316.70288086 331.26074219 -314.72973633 331.16552734 C-306.47417761 332.0100085 -298.39273297 333.55097555 -290.25860596 335.15689087 C-276.79975814 337.80827544 -263.36036121 340.27299147 -249.74633789 341.99316406 C-247.88299368 342.23715752 -246.02488527 342.52032162 -244.16772461 342.80761719 C-215.66916815 347.12657178 -186.05333628 347.48361157 -157.26538086 347.44824219 C-156.25986176 347.4473056 -155.25434265 347.44636902 -154.21835327 347.44540405 C-108.69306156 347.35478825 -63.47200161 343.74902567 -18.70288086 335.26074219 C-17.23268135 334.98640869 -15.76246584 334.71216094 -14.29223633 334.43798828 C68.91384034 318.81352728 153.93961572 289.45673943 263.29711914 213.26074219 C263.8655957 212.73738281 264.43407227 212.21402344 265.01977539 211.67480469 C279.83498341 197.71375379 288.59121703 179.5236908 294.29711914 160.26074219 C294.66450195 159.2359375 295.03188477 158.21113281 295.41040039 157.15527344 C296.71173849 151.4397048 296.62558327 145.85361489 296.60961914 140.01074219 C296.62573242 138.84671875 296.6418457 137.68269531 296.65844727 136.48339844 C296.66267666 128.92970113 295.70675796 122.41564245 293.29711914 115.26074219 C292.94391602 114.17921875 292.59071289 113.09769531 292.22680664 111.98339844 C282.30311816 86.95365082 258.88148985 71.07239572 235.29711914 60.26074219 C209.92156625 49.4097064 183.15102046 42.33182556 156.29711914 36.26074219 C155.27972656 36.02758301 154.26233398 35.79442383 153.21411133 35.55419922 C113.4578515 26.52109912 71.08544154 20.53086353 30.29711914 20.26074219 C28.95027347 20.24722446 27.60343117 20.23336913 26.2565918 20.21923828 C-39.2552975 19.5839871 -103.16238792 26.02907817 -166.70288086 42.26074219 C-167.61900146 42.49277344 -168.53512207 42.72480469 -169.47900391 42.96386719 C-179.6859024 45.56034972 -189.76620215 48.42575085 -199.79077148 51.65332031 C-201.6466905 52.24289214 -203.51066284 52.80692313 -205.37475586 53.37011719 C-227.30185343 60.01193512 -248.58850639 68.40394717 -269.70288086 77.26074219 C-270.52175781 77.60379395 -271.34063477 77.9468457 -272.18432617 78.30029297 C-281.34583078 82.16170349 -290.29148792 86.40931371 -299.13549805 90.94824219 C-302.15449912 92.49161892 -305.18306828 94.0156043 -308.21069336 95.54199219 C-330.4287781 106.79502987 -352.35913245 118.83304935 -372.70288086 133.26074219 C-373.32549805 133.70224609 -373.94811523 134.14375 -374.58959961 134.59863281 C-385.69670859 142.52436427 -396.27347678 150.94268744 -406.36303711 160.13964844 C-408.49092901 162.06860553 -410.65008945 163.95110571 -412.82788086 165.82324219 C-420.63120804 172.65701769 -427.26802315 180.13419144 -433.70288086 188.26074219 C-434.50854492 189.24945312 -435.31420898 190.23816406 -436.14428711 191.25683594 C-456.15046478 216.1152582 -470.18293411 247.84252798 -466.70288086 280.26074219 C-464.90552999 291.93930374 -461.31389858 302.86513571 -455.70288086 313.26074219 C-455.27620117 314.0921875 -454.84952148 314.92363281 -454.40991211 315.78027344 C-447.67346851 328.00859774 -437.71838674 337.88498153 -426.70288086 346.26074219 C-425.38670776 347.30391602 -425.38670776 347.30391602 -424.04394531 348.36816406 C-417.10411314 353.77478456 -410.06720164 358.06818074 -402.23144531 362.01879883 C-400.39496738 362.94592673 -398.56916916 363.89185466 -396.74389648 364.84082031 C-388.2651867 369.20394036 -379.6116381 372.871175 -370.70288086 376.26074219 C-369.94789307 376.55247314 -369.19290527 376.8442041 -368.41503906 377.14477539 C-344.46231689 386.18753687 -318.42781689 391.32483677 -293.29174805 395.79052734 C-291.07979639 396.19228318 -288.87966735 396.62417214 -286.67944336 397.08496094 C-267.04390046 401.11003426 -246.74843395 403.11497101 -226.78271484 404.6652832 C-225.9287915 404.73158936 -225.07486816 404.79789551 -224.19506836 404.86621094 C-223.46658691 404.9193042 -222.73810547 404.97239746 -221.98754883 405.02709961 C-220.24661984 405.20513648 -218.51411845 405.46768708 -216.79003906 405.76782227 C-213.76635019 406.25060818 -210.87476109 406.44819615 -207.81616211 406.54199219 C-206.71208008 406.579375 -205.60799805 406.61675781 -204.47045898 406.65527344 C-202.76019531 406.70748047 -202.76019531 406.70748047 -201.01538086 406.76074219 C-188.38767219 407.15286195 -188.38767219 407.15286195 -182.41772461 407.78417969 C-174.94410894 408.51225669 -167.45351903 408.4138504 -159.95288086 408.38574219 C-159.16299774 408.38352661 -158.37311462 408.38131104 -157.55929565 408.37902832 C-151.94024803 408.36073142 -146.32166096 408.31758812 -140.70288086 408.26074219 C-139.3914209 408.24817383 -138.07996094 408.23560547 -136.72875977 408.22265625 C-86.29860661 407.56936411 -35.9863665 400.69794042 13.29711914 390.26074219 C15.05765625 389.88997559 15.05765625 389.88997559 16.85375977 389.51171875 C39.61991653 384.65040408 62.48685065 378.65312434 84.46679688 370.93652344 C89.32599811 369.29973986 93.2357762 368.92548229 98.29711914 369.26074219 C100.79711914 370.69824219 100.79711914 370.69824219 102.29711914 373.26074219 C102.91169505 376.39800587 103.13774265 379.1645326 102.29711914 382.26074219 C98.25270461 387.77125699 93.00919586 389.08190914 86.73461914 390.94824219 C85.65398193 391.28073975 84.57334473 391.6132373 83.45996094 391.95581055 C79.7464883 393.08376717 76.02410562 394.1785381 72.29711914 395.26074219 C71.61129761 395.46050659 70.92547607 395.660271 70.21887207 395.86608887 C3.09622855 415.37808336 -66.27081436 428.20923479 -136.34741211 428.49902344 C-137.25071636 428.50380518 -138.15402061 428.50858692 -139.08469772 428.51351357 C-145.89492006 428.54900211 -152.70507713 428.56460012 -159.51538086 428.57324219 C-160.51098148 428.57498192 -161.50658211 428.57672165 -162.53235245 428.5785141 C-196.97458141 428.63173489 -230.58986275 427.28177189 -264.70288086 422.26074219 C-266.81085176 421.96184476 -268.91892363 421.6636585 -271.02709961 421.36621094 C-320.0130016 414.35186048 -369.70915642 404.8573762 -413.70288086 381.26074219 C-414.31067383 380.93750977 -414.9184668 380.61427734 -415.54467773 380.28125 C-445.8268454 364.04134685 -472.33791313 338.25557936 -483.70288086 305.26074219 C-485.37964582 299.66414585 -486.62237497 293.99902204 -487.70288086 288.26074219 C-487.89366211 287.34035156 -488.08444336 286.41996094 -488.28100586 285.47167969 C-490.36718324 269.59355184 -488.82911451 253.65178743 -484.70288086 238.26074219 C-484.50984375 237.52227051 -484.31680664 236.78379883 -484.11791992 236.02294922 C-477.04280833 209.90080074 -461.42535877 187.29601691 -443.70288086 167.26074219 C-442.96682617 166.41382813 -442.23077148 165.56691406 -441.47241211 164.69433594 C-432.00420188 153.94990066 -421.94927583 144.12985041 -410.70288086 135.26074219 C-409.67697388 134.40170362 -408.65364723 133.53957653 -407.63256836 132.67480469 C-391.10764703 118.83874969 -372.42218879 106.90463275 -353.70288086 96.26074219 C-352.81487793 95.75124023 -351.926875 95.24173828 -351.01196289 94.71679688 C-337.22119441 86.81899995 -323.27861104 79.36737879 -308.99926758 72.39355469 C-306.00199314 70.91499277 -303.04378315 69.36358595 -300.07788086 67.82324219 C-280.91780863 58.26612482 -260.82574332 50.51686082 -240.70288086 43.26074219 C-239.4847168 42.81553223 -239.4847168 42.81553223 -238.24194336 42.36132812 C-232.42494701 40.2379312 -226.57768236 38.21835354 -220.70288086 36.26074219 C-219.60137695 35.89368164 -218.49987305 35.52662109 -217.36499023 35.1484375 C-169.69409853 19.4255421 -120.5287217 9.10581764 -70.64038086 3.63574219 C-69.11948853 3.46896973 -69.11948853 3.46896973 -67.56787109 3.29882812 C-64.68702527 2.99964705 -61.80507217 2.72314686 -58.92044067 2.46313477 C-57.32044227 2.31710587 -55.72094579 2.16554057 -54.12179565 2.01049805 C-36.06193389 0.28390634 -18.1229749 -0.05421361 0 0 Z " fill="#212525" transform="translate(1859.702880859375,795.7392578125)"/>
<path d="M0 0 C1.6948855 -0.00697914 3.38977075 -0.0140201 5.08465576 -0.02111816 C10.47701336 -0.04041091 15.8693304 -0.04529443 21.26171875 -0.046875 C22.17922283 -0.04746414 23.09672691 -0.04805328 24.04203415 -0.04866028 C52.1157196 -0.06139181 80.00170645 0.2710641 107.94921875 3.203125 C108.6838031 3.27809204 109.41838745 3.35305908 110.17523193 3.43029785 C120.46390734 4.4816458 130.70886613 5.75008471 140.94921875 7.203125 C141.60821167 7.29658203 142.26720459 7.39003906 142.94616699 7.48632812 C170.5021009 11.41501556 197.75680188 16.68686317 224.88671875 22.890625 C226.15662155 23.17903259 226.15662155 23.17903259 227.45217896 23.4732666 C229.87853336 24.02643861 232.30281194 24.58788415 234.7265625 25.15234375 C235.79654984 25.39584816 235.79654984 25.39584816 236.88815308 25.64427185 C249.96807815 28.73141411 249.96807815 28.73141411 252.94921875 33.203125 C252.94921875 34.523125 252.94921875 35.843125 252.94921875 37.203125 C253.67496094 37.48414063 254.40070312 37.76515625 255.1484375 38.0546875 C282.1499527 49.1264385 304.30487028 72.76229551 315.94921875 99.203125 C323.3993552 118.17943615 327.34424632 141.28491353 320.33984375 161.015625 C303.00445908 200.75066401 270.23209814 220.17972379 231.29760742 235.75024414 C202.50781544 247.02904296 172.98919056 256.15760621 143.2467041 264.55407715 C141.67701144 264.99752096 140.10760659 265.4419845 138.53845215 265.8873291 C75.85161152 283.67812402 12.35215422 296.73477155 -52.20840454 305.40592957 C-56.82275401 306.02826251 -61.4261467 306.70413696 -66.02807617 307.41137695 C-90.74015732 311.16017254 -115.75363105 313.16253329 -140.67578125 314.890625 C-141.98316254 314.98162476 -141.98316254 314.98162476 -143.31695557 315.07446289 C-163.94893294 316.49489875 -184.51642732 317.36827861 -205.19921875 317.40625 C-206.80341612 317.41049107 -206.80341612 317.41049107 -208.44002151 317.41481781 C-214.12228882 317.42968782 -219.80453163 317.43898875 -225.48681641 317.44335938 C-230.06632647 317.4477006 -234.6456435 317.46143978 -239.22509766 317.484375 C-269.07727091 317.63086923 -298.66411726 316.80358447 -328.43388367 314.54556274 C-333.48430818 314.16475321 -338.53685851 313.85105455 -343.59329224 313.56016541 C-356.42699623 312.7746636 -369.2039677 311.25868346 -381.97201538 309.77651978 C-384.14597181 309.52449892 -386.32029775 309.27563974 -388.49502563 309.03036499 C-421.82707099 305.24277285 -458.6337114 298.96350762 -484.05078125 275.203125 C-485.10072266 274.28853516 -485.10072266 274.28853516 -486.171875 273.35546875 C-498.98353428 261.59271724 -507.30609524 244.22510671 -508.375 226.9296875 C-509.31133722 201.5879961 -498.15556417 179.84309748 -481.73828125 161.140625 C-480.1889557 159.48238377 -478.6252669 157.837496 -477.05078125 156.203125 C-476.5727002 155.6992627 -476.09461914 155.19540039 -475.60205078 154.67626953 C-467.98957775 146.67944948 -460.078432 139.57817058 -451.05078125 133.203125 C-450.42171875 132.75678711 -449.79265625 132.31044922 -449.14453125 131.85058594 C-417.50234297 109.61762259 -382.38337204 92.67235645 -347.05078125 77.203125 C-346.07111389 76.77419952 -346.07111389 76.77419952 -345.07165527 76.33660889 C-301.61399685 57.35885169 -256.79058203 41.81651847 -210.95080566 29.70581055 C-209.2199226 29.24787438 -207.49026321 28.78531934 -205.76074219 28.32226562 C-156.7429731 15.25731236 -106.57089632 7.62954015 -56.11328125 3.015625 C-55.18692871 2.93076843 -54.26057617 2.84591187 -53.30615234 2.75848389 C-50.60808373 2.51341772 -47.909633 2.27321225 -45.2109375 2.03515625 C-44.43786758 1.96554184 -43.66479767 1.89592743 -42.86830139 1.82420349 C-28.57596737 0.58780207 -14.34061004 0.03681893 0 0 Z M-13.05078125 25.203125 C-14.23589294 25.39195251 -14.23589294 25.39195251 -15.44494629 25.58459473 C-48.55565844 30.87032565 -81.96138421 37.83727881 -113.52294922 49.29589844 C-116.01231274 50.18931884 -118.51295869 51.03515443 -121.0234375 51.8671875 C-146.64330358 60.42326559 -172.19024167 71.40798746 -195.52734375 85.05859375 C-198.29997746 86.31615053 -200.04227655 86.57403654 -203.05078125 86.203125 C-204.92578125 84.515625 -204.92578125 84.515625 -206.05078125 82.203125 C-205.98046875 79.77734375 -205.98046875 79.77734375 -205.05078125 77.203125 C-202.69140625 75.421875 -202.69140625 75.421875 -199.30078125 73.703125 C-198.65592773 73.37546143 -198.01107422 73.04779785 -197.34667969 72.71020508 C-156.93058134 52.57942465 -113.32283323 34.66296517 -69.05078125 25.203125 C-69.05078125 24.873125 -69.05078125 24.543125 -69.05078125 24.203125 C-81.67734705 24.57947569 -93.89357692 26.46665083 -106.33007812 28.58203125 C-109.58658109 29.12563647 -112.84514201 29.64631597 -116.10725403 30.15457153 C-139.27330885 33.76629375 -162.10817783 38.48043782 -184.95715332 43.72399902 C-187.83825052 44.38333705 -190.72205403 45.03057095 -193.60546875 45.6796875 C-203.62977768 47.96823259 -213.45418383 50.72385061 -223.27734375 53.7578125 C-226.19717884 54.65505955 -229.11782525 55.50533328 -232.07421875 56.2734375 C-255.85014247 62.45145632 -279.25428559 71.10109095 -302.05078125 80.203125 C-303.61916748 80.82719238 -303.61916748 80.82719238 -305.21923828 81.46386719 C-319.99177473 87.36099411 -334.6404952 93.46648701 -349.05078125 100.203125 C-349.96907715 100.63141602 -350.88737305 101.05970703 -351.83349609 101.50097656 C-398.27097723 123.21262335 -398.27097723 123.21262335 -441.05078125 151.203125 C-442.38496094 152.20279297 -442.38496094 152.20279297 -443.74609375 153.22265625 C-464.37264465 169.32368031 -484.38586916 190.28131763 -488.05078125 217.203125 C-489.01217202 230.40580742 -485.72573031 243.99100591 -476.98046875 254.125 C-476.34367187 254.81078125 -475.706875 255.4965625 -475.05078125 256.203125 C-474.06464844 257.32460937 -474.06464844 257.32460937 -473.05859375 258.46875 C-457.52756236 275.19447611 -434.68799225 281.72902593 -413.05078125 286.203125 C-412.25498154 286.36988235 -411.45918182 286.53663971 -410.63926697 286.70845032 C-394.34229434 290.06790038 -377.92963412 291.6948664 -361.37764359 293.14035416 C-359.21022929 293.33058711 -357.04317339 293.524495 -354.87619019 293.71957397 C-335.00118069 295.50792886 -315.12025921 297.27564131 -295.17788696 298.11026001 C-293.64299167 298.17727033 -292.10832171 298.24951354 -290.57382202 298.32504272 C-269.1326935 299.37999473 -247.70001248 299.40597752 -226.23828125 299.390625 C-225.30685177 299.39021084 -224.37542229 299.38979668 -223.41576767 299.38936996 C-170.81838271 299.3601034 -118.90723255 296.39303173 -66.59765625 290.66015625 C-64.97686661 290.4840255 -64.97686661 290.4840255 -63.32333374 290.30433655 C-54.07141579 289.26886841 -44.89614488 287.84943546 -35.71875 286.29296875 C-30.95755473 285.50122747 -26.19075804 284.77412454 -21.4140625 284.08203125 C54.47433782 273.08424857 129.038889 253.6756635 201.85736084 229.8861084 C203.75776652 229.2656334 205.65933719 228.64872943 207.56103516 228.03222656 C233.35656871 219.61935159 260.29499842 209.29655785 280.94921875 191.203125 C282.46515625 190.0584375 282.46515625 190.0584375 284.01171875 188.890625 C295.13729115 178.71190982 302.18176593 166.36156037 306.94921875 152.203125 C307.32240234 151.09904297 307.32240234 151.09904297 307.703125 149.97265625 C312.77310895 131.64271426 307.05135407 111.328612 298.05493164 95.18676758 C294.85308765 89.75689487 291.09179305 84.93508996 286.94921875 80.203125 C286.3975 79.51992187 285.84578125 78.83671875 285.27734375 78.1328125 C280.50038555 72.33222039 274.87746915 67.7862425 268.94921875 63.203125 C268.08296875 62.52121094 267.21671875 61.83929687 266.32421875 61.13671875 C249.66985088 48.47245985 231.27504439 42.31107168 211.01171875 38.203125 C210.18795746 38.03292847 209.36419617 37.86273193 208.51547241 37.68737793 C193.58830012 34.60398564 178.61971141 31.99594428 163.54394531 29.74121094 C160.00781006 29.21189539 156.4745359 28.66616775 152.94140625 28.1171875 C131.77517718 24.86142456 110.59550353 21.95282594 89.16723633 21.36083984 C86.94921875 21.203125 86.94921875 21.203125 83.85375977 20.70703125 C78.99850387 20.0804291 74.22287189 19.98388196 69.33203125 19.9296875 C68.29921021 19.91711411 67.26638916 19.90454071 66.20227051 19.8915863 C39.36915257 19.62959299 13.43483899 20.90367766 -13.05078125 25.203125 Z " fill="#212525" transform="translate(1855.05078125,1399.796875)"/>
</svg>
