<svg width="1299" height="1299" xmlns="http://www.w3.org/2000/svg" xmlns:xlink="http://www.w3.org/1999/xlink" xml:space="preserve" overflow="hidden"><defs><clipPath id="clip0"><rect x="1297" y="334" width="1299" height="1299"/></clipPath><clipPath id="clip1"><rect x="1419" y="457" width="1054" height="1056"/></clipPath><clipPath id="clip2"><rect x="1419" y="457" width="1054" height="1056"/></clipPath></defs><g clip-path="url(#clip0)" transform="translate(-1297 -334)"><path d="M1352 590.333C1352 481.349 1440.35 393 1549.33 393L2338.67 393C2447.65 393 2536 481.349 2536 590.333L2536 1379.67C2536 1488.65 2447.65 1577 2338.67 1577L1549.33 1577C1440.35 1577 1352 1488.65 1352 1379.67Z" fill="#FFFFFF" fill-rule="evenodd"/><g clip-path="url(#clip1)"><g clip-path="url(#clip2)"><g><path d="M1706.01 453.929C1695.97 475.821 1690.29 500.374 1690.29 526.015 1690.29 551.657 1695.61 575.242 1705.41 596.772L1340.74 596.772C1350.3 575.121 1355.5 551.173 1355.5 526.015 1355.5 500.858 1350.05 475.942 1340.14 453.929L1706.01 453.929Z" fill="#93C9E8" transform="matrix(1.00002 0 0 1 782.613 459.589)"/><path d="M1093.76 329.833 981.758 418.853 748.565 142.964 627.735 0 814.967 0 935.797 142.964 1093.76 329.833Z" fill="#93C9E8" transform="matrix(1.00002 0 0 1 782.613 459.589)"/><path d="M935.797 142.964 0 142.964 0 0 814.967 0 935.797 142.964Z" fill="#93C9E8" transform="matrix(1.00002 0 0 1 782.613 459.589)"/><path d="M1925.78 720.988 2037.78 631.968 2271.09 907.857 2391.8 1050.82 2204.57 1050.82 2083.74 907.857 1925.78 720.988Z" fill="#93C9E8" transform="matrix(1.00002 0 0 1 782.613 459.589)"/><path d="M2083.74 907.857 3246.81 907.857 3246.81 1050.82 2204.57 1050.82 2083.74 907.857Z" fill="#93C9E8" transform="matrix(1.00002 0 0 1 782.613 459.589)"/><path d="M1236.6 0 1236.6 362.49C1215.56 353.539 1192.33 348.701 1168.02 348.701 1150 348.701 1132.58 351.362 1116.13 356.442 1108.39 358.74 1100.89 361.643 1093.64 365.151L1093.64 0 1236.6 0Z" fill="#E9AF58" transform="matrix(1.00002 0 0 1 782.613 459.589)"/><path d="M1168.14 703.45C1192.45 703.45 1215.68 698.612 1236.72 689.662L1236.72 1050.82 1093.76 1050.82 1093.76 687.122C1116.38 697.766 1141.66 703.571 1168.14 703.571Z" fill="#E9AF58" transform="matrix(1.00002 0 0 1 782.613 459.589)"/><path d="M3246.81 692.323 3246.81 831.779 3192.14 831.779C3126.94 831.779 3070.58 809.524 3024.38 765.74 2977.33 721.23 2953.62 663.899 2953.62 595.441L2953.62 0 3097.31 0 3097.31 595.32C3097.31 624.469 3106.02 646.724 3124.65 665.109 3143.51 683.735 3164.92 692.323 3192.14 692.323L3246.81 692.323Z" fill="#2F4651" transform="matrix(1.00002 0 0 1 782.613 459.589)"/><path d="M563.389 216.986C508.598 216.986 460.823 230.653 421.272 257.746L421.272 257.746C409.54 265.729 398.896 274.559 389.341 284.114 380.874 275.405 371.682 267.301 361.885 259.802 324.39 231.379 283.751 216.986 241.297 216.986 207.794 216.986 175.016 224.364 143.69 238.757L143.69 228.839 0 228.839 0 822.224 143.69 822.224 143.69 444.857C143.69 421.393 152.277 401.92 170.662 383.414 189.046 365.03 209.003 356.442 233.072 356.442 257.142 356.442 275.768 364.667 292.58 382.205 309.997 400.347 318.222 420.304 318.222 444.857L318.222 822.224 461.911 822.224 461.911 444.857C461.911 421.756 470.741 402.525 489.851 384.14 509.445 365.272 529.886 356.442 554.076 356.442 578.266 356.442 596.651 364.425 613.584 381.6 630.759 399.017 638.742 419.82 638.742 447.034L638.742 822.224 782.431 822.224 782.431 447.034C782.431 378.092 760.055 321.729 716.029 279.517 672.729 238.031 621.204 216.986 563.147 216.986Z" fill="#2F4651" transform="matrix(1.00002 0 0 1 782.613 459.589)"/><path d="M1166.57 216.986C1081.3 216.986 1007.4 247.465 946.803 307.578 886.086 367.812 855.365 440.382 855.365 523.354 855.365 606.327 885.481 678.897 944.868 740.461 1004.86 802.63 1077.79 834.077 1161.61 834.077L1171.29 834.077C1255.95 834.077 1329.01 802.751 1388.27 740.824 1446.94 679.623 1476.57 606.69 1476.57 523.959 1476.57 441.229 1446.09 368.054 1385.86 307.82 1325.62 247.586 1251.84 217.107 1166.57 217.107ZM1333 526.015C1333 572.219 1316.91 611.044 1284.01 644.91 1251.36 678.293 1213.38 694.621 1167.66 694.621 1121.94 694.621 1082.99 678.172 1049.25 644.426 1015.5 610.681 999.054 572.098 999.054 526.62 999.054 481.143 1015.5 441.834 1049.49 407.363 1083.24 373.133 1121.7 356.442 1167.06 356.442 1212.41 356.442 1250.39 372.892 1283.41 406.637 1316.79 440.866 1333 479.933 1333 526.015Z" fill="#2F4651" transform="matrix(1.00002 0 0 1 782.613 459.589)"/><path d="M2161.51 513.437 2161.51 0 2019.4 0 2019.4 265.608C1971.38 234.766 1914.41 216.865 1853.21 216.865 1683.03 216.865 1544.66 355.233 1544.66 525.411 1544.66 695.589 1683.03 833.956 1853.21 833.956 2023.39 833.956 2161.76 695.589 2161.76 525.411 2161.76 521.419 2161.63 517.428 2161.39 513.437ZM1853.33 690.992C1762.01 690.992 1687.75 616.729 1687.75 525.411 1687.75 434.093 1762.01 359.829 1853.33 359.829 1944.65 359.829 2018.91 434.093 2018.91 525.411 2018.91 616.729 1944.65 690.992 1853.33 690.992Z" fill="#2F4651" transform="matrix(1.00002 0 0 1 782.613 459.589)"/><path d="M2901.25 696.435C2871.49 696.435 2855.17 679.744 2854.44 651.441L2854.44 228.718 2710.75 228.718 2710.75 264.157C2708.94 263.068 2707 261.98 2705.19 260.891 2654.99 231.742 2601.41 216.986 2546.02 216.986 2461.11 216.986 2387.33 247.465 2326.73 307.578 2266.14 367.812 2235.29 441.108 2235.29 525.411 2235.29 609.713 2266.14 683.131 2326.73 743.243 2387.33 803.477 2461.11 833.956 2546.02 833.956 2573.71 833.956 2600.44 830.328 2626.57 823.192L2626.57 823.192C2626.57 823.192 2626.57 823.192 2626.57 823.192 2626.57 823.192 2626.81 823.192 2627.29 822.95 2629.23 822.466 2635.04 821.015 2643.26 818.112 2643.26 818.112 2643.26 818.112 2643.26 818.112 2646.28 817.144 2649.43 816.056 2652.94 814.604 2659.59 812.064 2667.09 808.919 2674.95 805.049 2680.27 802.509 2685.71 799.606 2691.28 796.462 2704.95 788.6 2718.98 778.682 2731.43 766.466 2732.76 769.006 2734.09 771.546 2735.67 773.844 2761.19 813.637 2806.91 833.835 2871.86 833.835L2912.26 833.835 2912.26 696.314 2901.37 696.314ZM2547.59 694.5C2501.63 694.5 2462.92 678.172 2429.18 644.426 2395.43 610.681 2378.98 572.098 2378.98 526.499 2378.98 480.901 2395.55 441.713 2429.54 407.242 2463.16 373.013 2501.63 356.321 2547.1 356.321 2592.58 356.321 2630.44 372.771 2663.34 406.516 2693.94 437.963 2709.9 473.402 2712.44 514.767L2712.44 537.385C2710.03 578.629 2694.06 613.947 2663.94 644.91 2631.29 678.293 2593.19 694.5 2547.59 694.5Z" fill="#2F4651" transform="matrix(1.00002 0 0 1 782.613 459.589)"/></g></g></g><rect x="2305" y="913" width="168" height="143" fill="#93C9E8"/><rect x="2251" y="516" width="222" height="397" fill="#FFFFFF"/><rect x="2251" y="1056" width="222" height="409" fill="#FFFFFF"/><rect x="1419" y="674" width="165" height="749" fill="#FFFFFF"/><path d="M1331.5 573.333C1331.5 460.207 1423.21 368.5 1536.33 368.5L2355.67 368.5C2468.8 368.5 2560.5 460.207 2560.5 573.333L2560.5 1393.67C2560.5 1506.79 2468.8 1598.5 2355.67 1598.5L1536.33 1598.5C1423.21 1598.5 1331.5 1506.79 1331.5 1393.67Z" stroke="#FFFFFF" stroke-width="68.75" stroke-miterlimit="8" fill="none" fill-rule="evenodd"/></g></svg>