<svg xmlns="http://www.w3.org/2000/svg" version="1.1" viewBox="32.5876828 54.64120227272727 994.004 342.8068181818182" style="max-height: 500px" width="994.004" height="342.8068181818182">
<path transform="translate(42,60)" fill="rgba(255,255,255,0.7)" d="M0 0 C49.66249806 -0.24944458 99.36348582 0.31859755 149 2 C149.8680908 3.91040052 150.71901783 5.82860737 151.5625 7.75 C152.03816406 8.81734375 152.51382813 9.8846875 153.00390625 10.984375 C154.00620023 14.01877088 154.24258175 15.12786219 153 18 C151.37109375 20.140625 151.37109375 20.140625 149.4375 22.25 C148.79683594 22.95640625 148.15617188 23.6628125 147.49609375 24.390625 C147.00238281 24.92171875 146.50867188 25.4528125 146 26 C148.19288382 31.19667781 152.26708976 34.12285092 157 37 C158.6952611 37.41222154 160.40537474 37.7680076 162.125 38.0625 C165.69265826 38.97643715 166.76116006 39.65838058 168.90625 42.7265625 C170.41604086 45.76673228 171.79417432 48.80990758 173.10400391 51.93847656 C174.67786939 55.55965371 176.51338473 59.04937926 178.3125 62.5625 C181.81747166 69.47132229 181.81747166 69.47132229 182.98046875 72.83984375 C184.27602133 75.58482681 185.24847927 75.81399968 188 77 C190.12045274 78.50899944 192.19269873 80.03469716 194.25 81.625 C194.8270166 82.07085449 195.4040332 82.51670898 195.99853516 82.97607422 C203.52547816 88.88001355 209.80650118 95.73911096 216 103 C216.69561035 103.72884399 216.69561035 103.72884399 217.40527344 104.47241211 C221.00406361 108.36771278 223.06683317 112.04864644 225.01586914 116.96191406 C228.07176989 125.37649328 228.07176989 125.37649328 234.41015625 131.20703125 C235.61542969 131.71621094 236.82070313 132.22539062 238.0625 132.75 C244.52896082 135.69248488 246.33628509 138.73360482 248.82592773 145.35644531 C251.384921 153.02449217 253.4843991 159.86209515 253 168 C253.7734375 168.3403125 253.7734375 168.3403125 254.5625 168.6875 C263.27765378 173.38027511 263.27765378 173.38027511 264.84936523 176.90454102 C265.36049334 179.08415001 265.68437068 181.21344014 265.9375 183.4375 C266.04900391 184.17548828 266.16050781 184.91347656 266.27539062 185.67382812 C266.86657763 189.80479322 267.11261353 193.82005078 267 198 C267.81726563 198.24492187 268.63453125 198.48984375 269.4765625 198.7421875 C273.63161324 200.22547612 277.45321289 202.11800949 281.375 204.125 C282.11105469 204.49753906 282.84710938 204.87007812 283.60546875 205.25390625 C285.40550358 206.1656122 287.20301402 207.08229932 289 208 C289 212.79421475 288.27242709 213.2318577 285.0625 216.5625 C280.11511223 221.86548126 275.45316324 227.27450441 271 233 C270.54850586 233.5475293 270.09701172 234.09505859 269.63183594 234.65917969 C262.76311586 243.06687073 260.2578167 248.75410576 261.04370117 259.65185547 C261.24634486 263.46057033 261.31782297 265.43722079 259.3984375 268.8359375 C257.96562355 270.40421749 256.51223397 271.95394245 255.0390625 273.484375 C247.5896344 282.67485718 247.93013791 298.63028791 247 310 C236.350292 308.46616317 226.2430333 305.20010122 216 302 C216.00523682 302.6705542 216.01047363 303.3411084 216.01586914 304.03198242 C216.03671605 307.083812 216.04968469 310.13562656 216.0625 313.1875 C216.07087891 314.24259766 216.07925781 315.29769531 216.08789062 316.38476562 C216.09111328 317.40634766 216.09433594 318.42792969 216.09765625 319.48046875 C216.10289307 320.41785889 216.10812988 321.35524902 216.11352539 322.32104492 C216 325 216 325 215 330 C206.42 330.33 197.84 330.66 189 331 C185 319 185 319 185 317 C183.75144226 316.94843246 182.50288452 316.89686493 181.2164917 316.84373474 C167.76724783 316.26138734 154.36909637 315.31991775 140.953125 314.22265625 C138.80102928 314.04921383 136.64890872 313.87607932 134.49676514 313.70323181 C128.88394913 313.25164057 123.27146926 312.79600209 117.65905762 312.3394165 C112.01248455 311.88074744 106.36560705 311.42586026 100.71875 310.97070312 C94.32585618 310.45515579 87.93299283 309.93924991 81.54034424 309.42066956 C80.56775036 309.34205405 79.59515648 309.26343855 78.59309006 309.18244076 C76.67084043 309.02588332 74.74877847 308.86700248 72.82692337 308.70567417 C67.59115756 308.26998315 62.35717219 307.89208206 57.1126709 307.57687378 C55.97145153 307.50213805 54.83023216 307.42740232 53.65443039 307.35040188 C51.45073094 307.20702277 49.24603453 307.07802825 47.04054642 306.96546268 C46.04721676 306.89798045 45.0538871 306.83049822 44.03045654 306.76097107 C43.15410931 306.71028693 42.27776207 306.65960279 41.37485886 306.60738277 C38.2725522 305.81395136 37.0293664 304.43166442 35 302 C33.58374023 299.22607422 33.58374023 299.22607422 32.30859375 296.0546875 C31.60379883 294.31445312 31.60379883 294.31445312 30.88476562 292.5390625 C30.40716797 291.32992188 29.92957031 290.12078125 29.4375 288.875 C28.95603516 287.6890625 28.47457031 286.503125 27.97851562 285.28125 C26.60947405 281.86900333 25.29565668 278.44068255 24 275 C23.46439453 273.66835815 23.46439453 273.66835815 22.91796875 272.30981445 C20.44204046 265.48675878 21.48407641 260.37515398 23.125 253.4375 C24.94819736 244.60813237 25.33932085 238.00396005 21.80517578 229.61694336 C19.51811603 224.05526299 20.29361728 220.51960228 22 215 C22.23283691 214.2150415 22.46567383 213.43008301 22.70556641 212.62133789 C23.1971471 210.99721956 23.6987752 209.37611136 24.20996094 207.75805664 C30.05982592 191.897205 30.05982592 191.897205 27.4375 176.0625 C26.8899707 175.03302246 26.34244141 174.00354492 25.77832031 172.94287109 C23.66614777 168.57488598 22.57915174 164.10443321 21.53515625 159.3828125 C21.21726135 157.95995186 21.21726135 157.95995186 20.89294434 156.50834656 C18.15855054 143.72849344 16.63256384 130.76887806 15 117.8125 C14.65442848 115.12466442 14.30529102 112.43729803 13.95556641 109.75 C13.7810244 108.40799106 13.60649432 107.06598057 13.43197632 105.72396851 C13.30329226 104.73463884 13.30329226 104.73463884 13.17200851 103.72532272 C12.91584916 101.75204446 12.66124246 99.77856484 12.40664673 97.80508423 C11.14348009 88.02430555 9.79784047 78.25866601 8.375 68.5 C7.99299555 65.85814279 7.61131577 63.21624266 7.23046875 60.57421875 C7.13552628 59.91594086 7.0405838 59.25766296 6.94276428 58.57943726 C5.63475395 49.48960946 4.35947456 40.39523589 3.10162354 31.29833984 C2.82882139 29.33143036 2.55408898 27.36478748 2.27728271 25.3984375 C1.89188433 22.65824614 1.51348022 19.91717172 1.13671875 17.17578125 C1.02137283 16.36591263 0.90602692 15.55604401 0.78718567 14.72163391 C0.11558544 9.76617644 -0.10369579 5.00127271 0 0 Z M19 17 C19.39312034 19.98569145 19.78635263 22.97136806 20.1796875 25.95703125 C20.30785355 26.9299411 20.43601959 27.90285095 20.56806946 28.90524292 C21.31077363 34.54035822 22.05518137 40.17524316 22.80200195 45.80981445 C23.13235238 48.3028934 23.46267369 50.79597621 23.79296875 53.2890625 C23.96538589 54.59036606 24.13780304 55.89166962 24.31544495 57.23240662 C25.41050803 65.50578898 26.49425438 73.78059098 27.57043076 82.05645084 C28.44348645 88.7685186 29.32232191 95.47981608 30.2045784 102.1906805 C30.74826622 106.32853846 31.28905917 110.46672946 31.82293701 114.60586548 C34.45513777 144.26982695 34.45513777 144.26982695 44.375 171.8125 C48.36769684 179.56508337 48.51344072 184.54058384 46 193 C45.60291444 194.56869127 45.21277132 196.13914984 44.828125 197.7109375 C43.22649043 204.14112992 41.56709223 210.48084091 39.27734375 216.703125 C37.63904987 221.55300336 38.06211729 224.8510968 40.11328125 229.55078125 C43.69331619 237.79535683 42.62713338 243.69746997 40.875 252.3125 C38.59596069 263.80737788 39.5170524 270.78008406 45 281 C45.37253906 281.89460938 45.74507812 282.78921875 46.12890625 283.7109375 C47.08091403 286.15444934 47.08091403 286.15444934 49 289 C52.39255199 289.98135167 55.83079909 290.21492959 59.34423828 290.47729492 C60.93665092 290.59861282 60.93665092 290.59861282 62.56123352 290.72238159 C63.71922958 290.80755035 64.87722565 290.89271912 66.0703125 290.98046875 C67.30367844 291.07385529 68.53704437 291.16724182 69.80778503 291.26345825 C72.49852918 291.46700514 75.18932861 291.66950544 77.88027954 291.87026978 C85.16682502 292.41411679 92.45252945 292.96907765 99.73828125 293.5234375 C100.50323851 293.58154161 101.26819576 293.63964573 102.05633354 293.69951057 C114.6585128 294.65735802 127.25761693 295.65096245 139.85546875 296.6640625 C141.14340836 296.76757869 141.14340836 296.76757869 142.45736694 296.87318611 C150.91526992 297.55323433 159.37294397 298.23607616 167.83036709 298.92206573 C170.97556218 299.17687454 174.12085455 299.43046771 177.26616859 299.68380356 C179.43496597 299.85897503 181.60361345 300.03592536 183.77226257 300.21292114 C185.06598282 300.31708344 186.35970306 300.42124573 187.69262695 300.52856445 C188.82005814 300.62007278 189.94748932 300.71158112 191.10908508 300.80586243 C193.40180418 300.95982854 195.70211697 301 198 301 C198.33 301.66 198.66 302.32 199 303 C199.07476562 302.38253906 199.14953125 301.76507813 199.2265625 301.12890625 C200.18612384 294.94820235 202.01825276 290.82243649 205.7578125 285.8125 C207.18844035 284.09126191 207.18844035 284.09126191 207 282 C207.61520508 282.18699463 208.23041016 282.37398926 208.86425781 282.56665039 C211.656488 283.40900652 214.45307145 284.23588481 217.25 285.0625 C218.21808594 285.35705078 219.18617188 285.65160156 220.18359375 285.95507812 C221.58544922 286.3659668 221.58544922 286.3659668 223.015625 286.78515625 C224.30388184 287.17006226 224.30388184 287.17006226 225.61816406 287.56274414 C228.13048469 288.02395429 229.6059952 287.81657856 232 287 C232.12004395 286.39003174 232.24008789 285.78006348 232.36376953 285.15161133 C232.92638533 282.36631908 233.52524551 279.59002155 234.125 276.8125 C234.40730469 275.37293945 234.40730469 275.37293945 234.6953125 273.90429688 C236.46044468 265.93362185 236.46044468 265.93362185 240.2109375 263.29296875 C241.13132812 262.53628906 242.05171875 261.77960938 243 261 C243.07371754 258.27245101 242.90110607 256.15103125 242.5 253.5 C241.51025979 241.2678956 249.73694148 232.0994234 257 223 C258.14590172 221.66259652 259.29882722 220.33115619 260.4609375 219.0078125 C263.21501736 216.40132266 263.21501736 216.40132266 263 214 C262.24074219 213.89429688 261.48148438 213.78859375 260.69921875 213.6796875 C256.85737434 212.65320248 254.88397682 211.79839887 252 209 C250.52495414 204.45210179 250.18172229 199.76057811 249.86010742 195.01123047 C249.40897116 187.69869335 249.40897116 187.69869335 245 182 C243.63101702 181.10343044 242.23513519 180.24624008 240.8125 179.4375 C238.194033 177.54103677 237.14891546 176.66805132 236.4375 173.4765625 C236.3510638 171.46151869 236.28047366 169.44575544 236.22265625 167.4296875 C235.7908432 160.77825133 234.32906568 154.76764053 231 149 C228.16811984 147.23631076 228.16811984 147.23631076 224.875 146.0625 C217.31751446 142.81752583 215.61979426 137.91600294 212.625 130.5 C208.12735618 119.38876775 202.67162637 112.16472462 193.61157227 104.40966797 C192.18834058 103.16474451 190.85327688 101.82056528 189.53515625 100.46484375 C187.51942431 98.50501809 185.6153602 96.91559759 183.36328125 95.265625 C171.09231472 86.22314524 164.0411074 76.18196273 158.64477539 61.9777832 C156.88998253 56.65318061 156.88998253 56.65318061 153.09375 52.890625 C151.61445372 52.53688024 150.12468301 52.22508959 148.62890625 51.94921875 C142.92225386 49.88871871 138.72455343 44.59672343 134.46240234 40.41357422 C131.75994867 37.80135272 128.88042506 35.41151865 126 33 C126.144375 32.32453125 126.28875 31.6490625 126.4375 30.953125 C126.7159375 29.61507812 126.7159375 29.61507812 127 28.25 C127.185625 27.36828125 127.37125 26.4865625 127.5625 25.578125 C128.11153675 22.77856035 128.11153675 22.77856035 128 19 C104.3011023 18.21199069 80.60823073 17.7486877 56.89825439 17.46777344 C52.5988095 17.41618967 48.29940745 17.36124208 44 17.30664062 C35.66670357 17.201274 27.33336968 17.09940449 19 17 Z"/>
<path transform="translate(856.41015625,259.75)" fill="rgba(255,255,255,0.7)" d="M0 0 C7.7996832 6.45850228 12.69330199 14.59486081 15.58984375 24.25 C15.58984375 26.23 15.58984375 28.21 15.58984375 30.25 C10.30984375 30.25 5.02984375 30.25 -0.41015625 30.25 C-1.42078125 28.22875 -2.43140625 26.2075 -3.47265625 24.125 C-7.20831771 17.01414335 -11.54344543 11.68607462 -19.2734375 8.78515625 C-28.88935758 6.37678138 -37.87866985 6.59283498 -46.59375 11.47265625 C-55.77499971 17.70340983 -59.86826122 26.96104167 -62.09765625 37.5 C-63.31972263 52.16479659 -61.92686146 65.93740245 -52.78515625 77.9375 C-47.81348009 83.47990429 -40.3549834 86.7611273 -33 87.48828125 C-24.66779031 87.72143587 -16.86798483 86.09537629 -10.03515625 81.0625 C-4.51328279 75.14620701 -2.20848741 69.00734669 -0.41015625 61.25 C-1.22282959 61.25523682 -2.03550293 61.26047363 -2.87280273 61.26586914 C-6.53107947 61.28656994 -10.18934392 61.29963803 -13.84765625 61.3125 C-15.12705078 61.32087891 -16.40644531 61.32925781 -17.72460938 61.33789062 C-18.93955078 61.34111328 -20.15449219 61.34433594 -21.40625 61.34765625 C-22.53216553 61.35289307 -23.65808105 61.35812988 -24.81811523 61.36352539 C-27.41015625 61.25 -27.41015625 61.25 -28.41015625 60.25 C-28.41015625 55.3 -28.41015625 50.35 -28.41015625 45.25 C-13.56015625 45.25 1.28984375 45.25 16.58984375 45.25 C16.58984375 74.15488432 16.58984375 74.15488432 7.58984375 87.25 C6.50703125 88.8278125 6.50703125 88.8278125 5.40234375 90.4375 C-5.07282322 100.91266697 -17.59929943 104.54966309 -32.09057617 104.56469727 C-44.54796299 104.32537723 -55.43968657 99.54278513 -64.66015625 91.21875 C-76.73820008 78.59170418 -80.94155934 61.36449491 -80.61328125 44.3125 C-80.09259899 31.00335345 -76.11843389 16.51730078 -66.87890625 6.5078125 C-65.656875 5.39019531 -65.656875 5.39019531 -64.41015625 4.25 C-63.79914062 3.6415625 -63.188125 3.033125 -62.55859375 2.40625 C-45.30639693 -13.70593382 -18.75384449 -13.61705402 0 0 Z"/>
<path transform="translate(456,259)" fill="rgba(255,255,255,0.7)" d="M0 0 C8.85207965 7.44567447 14.61712165 15.60867913 17 27 C17 28.32 17 29.64 17 31 C11.39 31 5.78 31 0 31 C-0.53625 29.68 -1.0725 28.36 -1.625 27 C-5.20235232 19.10001363 -9.04474094 13.5102277 -17.16015625 9.91015625 C-25.97449191 7.0852041 -34.52960137 7.28166472 -43 11 C-51.4672214 15.55927306 -56.44252162 23.02505896 -59.6875 31.875 C-63.40632102 45.09747473 -61.85113354 60.57072897 -55.8125 72.75 C-51.27152016 80.28236715 -45.1961023 84.68234534 -36.85546875 87.33984375 C-26.81306786 89.66154792 -17.86515321 87.57009326 -9.125 82.25 C-3.32996181 76.11407721 -1.89791975 71.54063889 0 63 C-8.91 62.67 -17.82 62.34 -27 62 C-27 56.72 -27 51.44 -27 46 C-12.15 46 2.7 46 18 46 C18 65.49254468 17.88252019 78.70152314 4.5625 92.875 C-6.05713601 102.76143174 -18.58122079 105.54473372 -32.79296875 105.2734375 C-45.71467722 104.68061781 -56.91512372 98.52488947 -65.8125 89.375 C-77.54930852 75.49659136 -80.14991148 58.04856525 -79.21142578 40.46289062 C-77.94501022 25.71046546 -72.02428464 12.07391527 -61 2 C-42.96679459 -11.71163844 -18.94650983 -13.24528043 0 0 Z"/>
<path transform="translate(687,252)" fill="rgba(255,255,255,0.7)" d="M0 0 C58.36790685 0 58.36790685 0 69.09375 9.07421875 C76.50800637 16.56444086 78.86253147 25.67611317 79 36 C78.19824688 46.79397262 74.29761746 54.52178196 66.16015625 61.58984375 C63.56173181 63.28610274 60.94652969 64.0621825 58 65 C59.95746526 68.77128454 61.91604284 72.54199021 63.875 76.3125 C64.45983154 77.43849609 65.04466309 78.56449219 65.6472168 79.72460938 C68.4466746 85.10944207 71.25276157 90.49034868 74.08984375 95.85546875 C74.55213379 96.72969482 75.01442383 97.6039209 75.49072266 98.50463867 C76.35966187 100.14509447 77.23037894 101.78461001 78.10302734 103.4230957 C81 108.89144991 81 108.89144991 81 110 C74.73 110 68.46 110 62 110 C60.98679687 108.03417969 59.97359375 106.06835938 58.9296875 104.04296875 C57.92706355 102.09985826 56.92400091 100.15697482 55.92089844 98.21411133 C55.23391817 96.88296678 54.54738076 95.55159358 53.86132812 94.2199707 C53.53068359 93.57825928 53.20003906 92.93654785 52.859375 92.27539062 C52.36626328 91.31709099 52.36626328 91.31709099 51.8631897 90.33943176 C51.19896432 89.05802446 50.52835003 87.77990882 49.85140991 86.50517273 C48.29888426 83.57649194 46.87748003 80.70492787 45.60400391 77.63793945 C44.30019245 74.6681467 43.19733522 72.38819182 41 70 C36.82346741 68.55034725 33.0059152 68.63725161 28.625 68.8125 C24.78875 68.874375 20.9525 68.93625 17 69 C17 82.53 17 96.06 17 110 C11.39 110 5.78 110 0 110 C0 73.7 0 37.4 0 0 Z M17 15 C17 27.54 17 40.08 17 53 C21.57875 53.0825 26.1575 53.165 30.875 53.25 C32.29796387 53.28641602 33.72092773 53.32283203 35.18701172 53.36035156 C43.96280927 53.43641747 51.61296845 52.72897682 58.5 46.875 C61.83020595 40.49210526 62.76492775 34.00521588 60.8203125 27.0390625 C58.89115663 22.2437322 56.18837883 19.62659974 51.5625 17.1875 C46.31668431 15.43889477 41.4592445 14.87392142 35.9453125 14.90234375 C34.44508545 14.90609009 34.44508545 14.90609009 32.91455078 14.90991211 C31.66399902 14.91901611 30.41344727 14.92812012 29.125 14.9375 C25.12375 14.958125 21.1225 14.97875 17 15 Z"/>
<path transform="translate(434,76)" fill="rgba(255,255,255,0.7)" d="M0 0 C59.87980769 0 59.87980769 0 70 10 C77.6585177 18.36205607 78.71764336 27.98195746 78.34375 38.8984375 C77.76149867 48.01067085 73.72069414 54.92337238 67 61 C61.39548023 65 61.39548023 65 58 65 C58.51908936 66.00788574 59.03817871 67.01577148 59.57299805 68.05419922 C61.52118182 71.83726017 63.46858686 75.62072156 65.41577148 79.40429688 C66.25443029 81.03363592 67.09329289 82.66287009 67.93237305 84.29199219 C72.33425486 92.83882645 76.72833204 101.38706461 81 110 C74.73 110 68.46 110 62 110 C60.576875 107.298125 59.15375 104.59625 57.6875 101.8125 C56.94367065 100.44822876 56.94367065 100.44822876 56.18481445 99.05639648 C53.70486121 94.48637366 51.54842699 89.97210204 49.73046875 85.09765625 C46.55068327 76.78565235 46.55068327 76.78565235 41 70 C33.0730618 67.17549022 25.31784644 68.40258562 17 69 C17 82.53 17 96.06 17 110 C11.39 110 5.78 110 0 110 C0 73.7 0 37.4 0 0 Z M17 15 C17 27.54 17 40.08 17 53 C21.62 53.061875 26.24 53.12375 31 53.1875 C32.44117188 53.21481201 33.88234375 53.24212402 35.3671875 53.27026367 C46.47896019 53.39292707 46.47896019 53.39292707 56.05859375 48.28125 C56.51363281 47.6934375 56.96867187 47.105625 57.4375 46.5 C57.91058594 45.9121875 58.38367188 45.324375 58.87109375 44.71875 C62.10815041 39.79035923 61.61462202 33.6387997 61 28 C59.30072772 23.06893417 56.6354878 20.02892912 52.0625 17.5625 C46.91630276 15.20602775 41.54053644 14.87350239 35.9453125 14.90234375 C34.44508545 14.90609009 34.44508545 14.90609009 32.91455078 14.90991211 C31.66399902 14.91901611 30.41344727 14.92812012 29.125 14.9375 C25.12375 14.958125 21.1225 14.97875 17 15 Z"/>
<path transform="translate(744,76)" fill="rgba(255,255,255,0.7)" d="M0 0 C56.27586207 0 56.27586207 0 69 9 C69.95519531 9.66128906 69.95519531 9.66128906 70.9296875 10.3359375 C81.27154013 18.28767308 86.32979525 31.14117938 88.08447266 43.68310547 C90.2621675 61.98672215 87.90864718 79.54217736 76.29296875 94.4921875 C68.20887884 103.33373047 58.5742711 107.68514578 47 110 C31.49 110 15.98 110 0 110 C0 73.7 0 37.4 0 0 Z M17 15 C17 41.4 17 67.8 17 95 C41.12137882 96.08899394 41.12137882 96.08899394 61.6875 85.9375 C70.0314843 76.90770877 72.12666878 64.8410125 71.97314453 52.91357422 C71.44001502 41.18196269 68.33596864 30.72721282 59.625 22.4375 C47.23801277 12.43661583 32.57824402 15 17 15 Z"/>
<path transform="translate(602,83)" fill="rgba(255,255,255,0.7)" d="M0 0 C12.42280162 10.08617181 19.16695213 23.08055726 21 39 C22.37637867 57.46957067 19.34787055 75.28094225 7.25 89.9375 C-1.95407517 99.44190008 -13.71949214 104.87161457 -26.95361328 105.47070312 C-40.83326359 105.66940964 -52.80946556 101.25158429 -63.21484375 92.0390625 C-75.35988673 79.49773213 -79.52410505 63.08017092 -79.34960938 46.09033203 C-78.88708651 30.46143436 -74.32467971 15.39744777 -63.20703125 3.9609375 C-45.41417755 -11.84793428 -19.58202227 -13.67099695 0 0 Z M-52.6875 17.81640625 C-61.92529494 29.24817748 -62.93928682 42.84336524 -62 57 C-60.38581518 67.53668671 -55.57709972 77.43502307 -47 84 C-38.77991174 88.57598822 -30.48218448 90.49243082 -21.18359375 88.3515625 C-11.97568006 85.35482842 -4.66527997 79.56779553 0 71 C5.55179019 57.73609958 6.08710427 41.49522379 1 28 C-2.79247451 19.78887918 -8.3142759 12.92935617 -16.6875 9.125 C-30.15578657 4.55086494 -42.93501401 7.31893869 -52.6875 17.81640625 Z"/>
<path transform="translate(651,259)" fill="rgba(255,255,255,0.7)" d="M0 0 C13.4326187 11.0771358 19.29805835 26.00185772 21 43 C22.2016496 59.59778505 17.77691862 76.58899097 6.96484375 89.4140625 C-2.45982566 99.35401365 -13.05105042 104.81634212 -26.81542969 105.40234375 C-41.05557896 105.64541884 -53.79469105 101.05308741 -64.25 91.25 C-78.00509535 76.60747914 -79.63078298 58.84997942 -79.12744141 39.73535156 C-78.46953367 25.61428197 -72.07540502 13.2890696 -62.38671875 3.15625 C-45.21317267 -12.35896676 -18.79513619 -13.10224106 0 0 Z M-55.16796875 20.4921875 C-61.30305159 28.89031795 -62.19325116 38.12167421 -62.25 48.1875 C-62.270625 49.08275391 -62.29125 49.97800781 -62.3125 50.90039062 C-62.37764246 62.17817887 -58.98979227 72.89546076 -50.9609375 81.078125 C-43.83843992 87.06806996 -35.87138879 89.70430599 -26.5703125 89.33984375 C-17.32985124 88.11808064 -10.03441745 84.09074405 -4 77 C4.15608974 64.07788227 5.68566058 49.44665982 2.6875 34.6640625 C0.00142033 24.25550379 -5.50640621 15.85890706 -14.70703125 10.1875 C-29.66210284 2.44245441 -44.87238078 8.56269169 -55.16796875 20.4921875 Z"/>
<path transform="translate(489,252)" fill="rgba(255,255,255,0.7)" d="M0 0 C23.76 0 47.52 0 72 0 C72 4.95 72 9.9 72 15 C53.85 15 35.7 15 17 15 C17 25.23 17 35.46 17 46 C33.83 46 50.66 46 68 46 C68 51.28 68 56.56 68 62 C51.17 62 34.34 62 17 62 C17 72.89 17 83.78 17 95 C35.15 95 53.3 95 72 95 C72 99.95 72 104.9 72 110 C48.24 110 24.48 110 0 110 C0 73.7 0 37.4 0 0 Z"/>
<path transform="translate(638,76)" fill="rgba(255,255,255,0.7)" d="M0 0 C5.61 0 11.22 0 17 0 C17.0093457 2.24989746 17.01869141 4.49979492 17.02832031 6.81787109 C17.0622063 14.28187376 17.11781929 21.74560332 17.18390274 29.20938683 C17.22328019 33.73123931 17.2555161 38.25289989 17.27099609 42.77490234 C17.28622719 47.14532125 17.32078584 51.51521224 17.36830902 55.88539505 C17.38305666 57.54615291 17.39103719 59.20698617 17.39188385 60.8678093 C17.21778142 75.33170801 17.21778142 75.33170801 23.64459229 87.88973999 C29.38171529 93.4208518 35.54697023 95.15267732 43.375 95.4375 C50.56823463 95.22936242 56.58143041 93.98648273 62.1015625 89.1640625 C67.73082985 83.11781239 69.29344883 77.46247837 69.31884766 69.25048828 C69.32889328 68.49858719 69.3389389 67.7466861 69.34928894 66.97200012 C69.37999955 64.50477817 69.39712202 62.03766413 69.4140625 59.5703125 C69.43278393 57.85251953 69.45235807 56.13473565 69.4727478 54.41696167 C69.52397207 49.90927508 69.5636496 45.4015587 69.60089111 40.89373779 C69.64099175 36.28845918 69.6920564 31.68330342 69.7421875 27.078125 C69.83883189 18.05216126 69.92225923 9.02614638 70 0 C75.61 0 81.22 0 87 0 C87.09067207 10.2407129 87.16392909 20.48115551 87.20724869 30.72218037 C87.22804873 35.4784325 87.25622639 40.23439374 87.30175781 44.99047852 C87.3454879 49.58761101 87.36919402 54.1844652 87.37950897 58.78178978 C87.38685191 60.52833621 87.40118995 62.27486887 87.42292023 64.02129555 C87.58675679 77.74485819 86.36006468 88.82215035 76.75 99.5 C64.73707398 110.42084184 53.03403985 112.69680513 37.06494141 112.13183594 C26.18051419 111.43692098 16.03540349 106.01685015 8.6015625 98.125 C2.28638983 89.74584407 -0.1650103 81.50141302 -0.11352539 71.18041992 C-0.11367142 70.40915771 -0.11381744 69.63789551 -0.1139679 68.84326172 C-0.11327378 66.305635 -0.10550492 63.76808258 -0.09765625 61.23046875 C-0.09579029 59.46641581 -0.09436723 57.70236236 -0.09336853 55.93830872 C-0.08955738 51.3039506 -0.07973909 46.66962401 -0.06866455 42.03527832 C-0.05842026 37.30282009 -0.05386445 32.57035675 -0.04882812 27.83789062 C-0.03811554 18.5585777 -0.02053012 9.27929641 0 0 Z"/>
<path transform="translate(342,76)" fill="rgba(255,255,255,0.7)" d="M0 0 C57.41891892 0 57.41891892 0 68 9 C75.4563268 17.00985324 78.44104113 26.04116186 78.265625 36.90234375 C77.43888149 46.54363206 74.31331517 54.01802927 67.4921875 60.90625 C56.66627823 70.00137127 44.48910171 70.29730166 30.9375 70.125 C26.338125 70.08375 21.73875 70.0425 17 70 C17 83.2 17 96.4 17 110 C11.39 110 5.78 110 0 110 C0 73.7 0 37.4 0 0 Z M17 15 C17 27.87 17 40.74 17 54 C21.785 54.0825 26.57 54.165 31.5 54.25 C32.99337891 54.28641602 34.48675781 54.32283203 36.02539062 54.36035156 C43.49682806 54.42264703 48.72618649 54.20823363 55 50 C59.41353172 45.58646828 60.81624684 41.27853921 61.3125 35.125 C61.14854413 30.08094585 60.0585348 25.27765055 56.60546875 21.45703125 C50.21161592 15.93727476 44.24779988 14.85954742 35.9453125 14.90234375 C34.44508545 14.90609009 34.44508545 14.90609009 32.91455078 14.90991211 C31.66399902 14.91901611 30.41344727 14.92812012 29.125 14.9375 C25.12375 14.958125 21.1225 14.97875 17 15 Z"/>
<path transform="translate(957.765869140625,251.886474609375)" fill="rgba(255,255,255,0.7)" d="M0 0 C0.74886475 0.00523682 1.49772949 0.01047363 2.26928711 0.01586914 C3.36188843 0.01961548 3.36188843 0.01961548 4.4765625 0.0234375 C5.40718506 0.0325415 6.33780762 0.04164551 7.29663086 0.05102539 C8.89094811 0.0625141 10.485268 0.0736403 12.07958984 0.08447266 C13.46443685 0.0941569 14.84928385 0.10384115 16.23413086 0.11352539 C22.17093701 15.00240709 27.56354119 30.07093654 32.92163086 45.17602539 C34.68962312 50.15053197 36.45948704 55.12437043 38.23022461 60.09790039 C38.87732895 61.91612053 38.87732895 61.91612053 39.5375061 63.77107239 C42.06380438 70.85997404 44.61488944 77.93897241 47.20678711 85.00415039 C47.49539108 85.79160141 47.78399506 86.57905243 48.0813446 87.3903656 C49.37490122 90.91602483 50.67455827 94.43927823 51.98291016 97.95947266 C52.42159424 99.15113037 52.86027832 100.34278809 53.31225586 101.57055664 C53.68769531 102.58093994 54.06313477 103.59132324 54.44995117 104.63232422 C55.23413086 107.11352539 55.23413086 107.11352539 55.23413086 110.11352539 C49.62413086 110.11352539 44.01413086 110.11352539 38.23413086 110.11352539 C35.41946145 103.3583188 32.91374895 96.51455043 30.48413086 89.61352539 C30.16629639 88.71666016 29.84846191 87.81979492 29.52099609 86.89575195 C29.07735718 85.62683105 29.07735718 85.62683105 28.62475586 84.33227539 C28.35695313 83.56850586 28.08915039 82.80473633 27.81323242 82.01782227 C27.23413086 80.11352539 27.23413086 80.11352539 27.23413086 78.11352539 C14.03413086 78.44352539 0.83413086 78.77352539 -12.76586914 79.11352539 C-16.39586914 89.34352539 -20.02586914 99.57352539 -23.76586914 110.11352539 C-29.70586914 110.11352539 -35.64586914 110.11352539 -41.76586914 110.11352539 C-35.05809444 89.19585956 -27.46889396 68.60508019 -19.91333008 47.98266602 C-18.10290977 43.03884976 -16.30120049 38.09191134 -14.50285339 33.14369202 C-13.11252287 29.31833052 -11.71991257 25.49380128 -10.32693481 21.66940308 C-9.6630817 19.8455873 -9.00005201 18.02147159 -8.33786011 16.197052 C-7.42196611 13.67475116 -6.50257948 11.1537511 -5.58227539 8.63305664 C-5.31013214 7.88111023 -5.03798889 7.12916382 -4.75759888 6.35443115 C-2.48898957 0.16001385 -2.48898957 0.16001385 0 0 Z M6.23413086 20.11352539 C5.88632568 21.1924707 5.53852051 22.27141602 5.18017578 23.38305664 C3.87934539 27.41671324 2.57602094 31.44956042 1.27197266 35.48217773 C0.70977686 37.22186945 0.14824201 38.96177492 -0.41259766 40.7019043 C-1.22259236 43.21468787 -2.03502443 45.72667262 -2.84790039 48.23852539 C-3.09490189 49.00656494 -3.34190338 49.77460449 -3.59638977 50.56591797 C-4.78981504 54.24611531 -6.04499755 57.87479193 -7.44824219 61.48071289 C-8.93635256 64.93949897 -8.93635256 64.93949897 -8.76586914 68.11352539 C1.79413086 68.11352539 12.35413086 68.11352539 23.23413086 68.11352539 C21.42215493 62.07360561 19.60320835 56.0694655 17.60522461 50.09399414 C17.3700563 49.3875325 17.134888 48.68107086 16.89259338 47.95320129 C16.40178772 46.48011147 15.91024291 45.00726771 15.41796875 43.53466797 C14.66758364 41.28891286 13.92044323 39.04209583 13.17358398 36.79516602 C12.69265675 35.3530445 12.21154359 33.91098496 11.73022461 32.46899414 C11.39890785 31.47200752 11.39890785 31.47200752 11.06089783 30.45487976 C9.89008568 26.95998463 8.6431026 23.51959332 7.23413086 20.11352539 C6.90413086 20.11352539 6.57413086 20.11352539 6.23413086 20.11352539 Z"/>
<path transform="translate(919,76)" fill="rgba(255,255,255,0.7)" d="M0 0 C6.37592284 -1.27249146 12.74996904 -2.29020346 19 0 C24.36316244 4.59815694 27.22070337 11.55169554 30.31982422 17.76367188 C32.11899617 21.22920856 34.08495527 24.56643969 36.12890625 27.890625 C36.47780914 28.45878433 36.82671204 29.02694366 37.18618774 29.61231995 C38.2274606 31.30455839 39.26997447 32.996033 40.3125 34.6875 C41.60693792 36.81235275 42.89524869 38.94095714 44.17578125 41.07421875 C44.99429565 42.42906372 44.99429565 42.42906372 45.8293457 43.8112793 C47 46 47 46 47 48 C47.66 48 48.32 48 49 48 C49.19851563 47.23042969 49.39703125 46.46085937 49.6015625 45.66796875 C51.98758049 39.40967016 55.73334801 33.92360017 59.28833008 28.26928711 C62.37416597 23.34785406 65.3318277 18.46619877 67.92578125 13.265625 C74.33889302 0.89634981 74.33889302 0.89634981 79.37158203 -0.79882812 C85.04169237 -1.61203712 90.39277742 -1.00296554 96 0 C91.9563481 7.60966951 87.64102326 15.01416143 83.13671875 22.35955811 C82.02456444 24.1873458 80.93068118 26.02514245 79.83984375 27.86572266 C76.33982255 33.74002062 72.81650819 39.37295145 68.58984375 44.765625 C53.88719288 64.39950375 56.10134583 86.48946673 57 110 C51.06 110 45.12 110 39 110 C39.04882324 108.06688965 39.04882324 108.06688965 39.09863281 106.09472656 C40.86994471 74.2475625 40.86994471 74.2475625 27.92724609 46.48193359 C24.30273853 41.81424372 21.42302213 36.63845354 18.42160034 31.55709839 C16.62627438 28.53073693 14.79217422 25.52815278 12.9609375 22.5234375 C6.12508484 11.26648335 6.12508484 11.26648335 3.4375 6.8125 C2.75558594 5.68457031 2.07367187 4.55664062 1.37109375 3.39453125 C0 1 0 1 0 0 Z"/>
<path transform="translate(847,76)" fill="rgba(255,255,255,0.7)" d="M0 0 C5.94 0 11.88 0 18 0 C18 31.35 18 62.7 18 95 C34.5 95 51 95 68 95 C68 99.95 68 104.9 68 110 C45.56 110 23.12 110 0 110 C0 73.7 0 37.4 0 0 Z"/>
<path transform="translate(889,252)" fill="rgba(255,255,255,0.7)" d="M0 0 C5.61 0 11.22 0 17 0 C17 36.3 17 72.6 17 110 C11.39 110 5.78 110 0 110 C0 73.7 0 37.4 0 0 Z"/>
</svg>